<svg xmlns="http://www.w3.org/2000/svg" width="124" height="124" viewBox="0 0 124 124">
  <g id="Group_14123" data-name="Group 14123" transform="translate(-266 -1868)">
    <circle id="Ellipse_10" data-name="Ellipse 10" cx="62" cy="62" r="62" transform="translate(266 1868)" fill="#0504a5"/>
    <g id="Group_34444" data-name="Group 34444" transform="translate(292 1893)">
      <path id="Path_50892" data-name="Path 50892" d="M5.474,26.579V45.105h4.632V26.579h1.6a1.874,1.874,0,0,0,1.675-2.712L9.465,16.035a1.874,1.874,0,0,0-3.351,0L2.2,23.867a1.874,1.874,0,0,0,1.675,2.712Z" transform="translate(0 1.895)" fill="#fff"/>
      <path id="Path_50893" data-name="Path 50893" d="M20.114,32.07a1.874,1.874,0,0,0,3.351,0l3.916-7.832a1.874,1.874,0,0,0-1.675-2.712h-1.6V3H19.474V21.526h-1.6A1.874,1.874,0,0,0,16.2,24.238Z" transform="translate(2.21)" fill="#fff"/>
      <path id="Path_50894" data-name="Path 50894" d="M35,29.947H60.474V23H35Zm6.947-4.632h2.316v2.316H41.947Zm-4.632,0h2.316v2.316H37.316Z" transform="translate(5.21 3.158)" fill="#fff"/>
      <path id="Path_50895" data-name="Path 50895" d="M60.474,7H35v6.947H60.474ZM39.632,11.632H37.316V9.316h2.316Zm4.632,0H41.947V9.316h2.316Z" transform="translate(5.21 0.632)" fill="#fff"/>
      <path id="Path_50896" data-name="Path 50896" d="M45.566,57.016a1.187,1.187,0,0,0-.748-.688,3.556,3.556,0,0,1-2.45-3.383V51.792a3.555,3.555,0,0,1,2.448-3.382,1.185,1.185,0,0,0,.75-.69c.059-.151.12-.3.186-.452a1.186,1.186,0,0,0-.044-1.012,3.548,3.548,0,0,1,.23-3.592A12.733,12.733,0,0,0,23.218,41.39l-.347.6-1.383-.045a9.3,9.3,0,0,0-8.851,6.675l-.366,1.256-1.2-.515a5.722,5.722,0,0,0-2.279-.469,5.789,5.789,0,1,0,0,11.579H45.356a3.55,3.55,0,0,1,.354-1.993,1.188,1.188,0,0,0,.044-1.011c-.066-.151-.129-.3-.188-.454ZM25.233,48.433a4.6,4.6,0,0,0-3.706-1.854,4.644,4.644,0,0,0-4.539,3.7l-2.269-.461a6.967,6.967,0,0,1,6.808-5.559,6.9,6.9,0,0,1,5.558,2.778Zm9.03-8.8a8.132,8.132,0,0,0-2.026.255l-.578-2.243a10.436,10.436,0,0,1,12.7,7.488l-2.242.579A8.1,8.1,0,0,0,34.263,39.632Z" transform="translate(0.158 5.052)" fill="#fff"/>
      <path id="Path_50897" data-name="Path 50897" d="M35,21.947H60.474V15H35Zm20.842-4.632h2.316v2.316H55.842Zm-4.632,0h2.316v2.316H51.21Z" transform="translate(5.21 1.895)" fill="#fff"/>
      <path id="Path_50898" data-name="Path 50898" d="M63.618,49.978a3.5,3.5,0,0,1-2.185-2.051c-.049-.126-.1-.249-.153-.372a3.5,3.5,0,0,1,.1-2.977,1.243,1.243,0,0,0-.23-1.442l-.815-.815a1.237,1.237,0,0,0-1.442-.23,3.5,3.5,0,0,1-2.978.1c-.122-.052-.245-.1-.369-.152A3.5,3.5,0,0,1,53.5,39.857,1.242,1.242,0,0,0,52.313,39H51.16a1.243,1.243,0,0,0-1.182.856,3.5,3.5,0,0,1-2.052,2.185c-.124.049-.248.1-.371.152a3.494,3.494,0,0,1-2.977-.1,1.24,1.24,0,0,0-1.442.23l-.815.815a1.243,1.243,0,0,0-.23,1.442,3.5,3.5,0,0,1,.1,2.978c-.052.12-.1.244-.152.368a3.5,3.5,0,0,1-2.185,2.052A1.245,1.245,0,0,0,39,51.16v1.153a1.243,1.243,0,0,0,.856,1.182,3.5,3.5,0,0,1,2.185,2.051c.049.126.1.249.153.372a3.5,3.5,0,0,1-.1,2.977,1.241,1.241,0,0,0,.23,1.44l.816.816a1.241,1.241,0,0,0,1.44.23,3.556,3.556,0,0,1,1.6-.386,3.427,3.427,0,0,1,1.373.286c.12.052.244.1.368.152a3.5,3.5,0,0,1,2.052,2.184,1.243,1.243,0,0,0,1.182.857h1.153a1.243,1.243,0,0,0,1.182-.856,3.5,3.5,0,0,1,2.051-2.185c.126-.049.249-.1.372-.153a3.5,3.5,0,0,1,2.977.1,1.243,1.243,0,0,0,1.44-.23l.816-.816a1.241,1.241,0,0,0,.23-1.44,3.5,3.5,0,0,1-.1-2.978c.052-.12.1-.244.152-.368A3.5,3.5,0,0,1,63.617,53.5a1.243,1.243,0,0,0,.857-1.182V51.16a1.242,1.242,0,0,0-.856-1.182ZM51.737,58.684a6.947,6.947,0,1,1,6.947-6.947A6.947,6.947,0,0,1,51.737,58.684Z" transform="translate(5.842 5.684)" fill="#fff"/>
      <path id="Path_50899" data-name="Path 50899" d="M35,34.491a15.144,15.144,0,0,1,7.619,7.055,3.549,3.549,0,0,1,3.637-.258,1.188,1.188,0,0,0,1.011.044c.149-.065.3-.127.453-.186a1.19,1.19,0,0,0,.69-.748,3.554,3.554,0,0,1,3.382-2.45h1.153A3.555,3.555,0,0,1,56.327,40.4a1.188,1.188,0,0,0,.69.75c.152.059.3.122.452.186a1.186,1.186,0,0,0,1.012-.044,3.55,3.55,0,0,1,1.993-.354V31H35Zm20.842-1.175h2.316v2.316H55.842Zm-4.632,0h2.316v2.316H51.21Z" transform="translate(5.21 4.421)" fill="#fff"/>
      <path id="Path_50900" data-name="Path 50900" d="M62.263,3H34.474A3.478,3.478,0,0,0,31,6.474V37.782a14.981,14.981,0,0,1,2.316.367V7.632a2.318,2.318,0,0,1,2.316-2.316H61.105a2.318,2.318,0,0,1,2.316,2.316V46.554l.63.63a3.552,3.552,0,0,1,.66,4.123,1.188,1.188,0,0,0-.044,1.011c.066.151.127.3.186.455a1.187,1.187,0,0,0,.748.688c.046.015.089.039.134.057V6.474A3.476,3.476,0,0,0,62.263,3Z" transform="translate(4.579)" fill="#fff"/>
      <circle id="Ellipse_832" data-name="Ellipse 832" cx="2" cy="2" r="2" transform="translate(55.658 55.579)" fill="#fff"/>
    </g>
  </g>
</svg>
