<svg xmlns="http://www.w3.org/2000/svg" width="124" height="124" viewBox="0 0 124 124">
  <g id="Group_14123" data-name="Group 14123" transform="translate(-266 -1868)">
    <circle id="Ellipse_10" data-name="Ellipse 10" cx="62" cy="62" r="62" transform="translate(266 1868)" fill="#0504a5"/>
    <g id="Group_34443" data-name="Group 34443" transform="translate(293 1895)">
      <path id="Path_50889" data-name="Path 50889" d="M7.087,48.144a30.5,30.5,0,0,1-3-13.271,30.792,30.792,0,0,1,49.24-24.648l-5.1.671a2.043,2.043,0,1,0,.533,4.052l9.59-1.263a2.043,2.043,0,0,0,1.759-2.292L58.85,1.8A2.043,2.043,0,0,0,56.558.043h0A2.043,2.043,0,0,0,54.8,2.336l.568,4.315A34.877,34.877,0,0,0,0,34.873,34.555,34.555,0,0,0,3.4,49.908a2.043,2.043,0,1,0,3.686-1.764Z" fill="#fff"/>
      <path id="Path_50890" data-name="Path 50890" d="M142.1,119.067l1.022-.59a2.043,2.043,0,0,0,.748-2.791l-4.768-8.258a2.043,2.043,0,0,0-2.791-.748l-1.022.59a3.519,3.519,0,0,1-5.278-3.047v-1.18A2.043,2.043,0,0,0,127.965,101h-9.536a2.043,2.043,0,0,0-2.043,2.043v1.18a3.519,3.519,0,0,1-5.278,3.047l-1.022-.59a2.043,2.043,0,0,0-2.791.748l-4.768,8.258a2.043,2.043,0,0,0,.748,2.791l1.022.59a3.519,3.519,0,0,1,0,6.094l-1.022.59a2.043,2.043,0,0,0-.748,2.791L107.3,136.8a2.043,2.043,0,0,0,2.791.748l1.022-.59a3.519,3.519,0,0,1,5.278,3.047v1.18a2.043,2.043,0,0,0,2.043,2.043h9.536a2.043,2.043,0,0,0,2.043-2.043v-1.18a3.519,3.519,0,0,1,5.278-3.047l1.022.59a2.043,2.043,0,0,0,2.791-.748l4.768-8.258a2.043,2.043,0,0,0-.748-2.791l-1.022-.59A3.519,3.519,0,0,1,142.1,119.067Zm-18.9,10.88a7.833,7.833,0,1,1,7.833-7.833A7.833,7.833,0,0,1,123.2,129.947Z" transform="translate(-88.324 -87.241)" fill="#fff"/>
      <path id="Path_50891" data-name="Path 50891" d="M127.316,138.265a2.043,2.043,0,1,0-3.686,1.764,30.5,30.5,0,0,1,3,13.271,30.792,30.792,0,0,1-49.24,24.648l5.1-.671a2.043,2.043,0,0,0-.533-4.052l-9.59,1.263A2.043,2.043,0,0,0,70.6,176.78l1.263,9.59a2.043,2.043,0,0,0,2.292,1.759h0a2.043,2.043,0,0,0,1.759-2.293l-.568-4.315a34.882,34.882,0,0,0,51.965-43.257Z" transform="translate(-60.971 -118.427)" fill="#fff"/>
    </g>
  </g>
</svg>
