<svg xmlns="http://www.w3.org/2000/svg" width="149.713" height="106.702" viewBox="0 0 149.713 106.702">
  <path id="Path_51056" data-name="Path 51056" d="M89.4,141.893A16.612,16.612,0,0,1,72.81,158.485q-.356,0-.713-.018c-.108,0-.217-.009-.325-.018s-.207-.012-.313-.021a16.648,16.648,0,0,1-13.754-9.648,2.105,2.105,0,0,0-3.83,1.75,20.866,20.866,0,0,0,13.18,11.346V168.7c-5.418-5.219-10.516-8.421-15.564-9.771-5.363-1.428-11.469-1.608-17.536-1.608-.776,0-1.548,0-2.324.006a13.859,13.859,0,0,0,6.019-6.04c2.2-4.852-.174-9.9-2.474-14.773-3.28-6.96-6.112-12.973,1.47-19.316a2.105,2.105,0,0,0-2.7-3.229c-10.071,8.43-5.914,17.25-2.576,24.34,2.065,4.377,3.845,8.159,2.45,11.238-1.332,2.934-5.727,5.5-13.063,7.642-6.515-.361-12.185-1.524-15.8-5.12-3-2.982-4.456-7.53-4.456-13.9,0-7.155,4.66-13.886,12.449-18.36a20.952,20.952,0,0,0-.691,5.306,22.693,22.693,0,0,0,5.318,14.3,2.1,2.1,0,0,0,3.274-2.646,18.541,18.541,0,0,1-4.38-11.656,18.879,18.879,0,0,1,5.093-12.48c4.585-5.153,11.863-8.9,20.161-10.438,4.5-.168,8.418,1.2,11.1,3.893a13.734,13.734,0,0,1,3.812,8.4,2.1,2.1,0,0,0,2.09,1.879,1.878,1.878,0,0,0,.226-.012,2.1,2.1,0,0,0,1.87-2.318,17.9,17.9,0,0,0-5.018-10.925,16.52,16.52,0,0,0-1.777-1.533,41.789,41.789,0,0,1,17.657,5.33l0,0c.15.084.3.174.445.262,0,0,.006.006.009.006,7.158,4.35,11.695,10.775,11.695,17.933a16.266,16.266,0,0,1-.168,2.306c-6.843,8.256-10.4,6.031-15.735,2.679-4.666-2.928-10.471-6.575-18.844-2.207a2.1,2.1,0,1,0,1.948,3.731c6.232-3.25,10.135-.8,14.656,2.041,2.859,1.795,5.908,3.71,9.422,3.71,3.106,0,6.578-1.5,10.6-5.9A16.412,16.412,0,0,1,89.4,141.893ZM77.274,89.92a2.1,2.1,0,0,0,3.646-2.1l-3.673-6.366a2.1,2.1,0,1,0-3.646,2.1Zm41.872.779a2.1,2.1,0,0,0,2.875-.77l3.682-6.374a2.1,2.1,0,0,0-3.645-2.105l-3.682,6.374A2.1,2.1,0,0,0,119.146,90.7ZM93.03,174.614c0,3.3,2.97,5.992,6.623,5.992s6.62-2.688,6.62-5.992v-.6H93.03Zm6.622-89.146a2.1,2.1,0,0,0,2.1-2.1V76.009a2.1,2.1,0,1,0-4.21,0v7.354A2.1,2.1,0,0,0,99.652,85.468Zm48.456,36.9h-7.354a2.1,2.1,0,1,0,0,4.21h7.354a2.1,2.1,0,1,0,0-4.21Zm-29.256.068a2.1,2.1,0,1,0,4.21,0c0-12.532-10.5-22.728-23.41-22.728a2.1,2.1,0,0,0,0,4.21c10.587,0,19.2,8.307,19.2,18.519Zm24.593-23.253a2.1,2.1,0,0,0-2.875-.77L134.2,102.1a2.1,2.1,0,1,0,2.105,3.645l6.374-3.682A2.1,2.1,0,0,0,143.446,99.184Zm-43.793-10.1a34.18,34.18,0,0,0-27.268,13.4,38.678,38.678,0,0,1,3.623,2.195A30,30,0,0,1,99.653,93.3c16.442,0,29.817,13.069,29.817,29.135,0,9.677-3.415,13.742-6.719,17.678-2.706,3.217-5.5,6.545-5.5,12.347a1.464,1.464,0,0,1-1.5,1.422H89.8a20.826,20.826,0,0,1-3.917,4.176.237.237,0,0,1-.042.036h29.91a5.746,5.746,0,0,0,1.885-.316,5.647,5.647,0,0,0,3.827-5.318c0-4.266,1.99-6.638,4.513-9.641,3.433-4.086,7.705-9.172,7.705-20.383C133.679,104.048,118.416,89.089,99.653,89.089ZM85.881,168.045a2.264,2.264,0,0,0,2.378,2.053h22.779a2.243,2.243,0,0,0,2.387-2.053V162.3H85.881v5.742Z" transform="translate(-0.5 -73.904)" fill="#0504a5"/>
</svg>
