<svg xmlns="http://www.w3.org/2000/svg" width="149.155" height="149.981" viewBox="0 0 149.155 149.981">
  <g id="Group_37530" data-name="Group 37530" transform="translate(-11.819 -8)">
    <path id="Path_51054" data-name="Path 51054" d="M60.853,43.074c8.986,1.277,18.4-5.308,18.4-15.729a4.733,4.733,0,0,1,4.757-4.707H98.492a4.733,4.733,0,0,1,4.757,4.707c0,14.12,17.281,21.2,27.367,11.217a4.8,4.8,0,0,1,6.733,0L147.589,48.7a4.671,4.671,0,0,1,0,6.654c-10.087,9.981-2.926,27.081,11.335,27.081a4.727,4.727,0,0,1,4.757,4.707v14.332a4.727,4.727,0,0,1-4.757,4.707c-14.261,0-21.422,17.1-11.335,27.081a4.681,4.681,0,0,1,0,6.662L137.348,150.06a4.8,4.8,0,0,1-6.733,0c-10.086-9.981-27.367-2.9-27.367,11.217a4.727,4.727,0,0,1-4.757,4.707H84.008a4.727,4.727,0,0,1-4.757-4.707c0-14.129-17.273-21.206-27.367-11.217a4.791,4.791,0,0,1-6.724,0L34.911,139.927a4.681,4.681,0,0,1,0-6.662c10.087-9.981,2.935-27.081-11.335-27.081a4.733,4.733,0,0,1-4.757-4.707V87.145a4.733,4.733,0,0,1,4.757-4.707A15.8,15.8,0,0,0,38.521,72.283H57.649a39.355,39.355,0,0,0-6.727,22.028c0,21.974,18.112,39.906,40.328,39.906s40.328-17.932,40.328-39.906S113.456,54.405,91.25,54.405A40.37,40.37,0,0,0,69.708,60.6ZM83.911,98.589l-.317-24.242a2.027,2.027,0,0,1,.594-1.458,2.071,2.071,0,0,1,1.466-.606H96.212a2.05,2.05,0,0,1,2.06,2.012l.317,24.295h11.488L91.25,116.339,72.424,98.589Z" transform="translate(-4.853 -10.149)" fill="#94c1ff" fill-rule="evenodd"/>
    <path id="Path_51055" data-name="Path 51055" d="M64.482,34.09a2.154,2.154,0,0,1-2.746-1.282,2.12,2.12,0,0,1,1.295-2.718,13.582,13.582,0,0,0,9.22-12.936,6.87,6.87,0,0,1,6.9-6.834H93.638a6.87,6.87,0,0,1,6.9,6.834c0,12.235,14.967,18.367,23.7,9.719a6.965,6.965,0,0,1,9.769,0l10.24,10.146a6.785,6.785,0,0,1,0,9.663c-8.736,8.648-2.534,23.465,9.818,23.465a6.862,6.862,0,0,1,6.9,6.834V91.32a6.862,6.862,0,0,1-6.9,6.834c-12.352,0-18.553,14.817-9.818,23.466a6.8,6.8,0,0,1,0,9.671l-10.24,10.138a6.965,6.965,0,0,1-9.769,0c-8.736-8.649-23.7-2.509-23.7,9.719a6.862,6.862,0,0,1-6.9,6.834H79.155a6.862,6.862,0,0,1-6.9-6.834c0-12.243-14.96-18.375-23.7-9.719a6.952,6.952,0,0,1-9.76,0L28.54,131.29a6.8,6.8,0,0,1,0-9.671c8.736-8.649,2.541-23.466-9.818-23.466a6.87,6.87,0,0,1-6.9-6.834V76.981a6.87,6.87,0,0,1,6.9-6.834,13.738,13.738,0,0,0,8.23-2.625,2.162,2.162,0,0,1,3,.441,2.112,2.112,0,0,1-.445,2.973A18.008,18.008,0,0,1,18.722,74.4a2.6,2.6,0,0,0-2.61,2.584V91.32a2.6,2.6,0,0,0,2.61,2.584c16.181,0,24.291,19.4,12.853,30.722a2.572,2.572,0,0,0,0,3.66l10.249,10.138a2.627,2.627,0,0,0,3.688,0c11.447-11.332,31.032-3.3,31.032,12.725a2.594,2.594,0,0,0,2.61,2.584H93.638a2.594,2.594,0,0,0,2.61-2.584c0-16.009,19.6-24.047,31.032-12.725a2.635,2.635,0,0,0,3.7,0l10.24-10.138a2.572,2.572,0,0,0,0-3.66C129.78,113.3,137.9,93.9,154.071,93.9a2.594,2.594,0,0,0,2.61-2.584V76.981a2.594,2.594,0,0,0-2.61-2.584C137.9,74.4,129.78,55,141.218,43.676a2.564,2.564,0,0,0,0-3.651l-10.24-10.147a2.636,2.636,0,0,0-3.7,0C115.843,41.2,96.248,33.172,96.248,17.153a2.6,2.6,0,0,0-2.61-2.584H79.155a2.6,2.6,0,0,0-2.61,2.584A17.778,17.778,0,0,1,64.482,34.09ZM47.6,68.78A2.155,2.155,0,0,1,50.39,67.6a2.119,2.119,0,0,1,1.191,2.765A36.548,36.548,0,0,0,48.9,84.15,37.437,37.437,0,1,0,73.059,49.456a2.155,2.155,0,0,1-2.772-1.226,2.12,2.12,0,0,1,1.238-2.744A41.906,41.906,0,0,1,86.4,42.774c23.014,0,41.795,18.583,41.795,41.377S109.41,125.527,86.4,125.527,44.6,106.934,44.6,84.15a40.752,40.752,0,0,1,3-15.37ZM76.884,86.305l-.289-22.1a4.142,4.142,0,0,1,1.212-2.979A4.229,4.229,0,0,1,80.8,59.987H91.358A4.186,4.186,0,0,1,95.564,64.1l.29,22.208h9.369a2.147,2.147,0,0,1,1.993,1.336,2.11,2.11,0,0,1-.512,2.328L87.878,107.727a2.163,2.163,0,0,1-2.962,0L66.09,89.969a2.11,2.11,0,0,1-.512-2.328,2.147,2.147,0,0,1,1.993-1.336ZM91.272,64.237H80.889L81.2,88.4a2.113,2.113,0,0,1-.619,1.52,2.157,2.157,0,0,1-1.528.632H72.935l13.461,12.7,13.461-12.7H93.735a2.137,2.137,0,0,1-2.146-2.1ZM34.781,12a7.338,7.338,0,0,1,13.067,0l21.1,41.774a7.168,7.168,0,0,1-.32,7.036,7.321,7.321,0,0,1-6.214,3.43h-42.2A7.321,7.321,0,0,1,14,60.807a7.17,7.17,0,0,1-.32-7.036Zm3.84,1.9-21.1,41.774a2.956,2.956,0,0,0,.132,2.9,3.018,3.018,0,0,0,2.562,1.414h42.2a3.018,3.018,0,0,0,2.561-1.414,2.956,2.956,0,0,0,.132-2.9L44.008,13.9a3.025,3.025,0,0,0-5.387,0Zm.546,9.084a2.147,2.147,0,0,1,4.293,0V43.911a2.147,2.147,0,0,1-4.293,0Zm2.147,26.145a3.036,3.036,0,1,1-3.067,3.036A3.053,3.053,0,0,1,41.314,49.127Z" fill="#0504a5" fill-rule="evenodd"/>
  </g>
</svg>
