<svg xmlns="http://www.w3.org/2000/svg" width="143.812" height="150" viewBox="0 0 143.812 150">
  <g id="Group_37525" data-name="Group 37525" transform="translate(-14.394 -4)">
    <g id="Group_37524" data-name="Group 37524" transform="translate(42.239 8.166)">
      <path id="Path_51045" data-name="Path 51045" d="M140.509,462.485v8.252H169.1v-8.252a1.607,1.607,0,0,0-1.605-1.606H142.115a1.607,1.607,0,0,0-1.606,1.606Z" transform="translate(-130.82 -329.07)" fill="#94c1ff"/>
      <path id="Path_51046" data-name="Path 51046" d="M302.415,460.88H277.037a1.607,1.607,0,0,0-1.605,1.606v8.252H304.02v-8.252a1.607,1.607,0,0,0-1.606-1.606Z" transform="translate(-225.587 -329.07)" fill="#94c1ff"/>
      <path id="Path_51047" data-name="Path 51047" d="M253.867,163.007a.9.9,0,1,0,.9.9A.9.9,0,0,0,253.867,163.007Z" transform="translate(-209.806 -119.85)" fill="#73d5ff"/>
      <path id="Path_51048" data-name="Path 51048" d="M172,95.372a2.084,2.084,0,0,1,1.958.194l4.11,2.756,10.213-10.214L185.521,84a2.082,2.082,0,0,1-.194-1.958l4.379-10.556a2.084,2.084,0,0,1,1.521-1.246l4.849-.956V54.838l-4.849-.956a2.082,2.082,0,0,1-1.521-1.246L185.327,42.08a2.084,2.084,0,0,1,.194-1.958l2.756-4.11L178.064,25.8l-4.11,2.756a2.08,2.08,0,0,1-1.958.194l-10.556-4.379a2.083,2.083,0,0,1-1.246-1.521L159.237,18H144.793l-.956,4.849a2.082,2.082,0,0,1-1.246,1.521l-10.557,4.379a2.084,2.084,0,0,1-1.958-.194l-4.11-2.756L115.753,36.011l2.756,4.11a2.082,2.082,0,0,1,.194,1.958l-4.379,10.557a2.084,2.084,0,0,1-1.521,1.246l-4.849.956V69.282l4.849.956a2.083,2.083,0,0,1,1.521,1.246L118.7,82.04A2.084,2.084,0,0,1,118.509,84l-2.756,4.11,10.213,10.214,4.11-2.756a2.082,2.082,0,0,1,1.958-.194l10.557,4.379a2.083,2.083,0,0,1,1.246,1.521l.956,4.849h14.444l.956-4.849a2.082,2.082,0,0,1,1.246-1.521Zm-19.98-1.851A31.461,31.461,0,1,1,183.476,62.06,31.5,31.5,0,0,1,152.015,93.521Z" transform="translate(-107.954 -17.999)" fill="#94c1ff"/>
    </g>
    <path id="Path_51049" data-name="Path 51049" d="M158.048,66.565a6.407,6.407,0,0,0-5.8-4.322H152.2c-2.314,0-6.74,1.4-10.752,10.611a183.621,183.621,0,0,1-8.569,17.113l-.009-.008c-1.517-1.308-5.676-3.733-11.515,2-5.434,5.334-10.672,9.764-17.363,15.182l-.056.047c-3.912,3.4-7.615,7.8-8.215,16.823a74.677,74.677,0,0,1-1.737,11.8h-.291a5.779,5.779,0,0,0-5.772,5.772v10.335A2.083,2.083,0,0,0,90,154h32.755a2.083,2.083,0,0,0,2.083-2.083V141.581a5.777,5.777,0,0,0-3.672-5.371,20.616,20.616,0,0,1,4.711-6.01,46.194,46.194,0,0,1,4.372-3.4c4.447-3.176,9.045-6.462,12.734-16.177l13.034-34.781c.007-.018.014-.037.02-.055a48.165,48.165,0,0,0,2.157-8.2,2.084,2.084,0,0,0-.146-1.023Zm-37.376,83.268H92.084v-8.252a1.607,1.607,0,0,1,1.605-1.606h25.378a1.607,1.607,0,0,1,1.606,1.606v8.252ZM152.105,74.41l-13.02,34.745c-3.238,8.529-7.133,11.311-11.257,14.257a50.122,50.122,0,0,0-4.751,3.7,23.952,23.952,0,0,0-6.31,8.693h-18.5a82.214,82.214,0,0,0,1.61-11.524c.471-7.094,2.937-10.6,6.765-13.932,6.773-5.486,12.087-9.981,17.631-15.423,2.477-2.431,4.454-3.043,5.876-1.816a3.084,3.084,0,0,1,1.2,2.4c.07,4.59-7.538,11.567-11.194,14.92-.622.571-1.16,1.063-1.6,1.482a2.083,2.083,0,1,0,2.883,3.008c.4-.387.926-.866,1.53-1.42,6.117-5.61,12.635-12.093,12.544-18.055a7.318,7.318,0,0,0-.174-1.485,177,177,0,0,0,9.931-19.45c2.608-5.988,5.359-8.109,6.93-8.109h.016a2.141,2.141,0,0,1,1.76,1.278,52.53,52.53,0,0,1-1.866,6.722Zm-73.194,61.4h-.29a74.765,74.765,0,0,1-1.737-11.8c-.6-9.025-4.3-13.419-8.215-16.823l-.056-.047c-6.691-5.419-11.929-9.849-17.363-15.182-5.84-5.731-10-3.306-11.515-2l-.009.008a183.841,183.841,0,0,1-8.569-17.113C27.143,63.643,22.718,62.244,20.4,62.244h-.052a6.407,6.407,0,0,0-5.8,4.322,2.084,2.084,0,0,0-.146,1.023,48.172,48.172,0,0,0,2.157,8.2c.006.018.013.037.02.055L29.62,110.634c3.685,9.707,8.283,12.992,12.73,16.169a46.156,46.156,0,0,1,4.372,3.4,20.612,20.612,0,0,1,4.711,6.01,5.777,5.777,0,0,0-3.672,5.371v10.335A2.083,2.083,0,0,0,49.845,154H82.6a2.083,2.083,0,0,0,2.083-2.083V141.582a5.779,5.779,0,0,0-5.772-5.772Zm-29.388-8.693a49.988,49.988,0,0,0-4.751-3.7c-4.124-2.946-8.019-5.729-11.254-14.249L20.5,74.41a52.565,52.565,0,0,1-1.866-6.722,2.141,2.141,0,0,1,1.76-1.278h.016c1.571,0,4.322,2.121,6.93,8.109a176.957,176.957,0,0,0,9.931,19.45,7.339,7.339,0,0,0-.174,1.485C37,101.416,43.52,107.9,49.636,113.509c.6.554,1.126,1.032,1.53,1.42a2.083,2.083,0,1,0,2.883-3.008c-.438-.419-.975-.912-1.6-1.482-3.656-3.353-11.264-10.33-11.194-14.92a3.083,3.083,0,0,1,1.2-2.4c1.421-1.226,3.4-.615,5.876,1.816,5.544,5.442,10.858,9.937,17.631,15.423,3.827,3.336,6.293,6.837,6.765,13.932a82.287,82.287,0,0,0,1.611,11.524h-18.5a23.951,23.951,0,0,0-6.311-8.693Zm30.993,22.717H51.928v-8.252a1.607,1.607,0,0,1,1.606-1.606H78.912a1.607,1.607,0,0,1,1.605,1.606v8.252ZM39.753,63.206l5.435,1.072,3.524,8.495-3.088,4.605a2.083,2.083,0,0,0,.257,2.633L58.517,92.647a2.083,2.083,0,0,0,2.634.257l4.605-3.088,8.5,3.524,1.071,5.435a2.083,2.083,0,0,0,2.044,1.68H95.235a2.083,2.083,0,0,0,2.044-1.68l1.071-5.435,8.495-3.524,4.605,3.088a2.083,2.083,0,0,0,2.634-.257L126.72,80.011a2.083,2.083,0,0,0,.257-2.633l-3.088-4.605,3.524-8.495,5.435-1.072a2.084,2.084,0,0,0,1.68-2.044V43.293a2.083,2.083,0,0,0-1.68-2.044l-5.435-1.072-3.524-8.495,3.088-4.605a2.084,2.084,0,0,0-.257-2.634L114.085,11.808a2.084,2.084,0,0,0-2.634-.257l-4.605,3.088-8.495-3.524L97.28,5.68A2.083,2.083,0,0,0,95.236,4H77.366a2.083,2.083,0,0,0-2.044,1.68l-1.071,5.435-8.5,3.524-4.605-3.088a2.084,2.084,0,0,0-2.634.257L45.882,24.444a2.083,2.083,0,0,0-.257,2.634l3.088,4.605-3.524,8.5-5.435,1.071a2.083,2.083,0,0,0-1.68,2.044V61.162a2.083,2.083,0,0,0,1.68,2.044Zm2.486-18.2,4.849-.956A2.082,2.082,0,0,0,48.61,42.8l4.379-10.557a2.084,2.084,0,0,0-.194-1.958l-2.756-4.11L60.252,15.966l4.11,2.756a2.083,2.083,0,0,0,1.958.194l10.557-4.379a2.084,2.084,0,0,0,1.246-1.521l.956-4.849H93.522l.956,4.849a2.082,2.082,0,0,0,1.246,1.521l10.556,4.379a2.082,2.082,0,0,0,1.958-.194l4.11-2.756,10.213,10.213-2.756,4.11a2.082,2.082,0,0,0-.194,1.958L123.991,42.8a2.083,2.083,0,0,0,1.521,1.246l4.849.956V59.449l-4.849.956a2.083,2.083,0,0,0-1.521,1.246l-4.379,10.556a2.084,2.084,0,0,0,.194,1.958l2.756,4.11L112.349,88.49l-4.11-2.756a2.082,2.082,0,0,0-1.958-.194L95.724,89.918a2.084,2.084,0,0,0-1.246,1.521l-.956,4.849H79.079l-.956-4.849a2.082,2.082,0,0,0-1.246-1.521L66.32,85.539a2.084,2.084,0,0,0-1.958.194l-4.11,2.756L50.038,78.276l2.756-4.11a2.082,2.082,0,0,0,.194-1.958L48.61,61.652a2.084,2.084,0,0,0-1.521-1.246l-4.849-.956ZM86.3,83.688A31.461,31.461,0,1,0,54.839,52.228,31.5,31.5,0,0,0,86.3,83.688Zm0-58.755A27.294,27.294,0,1,1,59.006,52.228,27.325,27.325,0,0,1,86.3,24.934Zm-2.084,3.385V27.255a2.083,2.083,0,0,1,4.167,0v1.064a2.083,2.083,0,0,1-4.167,0Zm17.517,8.476a2.084,2.084,0,0,1,0-2.946l.752-.752a2.083,2.083,0,0,1,2.946,2.946l-.752.752a2.084,2.084,0,0,1-2.946,0Zm6.393,15.433a2.083,2.083,0,0,1,2.083-2.083h1.064a2.083,2.083,0,1,1,0,4.167h-1.064A2.083,2.083,0,0,1,108.126,52.228Zm-6.393,18.38a2.083,2.083,0,0,1,2.946-2.946l.752.752a2.083,2.083,0,0,1-2.946,2.946Zm-13.35,5.529V77.2a2.083,2.083,0,0,1-4.167,0V76.137a2.083,2.083,0,0,1,4.167,0ZM67.168,71.359a2.084,2.084,0,0,1,0-2.946l.752-.752a2.083,2.083,0,0,1,2.946,2.946l-.752.752a2.084,2.084,0,0,1-2.946,0ZM64.474,52.228a2.083,2.083,0,0,1-2.083,2.083H61.327a2.083,2.083,0,0,1,0-4.167h1.064A2.083,2.083,0,0,1,64.474,52.228Zm2.694-16.186A2.083,2.083,0,0,1,70.115,33.1l.752.752a2.083,2.083,0,0,1-2.946,2.946ZM75.516,65.1a2.078,2.078,0,0,0,1.473-.61l7.228-7.228v10.1a2.083,2.083,0,1,0,4.166,0V56.845a5.045,5.045,0,0,0,2.655-6.408L92.7,48.774a2.083,2.083,0,0,0-2.946-2.946l-1.37,1.37V37.1a2.083,2.083,0,1,0-4.167,0V47.609a5.046,5.046,0,0,0-2.654,6.41l-7.52,7.52A2.083,2.083,0,0,0,75.516,65.1ZM87.2,52.228a.9.9,0,1,1-.9-.9A.9.9,0,0,1,87.2,52.228Z" transform="translate(0)" fill="#0504a5"/>
  </g>
</svg>
