<svg xmlns="http://www.w3.org/2000/svg" width="124" height="124" viewBox="0 0 124 124">
  <g id="Group_14123" data-name="Group 14123" transform="translate(-266 -1868)">
    <circle id="Ellipse_10" data-name="Ellipse 10" cx="62" cy="62" r="62" transform="translate(266 1868)" fill="#0504a5"/>
    <g id="Group_37106" data-name="Group 37106" transform="translate(295.594 1897.594)">
      <path id="Path_2574" data-name="Path 2574" d="M63.152,32.576A30.576,30.576,0,1,0,6.169,48V45.085a6.976,6.976,0,0,1,1.362-4.142,26.069,26.069,0,0,1-1.362-8.367,26.407,26.407,0,1,1,52.813,0,26.069,26.069,0,0,1-1.362,8.367,6.976,6.976,0,0,1,1.362,4.142V48a30.366,30.366,0,0,0,4.169-15.427Z" transform="translate(0 0)" fill="#fff"/>
      <path id="Path_2575" data-name="Path 2575" d="M50.065,30.608a1.394,1.394,0,0,1,1.39-1.39h2.71a23.424,23.424,0,0,0-2.474-9.173l-1.126.653a1.395,1.395,0,0,1-1.39-2.418l1.126-.653a23.754,23.754,0,0,0-6.713-6.713l-.653,1.126a1.395,1.395,0,0,1-2.418-1.39l.653-1.126A23.424,23.424,0,0,0,32,7.05V9.76a1.39,1.39,0,1,1-2.78,0V7.05a23.424,23.424,0,0,0-9.173,2.474L20.7,10.65a1.395,1.395,0,0,1-2.418,1.39l-.653-1.126a23.754,23.754,0,0,0-6.713,6.713l1.126.653A1.395,1.395,0,0,1,10.65,20.7l-1.126-.653A23.424,23.424,0,0,0,7.05,29.218H9.76a1.39,1.39,0,1,1,0,2.78H7.05a23.415,23.415,0,0,0,.834,4.976,6.97,6.97,0,0,1,3.266-.806H50.065a6.97,6.97,0,0,1,3.266.806A23.415,23.415,0,0,0,54.165,32h-2.71a1.394,1.394,0,0,1-1.39-1.39Zm-19.458,2.78A2.735,2.735,0,0,1,28.217,32H19.489a1.39,1.39,0,1,1,0-2.78h8.728a2.661,2.661,0,0,1,1-1V16.709a1.39,1.39,0,1,1,2.78,0V28.217a2.735,2.735,0,0,1,1.39,2.391A2.788,2.788,0,0,1,30.608,33.387Z" transform="translate(1.969 1.969)" fill="#fff"/>
      <path id="Path_2576" data-name="Path 2576" d="M50.085,30H11.169A4.169,4.169,0,0,0,7,34.169v13.9a4.169,4.169,0,0,0,4.169,4.169H50.085a4.169,4.169,0,0,0,4.169-4.169v-13.9A4.169,4.169,0,0,0,50.085,30ZM19.508,39.729a2.782,2.782,0,0,1-2.78,2.78h-2.78v2.78h4.169a1.39,1.39,0,1,1,0,2.78H13.949a2.782,2.782,0,0,1-2.78-2.78v-2.78a2.782,2.782,0,0,1,2.78-2.78h2.78v-2.78H12.559a1.39,1.39,0,1,1,0-2.78h4.169a2.782,2.782,0,0,1,2.78,2.78Zm11.119,6.949a1.39,1.39,0,1,1-2.78,0V42.508h-2.78a2.782,2.782,0,0,1-2.78-2.78V35.559a1.39,1.39,0,0,1,2.78,0v4.169h2.78V35.559a1.39,1.39,0,0,1,2.78,0Zm5.532,1.662A1.391,1.391,0,0,1,34.8,49.458a1.317,1.317,0,0,1-.274-.028,1.388,1.388,0,0,1-1.09-1.636l2.78-13.9a1.39,1.39,0,0,1,2.725.546l-2.78,13.9ZM49.291,37.925l-3.465,9.241a1.39,1.39,0,0,1-2.6-.977l3.465-9.241H43.134a1.39,1.39,0,0,1,0-2.78h3.554a2.779,2.779,0,0,1,2.6,3.755Z" transform="translate(1.949 10.915)" fill="#fff"/>
    </g>
  </g>
</svg>
