<svg xmlns="http://www.w3.org/2000/svg" width="124" height="124" viewBox="0 0 124 124">
  <g id="Group_14123" data-name="Group 14123" transform="translate(-266 -1868)">
    <circle id="Ellipse_10" data-name="Ellipse 10" cx="62" cy="62" r="62" transform="translate(266 1868)" fill="#0504a5"/>
    <g id="Group_37110" data-name="Group 37110" transform="translate(295 1897)">
      <path id="Path_2585" data-name="Path 2585" d="M64.01,0H1.932A1.932,1.932,0,0,0,0,1.932V48.3a1.932,1.932,0,0,0,1.932,1.932H37.783a11.656,11.656,0,1,1,17.55,0H64.01A1.932,1.932,0,0,0,65.941,48.3V1.932A1.932,1.932,0,0,0,64.01,0ZM13.658,19.319a1.932,1.932,0,0,1-1.932-1.932V9.659a1.932,1.932,0,0,1,1.932-1.932h7.728a1.932,1.932,0,1,1,0,3.864h-5.8v3.864h5.8a1.932,1.932,0,0,1,1.932,1.932v7.728a1.932,1.932,0,0,1-1.932,1.932H13.652a1.932,1.932,0,0,1,0-3.864h5.8V19.319ZM29.107,42.5H13.652a1.932,1.932,0,1,1,0-3.864H29.107a1.932,1.932,0,0,1,0,3.864Zm0-7.728H13.652a1.932,1.932,0,0,1,0-3.864H29.107a1.932,1.932,0,0,1,0,3.864Zm7.734-19.319a1.932,1.932,0,0,1,1.932,1.932v7.728a1.932,1.932,0,0,1-1.932,1.932H29.107a1.932,1.932,0,0,1,0-3.864h5.8V19.319h-5.8a1.932,1.932,0,0,1-1.932-1.932V9.659a1.932,1.932,0,0,1,1.932-1.932h7.728a1.932,1.932,0,0,1,0,3.864h-5.8v3.864Zm17.387,9.659A1.932,1.932,0,0,1,52.3,27.046H44.568a1.932,1.932,0,0,1-1.932-1.932V9.659a1.932,1.932,0,0,1,3.864,0V23.183h3.864V21.251a1.932,1.932,0,0,1,3.864,0Z" fill="#fff"/>
      <path id="Path_2586" data-name="Path 2586" d="M316.485,397.871a11.631,11.631,0,0,1-15.445-.114c0,1.213.006,4.351,0,12.779a1.933,1.933,0,0,0,3,1.612l4.777-3.153,4.656,3.142a1.934,1.934,0,0,0,3.013-1.6C316.479,402.171,316.486,399.069,316.485,397.871Z" transform="translate(-262.269 -346.529)" fill="#fff"/>
      <circle id="Ellipse_30" data-name="Ellipse 30" cx="7.792" cy="7.792" r="7.792" transform="translate(38.766 34.772)" fill="#fff"/>
    </g>
  </g>
</svg>
