<svg xmlns="http://www.w3.org/2000/svg" width="124" height="124" viewBox="0 0 124 124">
  <g id="Group_14123" data-name="Group 14123" transform="translate(-266 -1868)">
    <circle id="Ellipse_10" data-name="Ellipse 10" cx="62" cy="62" r="62" transform="translate(266 1868)" fill="#0504a5"/>
    <g id="Group_37109" data-name="Group 37109" transform="translate(282.768 1884.886)">
      <path id="path2" d="M46.024,12.131a31.29,31.29,0,0,0-31.1,22.538,5.08,5.08,0,0,0-2.016.186,10.313,10.313,0,0,0-6.181,5.4A18.255,18.255,0,0,0,5.461,50.507a15.618,15.618,0,0,0,4.172,8.842,7.025,7.025,0,0,0,6.521,2.1c3.35-.715,5.011-1.25,4.542-4.371L18.425,41.944a26.614,26.614,0,0,1,53.146.036L69.983,52.563A26.589,26.589,0,0,1,47.5,69.923H40.733a3.145,3.145,0,0,0-3.152,3.15v1.662a3.145,3.145,0,0,0,3.152,3.151h8.531a3.14,3.14,0,0,0,3.145-3.151v-.869a31.408,31.408,0,0,0,18.7-13.146l2.733.725c2.224.577,4.516-.158,6.521-2.1a15.627,15.627,0,0,0,4.172-8.842,18.377,18.377,0,0,0-1.266-10.256,8.912,8.912,0,0,0-5.417-5.192,11.6,11.6,0,0,0-2.8-.391A31.287,31.287,0,0,0,46.024,12.131Z" fill="#fff" fill-rule="evenodd"/>
      <path id="path4" d="M56.009,39.349a4.089,4.089,0,1,1-4.094,4.089A4.092,4.092,0,0,1,56.009,39.349Zm-11.01,0a4.089,4.089,0,1,1-4.09,4.089A4.085,4.085,0,0,1,45,39.349Zm-11.006,0A4.089,4.089,0,1,1,29.9,43.438,4.089,4.089,0,0,1,33.993,39.349ZM45,21.787A21.75,21.75,0,0,0,29.223,58.406L27.931,64.2c-.426,1.906.9,3.188,2.609,2.234L36.2,63.277A22.035,22.035,0,0,0,45,65.089a21.4,21.4,0,0,0,21.65-21.651A21.407,21.407,0,0,0,45,21.787Z" fill="#fff" fill-rule="evenodd"/>
    </g>
  </g>
</svg>
