<svg xmlns="http://www.w3.org/2000/svg" width="124" height="124" viewBox="0 0 124 124">
  <g id="Group_14123" data-name="Group 14123" transform="translate(-266 -1868)">
    <circle id="Ellipse_10" data-name="Ellipse 10" cx="62" cy="62" r="62" transform="translate(266 1868)" fill="#0504a5"/>
    <path id="Path_50951" data-name="Path 50951" d="M41.018,70.279H20.045A5.048,5.048,0,0,1,15,65.234V61.272H85.258v3.962a5.048,5.048,0,0,1-5.045,5.045H59.077a29.594,29.594,0,0,0,1.691,10.228H39.46a30.08,30.08,0,0,0,1.558-10.228Zm6.34-3.992H52.9a1.025,1.025,0,1,0,0-2.049H47.358a1.025,1.025,0,1,0,0,2.049ZM15,59.222V24.906a5.046,5.046,0,0,1,5.045-5.045H81.553a3.706,3.706,0,0,1,3.7,3.705V59.222ZM27.283,32.628a5.695,5.695,0,1,0,5.7-5.694A5.694,5.694,0,0,0,27.283,32.628Zm2.049,0a3.645,3.645,0,1,1,3.646,3.646A3.645,3.645,0,0,1,29.332,32.628ZM44.106,50.094a11.128,11.128,0,1,0-22.257,0c0,1.463.959,2.71,2.655,3.588A19.761,19.761,0,0,0,32.978,55.3a19.761,19.761,0,0,0,8.473-1.621C43.147,52.8,44.106,51.557,44.106,50.094Zm-2.049,0c0,.77-.655,1.306-1.548,1.768a17.622,17.622,0,0,1-7.531,1.392,17.622,17.622,0,0,1-7.531-1.392c-.893-.462-1.548-1-1.548-1.768a9.079,9.079,0,1,1,18.158,0ZM54.768,28.465l-.03-.27a6.681,6.681,0,0,0-6.623-5.925h-.3a3.457,3.457,0,0,0,0,6.914H47.9l2.028,18h0a6.69,6.69,0,0,0,4.8,5.668,3.923,3.923,0,1,0,7.814.5q0-.124-.008-.247h4.458q-.007.123-.008.247a3.923,3.923,0,1,0,7.846,0q0-.124-.008-.247h1.159a3.457,3.457,0,0,0,0-6.914H73.768A4.153,4.153,0,0,0,75.7,43.274v0l2.288-10.421c.008-.035.014-.07.02-.106a3.6,3.6,0,0,0-.843-3.02A3.852,3.852,0,0,0,74.2,28.465Zm18.01,24.892A1.874,1.874,0,1,1,70.9,51.484,1.872,1.872,0,0,1,72.777,53.357ZM70.934,30.514H74.2a1.623,1.623,0,0,1,1.789,1.9L75.6,34.19H70.52ZM60.49,53.357a1.874,1.874,0,1,1-1.874-1.873A1.874,1.874,0,0,1,60.49,53.357Zm14.66-17.118-.564,2.569H70l.29-2.569ZM59.973,30.514h8.9l-.414,3.676h-8.07ZM74.136,40.857l-.438,2a2,2,0,0,1-1.987,1.811H69.339l.429-3.807ZM55.412,34.19,55,30.514h2.912l.414,3.676ZM67.276,44.665h-5.71l-.428-3.807h6.568Zm-7.772,0H56.592l-.429-3.807h2.912Zm-3.571-5.857-.289-2.569h2.913l.165,1.465.124,1.1Zm20.045,9.437a1.408,1.408,0,0,1,0,2.816H56.549a4.632,4.632,0,0,1-4.589-4.1L49.907,28.732a1.791,1.791,0,0,0-1.793-1.6h-.3a1.408,1.408,0,0,1,0-2.816h.3A4.632,4.632,0,0,1,52.7,28.425l2.053,18.223a1.791,1.791,0,0,0,1.795,1.6ZM68.226,36.239l-.29,2.569H60.908l-.15-1.333-.139-1.236ZM33.708,82.556H66.551a3.07,3.07,0,0,1,0,6.14H33.708a3.07,3.07,0,0,1,0-6.14Z" transform="translate(278 1876.139)" fill="#fff" fill-rule="evenodd"/>
  </g>
</svg>
