<svg xmlns="http://www.w3.org/2000/svg" width="124" height="124" viewBox="0 0 124 124">
  <g id="Group_14123" data-name="Group 14123" transform="translate(-266 -1868)">
    <circle id="Ellipse_10" data-name="Ellipse 10" cx="62" cy="62" r="62" transform="translate(266 1868)" fill="#0504a5"/>
    <g id="Group_34529" data-name="Group 34529" transform="translate(294 1895)">
      <path id="Path_50934" data-name="Path 50934" d="M5.275,25.917V43.385H9.642V25.917h1.509a1.766,1.766,0,0,0,1.58-2.557L9.038,15.976a1.766,1.766,0,0,0-3.159,0L2.187,23.36a1.766,1.766,0,0,0,1.58,2.557Z" transform="translate(0 1.101)" fill="#fff"/>
      <path id="Path_50935" data-name="Path 50935" d="M19.879,30.409a1.766,1.766,0,0,0,3.159,0l3.692-7.384a1.766,1.766,0,0,0-1.58-2.557H23.642V3H19.275V20.467H17.766a1.766,1.766,0,0,0-1.58,2.557Z" transform="translate(1.284)" fill="#fff"/>
      <path id="Path_50936" data-name="Path 50936" d="M35,29.55H59.018V23H35Zm6.55-4.367h2.183v2.183H41.55Zm-4.367,0h2.183v2.183H37.183Z" transform="translate(3.027 1.834)" fill="#fff"/>
      <path id="Path_50937" data-name="Path 50937" d="M59.018,7H35v6.55H59.018ZM39.367,11.367H37.183V9.183h2.183Zm4.367,0H41.55V9.183h2.183Z" transform="translate(3.027 0.367)" fill="#fff"/>
      <path id="Path_50938" data-name="Path 50938" d="M43.134,55.758a1.119,1.119,0,0,0-.705-.648,3.353,3.353,0,0,1-2.31-3.19V50.832a3.351,3.351,0,0,1,2.308-3.189,1.117,1.117,0,0,0,.707-.651c.056-.142.114-.285.176-.426a1.119,1.119,0,0,0-.041-.954,3.345,3.345,0,0,1,.217-3.386,12.005,12.005,0,0,0-21.423-1.2l-.328.568-1.3-.043a8.764,8.764,0,0,0-8.345,6.294l-.345,1.185-1.134-.486A5.4,5.4,0,0,0,8.459,48.1a5.459,5.459,0,0,0,0,10.917H42.935a3.347,3.347,0,0,1,.334-1.879,1.12,1.12,0,0,0,.041-.953c-.062-.142-.121-.284-.177-.428ZM23.962,47.665a4.333,4.333,0,0,0-3.495-1.748,4.378,4.378,0,0,0-4.28,3.492l-2.14-.435a6.569,6.569,0,0,1,6.419-5.241,6.5,6.5,0,0,1,5.24,2.619Zm8.514-8.3a7.667,7.667,0,0,0-1.911.24l-.545-2.115a9.839,9.839,0,0,1,11.971,7.06l-2.114.546a7.639,7.639,0,0,0-7.4-5.731Z" transform="translate(0.092 2.935)" fill="#fff"/>
      <path id="Path_50939" data-name="Path 50939" d="M35,21.55H59.018V15H35Zm19.651-4.367h2.183v2.183H54.651Zm-4.367,0h2.183v2.183H50.284Z" transform="translate(3.027 1.101)" fill="#fff"/>
      <path id="Path_50940" data-name="Path 50940" d="M62.211,49.351a3.3,3.3,0,0,1-2.06-1.933c-.046-.119-.094-.235-.144-.35A3.3,3.3,0,0,1,60.1,44.26a1.172,1.172,0,0,0-.217-1.359l-.769-.769a1.167,1.167,0,0,0-1.359-.217,3.3,3.3,0,0,1-2.808.095c-.115-.049-.231-.1-.348-.143a3.3,3.3,0,0,1-1.933-2.059A1.171,1.171,0,0,0,51.553,39H50.465a1.172,1.172,0,0,0-1.115.807,3.3,3.3,0,0,1-1.935,2.06c-.117.046-.234.093-.349.143a3.294,3.294,0,0,1-2.807-.095,1.17,1.17,0,0,0-1.359.217l-.769.769a1.172,1.172,0,0,0-.217,1.359,3.3,3.3,0,0,1,.095,2.808c-.049.114-.1.23-.143.347a3.3,3.3,0,0,1-2.06,1.935A1.173,1.173,0,0,0,39,50.465v1.087a1.172,1.172,0,0,0,.807,1.115,3.3,3.3,0,0,1,2.06,1.933c.046.119.094.235.144.35a3.3,3.3,0,0,1-.095,2.807,1.17,1.17,0,0,0,.217,1.358l.77.77a1.17,1.17,0,0,0,1.358.217,3.353,3.353,0,0,1,1.513-.364,3.231,3.231,0,0,1,1.295.27c.114.049.23.1.347.143a3.3,3.3,0,0,1,1.935,2.059,1.172,1.172,0,0,0,1.115.808h1.087a1.172,1.172,0,0,0,1.115-.807,3.3,3.3,0,0,1,1.933-2.06c.119-.046.235-.094.35-.144a3.3,3.3,0,0,1,2.807.095,1.172,1.172,0,0,0,1.358-.217l.77-.77a1.17,1.17,0,0,0,.217-1.358,3.3,3.3,0,0,1-.095-2.808c.049-.114.1-.23.143-.347a3.3,3.3,0,0,1,2.059-1.935,1.172,1.172,0,0,0,.808-1.115V50.465a1.171,1.171,0,0,0-.807-1.115Zm-11.2,8.209a6.55,6.55,0,1,1,6.55-6.55A6.55,6.55,0,0,1,51.009,57.559Z" transform="translate(3.393 3.302)" fill="#fff"/>
      <path id="Path_50941" data-name="Path 50941" d="M35,34.292a14.278,14.278,0,0,1,7.183,6.652,3.346,3.346,0,0,1,3.429-.243,1.12,1.12,0,0,0,.953.041c.141-.061.284-.12.427-.176a1.122,1.122,0,0,0,.651-.705,3.351,3.351,0,0,1,3.189-2.31h1.087a3.351,3.351,0,0,1,3.189,2.308,1.12,1.12,0,0,0,.651.707c.143.056.286.115.426.176a1.118,1.118,0,0,0,.954-.041,3.347,3.347,0,0,1,1.879-.334V31H35Zm19.651-1.108h2.183v2.183H54.651Zm-4.367,0h2.183v2.183H50.284Z" transform="translate(3.027 2.568)" fill="#fff"/>
      <path id="Path_50942" data-name="Path 50942" d="M60.476,3h-26.2A3.279,3.279,0,0,0,31,6.275V35.794a14.125,14.125,0,0,1,2.183.346V7.367a2.186,2.186,0,0,1,2.183-2.183H59.385a2.186,2.186,0,0,1,2.183,2.183v36.7l.594.594a3.349,3.349,0,0,1,.622,3.888,1.12,1.12,0,0,0-.041.953c.062.142.12.285.176.429a1.119,1.119,0,0,0,.705.648c.044.014.084.037.127.053V6.275A3.278,3.278,0,0,0,60.476,3Z" transform="translate(2.66)" fill="#fff"/>
      <ellipse id="Ellipse_836" data-name="Ellipse 836" cx="2" cy="2.5" rx="2" ry="2.5" transform="translate(52.706 51.66)" fill="#fff"/>
    </g>
  </g>
</svg>
