<svg xmlns="http://www.w3.org/2000/svg" width="124" height="124" viewBox="0 0 124 124">
  <g id="Group_14123" data-name="Group 14123" transform="translate(-266 -1868)">
    <circle id="Ellipse_10" data-name="Ellipse 10" cx="62" cy="62" r="62" transform="translate(266 1868)" fill="#0504a5"/>
    <path id="Path_50922" data-name="Path 50922" d="M46.462,36.212l-2.946-8.2a1.044,1.044,0,1,1,1.966-.706l1.966,5.467L49.414,27.3a1.044,1.044,0,0,1,1.966,0l1.966,5.467L55.312,27.3a1.044,1.044,0,1,1,1.966.706l-2.952,8.2a1.044,1.044,0,0,1-1.966,0l-1.966-5.468-1.966,5.468a1.044,1.044,0,0,1-1.966,0ZM19.629,57.987a31.881,31.881,0,0,1-3.038-5.433,38.739,38.739,0,0,0-6.3,2.4,31.326,31.326,0,0,0,13.041,7.113A21.225,21.225,0,0,1,19.629,57.987Zm10.625,5.056c-3.223-.4-6.286-2.544-8.918-6.265a29.3,29.3,0,0,1-2.7-4.764,54.466,54.466,0,0,1,11.617-1.433Zm11.124-6.265a29.3,29.3,0,0,0,2.7-4.764,54.52,54.52,0,0,0-11.734-1.435V63.057c3.266-.362,6.372-2.514,9.035-6.279Zm11.05-1.823a31.326,31.326,0,0,1-13.041,7.113,21.225,21.225,0,0,0,3.7-4.081,31.9,31.9,0,0,0,3.038-5.433,38.739,38.739,0,0,1,6.3,2.4ZM49.4,41.338a48.3,48.3,0,0,1-2.478,9.272,40.015,40.015,0,0,1,7.094,2.8,31.452,31.452,0,0,0,7.2-12.074Zm-17.053,0H47.276a45.871,45.871,0,0,1-2.385,8.726,56.449,56.449,0,0,0-12.548-1.575V41.338ZM15.789,50.61a40.23,40.23,0,0,0-7.087,2.8A31.455,31.455,0,0,1,1.5,41.338h11.82A48.745,48.745,0,0,0,15.789,50.61Zm14.464-9.272H15.438a45.862,45.862,0,0,0,2.385,8.726A56.378,56.378,0,0,1,30.254,48.49ZM17.823,13.448a45.864,45.864,0,0,0-2.385,8.726H30.254V15.022a56.334,56.334,0,0,1-12.431-1.574ZM15.789,12.9a48.776,48.776,0,0,0-2.471,9.273H1.5A31.441,31.441,0,0,1,8.7,10.1a40.152,40.152,0,0,0,7.087,2.8Zm.8-1.943a31.855,31.855,0,0,1,3.038-5.434,21.243,21.243,0,0,1,3.7-4.081A31.327,31.327,0,0,0,10.286,8.557,38.8,38.8,0,0,0,16.591,10.959Zm13.663,1.972A54.427,54.427,0,0,1,18.637,11.5a29.3,29.3,0,0,1,2.7-4.764C23.967,3.013,27.03.868,30.254.469ZM44.077,11.5a29.3,29.3,0,0,0-2.7-4.764C38.715,2.969,35.609.817,32.343.455V12.934A54.566,54.566,0,0,0,44.077,11.5Zm2.046-.539a31.855,31.855,0,0,0-3.038-5.434,21.243,21.243,0,0,0-3.7-4.081A31.327,31.327,0,0,1,52.428,8.557,38.8,38.8,0,0,1,46.123,10.959Zm.8,1.943A48.326,48.326,0,0,1,49.4,22.174H61.21a31.353,31.353,0,0,0-7.2-12.073,40.036,40.036,0,0,1-7.094,2.8ZM32.343,22.174V15.024a56.406,56.406,0,0,0,12.548-1.575,45.855,45.855,0,0,1,2.385,8.726H32.343Zm30.371,9.582a31.267,31.267,0,0,0-.906-7.491H.906a31.427,31.427,0,0,0,0,14.983h60.9A31.268,31.268,0,0,0,62.714,31.756ZM38.241,28.008l-2.952,8.2a1.044,1.044,0,0,1-1.966,0l-1.966-5.468-1.966,5.468a1.044,1.044,0,0,1-1.966,0l-2.952-8.2a1.047,1.047,0,0,1,1.972-.706l1.966,5.467,1.96-5.467a1.048,1.048,0,0,1,1.972,0l1.96,5.467L36.269,27.3a1.047,1.047,0,0,1,1.972.706Zm-19.043,0-2.946,8.2a1.044,1.044,0,0,1-1.966,0L12.32,30.743l-1.966,5.468a1.044,1.044,0,0,1-1.966,0l-2.952-8.2A1.044,1.044,0,1,1,7.4,27.3l1.966,5.467L11.333,27.3a1.044,1.044,0,0,1,1.966,0l1.966,5.467L17.231,27.3a1.045,1.045,0,1,1,1.966.706Z" transform="translate(297 1898.545)" fill="#fff" fill-rule="evenodd"/>
  </g>
</svg>
