<svg xmlns="http://www.w3.org/2000/svg" width="124" height="124" viewBox="0 0 124 124">
  <g id="Group_14123" data-name="Group 14123" transform="translate(-266 -1868)">
    <circle id="Ellipse_10" data-name="Ellipse 10" cx="62" cy="62" r="62" transform="translate(266 1868)" fill="#0504a5"/>
    <g id="Group_34291" data-name="Group 34291" transform="translate(292 1894)">
      <path id="Path_1983" data-name="Path 1983" d="M62.876,4H9.772A5.774,5.774,0,0,0,4,9.772v53.1a5.774,5.774,0,0,0,5.772,5.772h53.1a5.774,5.774,0,0,0,5.772-5.772V9.772A5.774,5.774,0,0,0,62.876,4Zm-4.56,45.023c-2.083,3.851-9.261,3.245-13.438,2.066-3.893,14.142-13.214,14.149-17.109,0-4.175,1.181-11.359,1.785-13.438-2.066-1.812-3.14.208-7.85,4.906-12.7-8.871-8.807-7.1-17.475,5.692-15.366.912.15,1.87.358,2.84.6,1.847-6.511,4.918-10.632,8.554-10.632s6.707,4.121,8.554,10.632c.97-.242,1.928-.45,2.84-.6,12.79-2.1,14.566,6.554,5.691,15.366,4.71,4.849,6.719,9.559,4.907,12.7Z" fill="#fff"/>
      <path id="Path_1984" data-name="Path 1984" d="M27.5,39.79c-.72-.41-1.42-.84-2.09-1.27.17,1.34.39,2.6.65,3.77,1.17-.37,2.37-.81,3.59-1.32C28.93,40.6,28.22,40.21,27.5,39.79Z" transform="translate(3.577 5.716)" fill="#fff"/>
      <path id="Path_1985" data-name="Path 1985" d="M34.35,40.97c4.348,1.639,3.5,2.193,4.24-2.45C37.247,39.382,35.772,40.237,34.35,40.97Z" transform="translate(5.071 5.701)" fill="#fff"/>
      <path id="Path_1986" data-name="Path 1986" d="M43.88,32c-.88-.81-1.86-1.63-2.93-2.45.03.8.05,1.62.05,2.45s-.02,1.65-.05,2.45c1.07-.82,2.05-1.64,2.93-2.45Z" transform="translate(6.021 4.324)" fill="#fff"/>
      <path id="Path_1987" data-name="Path 1987" d="M36.5,24.21c.72.41,1.42.84,2.09,1.27-.17-1.34-.39-2.6-.65-3.77-1.17.37-2.37.81-3.59,1.32C35.07,23.4,35.78,23.79,36.5,24.21Z" transform="translate(5.071 2.932)" fill="#fff"/>
      <path id="Path_1988" data-name="Path 1988" d="M29.65,23.03c-4.348-1.639-3.5-2.193-4.24,2.45C26.753,24.618,28.228,23.763,29.65,23.03Z" transform="translate(3.577 2.947)" fill="#fff"/>
      <path id="Path_1989" data-name="Path 1989" d="M35.5,25.94c-1.16-.67-2.34-1.29-3.5-1.86-1.16.57-2.34,1.19-3.5,1.86-1.19.68-2.3,1.39-3.35,2.1Q25,29.945,25,32t.15,3.96c1.05.71,2.16,1.42,3.35,2.1,1.16.67,2.34,1.29,3.5,1.86,1.16-.57,2.34-1.19,3.5-1.86,1.19-.68,2.3-1.39,3.35-2.1Q39,34.055,39,32t-.15-3.96C37.8,27.33,36.69,26.62,35.5,25.94ZM32,36a4,4,0,0,1,0-8A4,4,0,0,1,32,36Z" transform="translate(4.324 4.324)" fill="#fff"/>
      <path id="Path_1990" data-name="Path 1990" d="M20.12,32c.88.81,1.86,1.63,2.93,2.45-.03-.8-.05-1.62-.05-2.45s.02-1.65.05-2.45c-1.07.82-2.05,1.64-2.93,2.45Z" transform="translate(2.627 4.324)" fill="#fff"/>
      <path id="Path_1991" data-name="Path 1991" d="M18.66,33.42c-7.982,8.366-3.941,11.851,5.44,9.43a45.556,45.556,0,0,1-.87-5.79,44.531,44.531,0,0,1-4.57-3.64Z" transform="translate(1.943 5.553)" fill="#fff"/>
      <path id="Path_1992" data-name="Path 1992" d="M26.55,44.23c2.979,10.284,7.921,10.283,10.9,0A45.382,45.382,0,0,1,32,42.12a45.4,45.4,0,0,1-5.45,2.11Z" transform="translate(4.324 8.648)" fill="#fff"/>
      <path id="Path_1993" data-name="Path 1993" d="M40.77,37.06a45.572,45.572,0,0,1-.87,5.79c3.178.975,8.577,1.161,9.42-.85.98-1.7-.49-4.97-3.98-8.58a44.531,44.531,0,0,1-4.57,3.64Z" transform="translate(6.708 5.548)" fill="#fff"/>
      <path id="Path_1994" data-name="Path 1994" d="M45.02,20.42a20.8,20.8,0,0,0-5.12.73,45.576,45.576,0,0,1,.87,5.79,44.531,44.531,0,0,1,4.57,3.64c3.49-3.61,4.96-6.88,3.98-8.58-.6-1.04-2.12-1.58-4.3-1.58Z" transform="translate(6.708 3.098)" fill="#fff"/>
      <path id="Path_1995" data-name="Path 1995" d="M37.45,19.77c-2.979-10.284-7.921-10.283-10.9,0A45.383,45.383,0,0,1,32,21.88a45.4,45.4,0,0,1,5.45-2.11Z" transform="translate(4.324)" fill="#fff"/>
      <path id="Path_1996" data-name="Path 1996" d="M18.98,20.42c-2.18,0-3.7.54-4.3,1.58-.98,1.7.49,4.97,3.98,8.58a44.531,44.531,0,0,1,4.57-3.64,45.574,45.574,0,0,1,.87-5.79,20.78,20.78,0,0,0-5.12-.73Z" transform="translate(1.94 3.098)" fill="#fff"/>
      <path id="Path_1997" data-name="Path 1997" d="M32,30a2,2,0,0,0,0,4A2,2,0,0,0,32,30Z" transform="translate(4.324 4.324)" fill="#fff"/>
    </g>
  </g>
</svg>
