<svg xmlns="http://www.w3.org/2000/svg" width="124" height="124" viewBox="0 0 124 124">
  <g id="Group_14123" data-name="Group 14123" transform="translate(-266 -1868)">
    <circle id="Ellipse_10" data-name="Ellipse 10" cx="62" cy="62" r="62" transform="translate(266 1868)" fill="#0504a5"/>
    <g id="Group_34562" data-name="Group 34562" transform="translate(294.99 1897.13)">
      <g id="Group_34562-2" data-name="Group 34562">
        <path id="Path_50986" data-name="Path 50986" d="M53.27,3.87H18.67a2.665,2.665,0,0,0-2.66,2.66V9.09h39.9V6.52a2.646,2.646,0,0,0-2.64-2.65ZM39.53,7.48H32.39a1,1,0,1,1,0-2h7.14a1,1,0,0,1,0,2Zm-7.37,9.81H55.91v-6.2H16.01V34.57h1.66a.857.857,0,0,1,.36.07,1.007,1.007,0,0,1,.64.79l.2,1.42.1.68c.41.14.81.32,1.21.5.18.09.36.17.54.27l1.7-1.14a.992.992,0,0,1,1.28.14l1.46,1.53,2.05,2.15a.983.983,0,0,1,.24.97.745.745,0,0,1-.16.32l-.73.99-.47.64c.08.17.14.34.21.51.07.15.14.31.2.47.1.27.2.54.28.81l.86.18,1.13.23a.983.983,0,0,1,.8.96v.04l-.12,5.09a1.016,1.016,0,0,1-.25.64.972.972,0,0,1-.6.33l-2.02.32a10.647,10.647,0,0,1-.62,1.43H55.91V46.09H44.02l-5.03,4.44c-.03.04-.07.05-.11.08a1.748,1.748,0,0,1-.29.18.714.714,0,0,1-.15.08,1.455,1.455,0,0,1-.42.12c-.04.01-.09.01-.13.02-.06,0-.12.01-.19.01-.04,0-.09-.01-.14-.01-.07-.01-.13-.01-.2-.02a3.038,3.038,0,0,1-.4-.12c-.02-.01-.05-.01-.07-.02a1.932,1.932,0,0,1-1.14-1.77V46.09H32.17a2.784,2.784,0,0,1-.58-.06,2.886,2.886,0,0,1-2.31-2.83V20.17a2.881,2.881,0,0,1,2.88-2.88ZM14.78,44.52a4.825,4.825,0,1,0,4.82,4.83,4.829,4.829,0,0,0-4.82-4.83Zm0,0a4.825,4.825,0,1,0,4.82,4.83,4.829,4.829,0,0,0-4.82-4.83Zm12.42,3.3-1.42-.29a.978.978,0,0,1-.77-.73,10.381,10.381,0,0,0-.41-1.3,1.417,1.417,0,0,1-.08-.18c-.15-.35-.3-.7-.48-1.03a.907.907,0,0,1-.12-.55.852.852,0,0,1,.04-.23.076.076,0,0,0,.01-.04,1.078,1.078,0,0,1,.14-.26l.8-1.08.27-.37-1.37-1.45-.98-1.02-1.49,1-.02.01a.7.7,0,0,1-.23.11c-.01.01-.01.01-.02.01a1.014,1.014,0,0,1-.83-.09,9.331,9.331,0,0,0-.99-.52,11.253,11.253,0,0,0-1.46-.56,1.245,1.245,0,0,1-.2-.1c-.02-.01-.04-.01-.06-.02a1.012,1.012,0,0,1-.45-.7l-.13-.91-.14-.95H13.39l-.36,1.8a.982.982,0,0,1-.72.76l-.11.04a10.523,10.523,0,0,0-2.42.95.989.989,0,0,1-1.07-.07L7.25,38.98,4.77,41.35l1,1.51a1,1,0,0,1,.02,1.08,8.473,8.473,0,0,0-.53.97,10.022,10.022,0,0,0-.55,1.48,1.006,1.006,0,0,1-.81.7l-1.8.28-.09,3.42,1.78.35a1.014,1.014,0,0,1,.78.75,10.138,10.138,0,0,0,.96,2.51.993.993,0,0,1-.08,1.06L4.37,56.93,6.73,59.4l1.52-1.02a1,1,0,0,1,1.08-.03,10.2,10.2,0,0,0,2.44,1.09.988.988,0,0,1,.72.81l.27,1.88h3.41l.37-1.81a.987.987,0,0,1,.74-.78,10.111,10.111,0,0,0,2.51-.97.989.989,0,0,1,1.07.07l1.45,1.07,2.49-2.37-.53-.8-.48-.71a1,1,0,0,1-.01-1.09c.1-.16.17-.34.26-.5a9.419,9.419,0,0,0,.7-1.63l.12-.3a.984.984,0,0,1,.53-.63h.02a.732.732,0,0,1,.25-.08l1.81-.29.08-3.42ZM14.78,56.17a6.825,6.825,0,1,1,6.82-6.82A6.82,6.82,0,0,1,14.78,56.17Zm0-11.65a4.825,4.825,0,1,0,4.82,4.83A4.829,4.829,0,0,0,14.78,44.52Zm0,0a4.825,4.825,0,1,0,4.82,4.83A4.829,4.829,0,0,0,14.78,44.52Zm0,0a4.825,4.825,0,1,0,4.82,4.83A4.829,4.829,0,0,0,14.78,44.52ZM26.92,56.91l.01.01a1,1,0,0,1-.14,1.28l-1.56,1.48-2.14,2.05a.987.987,0,0,1-1.28.08l-.24-.17a.431.431,0,0,1-.1-.07l-1.3-.95a12.741,12.741,0,0,1-1.79.7l-.16.81H53.26a2.657,2.657,0,0,0,2.65-2.66V56.91ZM39.53,60.6H32.39a1,1,0,0,1,0-2h7.14a1,1,0,0,1,0,2ZM63.11,19.29H56.95c-.01,0-.03.01-.04.01H32.17a.881.881,0,0,0-.89.87V43.2a.884.884,0,0,0,.11.4.866.866,0,0,0,.77.49h4.6a1,1,0,0,1,1,1v3.86l5.22-4.61a.985.985,0,0,1,.66-.25H63.11a.89.89,0,0,0,.88-.89V20.17a.888.888,0,0,0-.88-.88ZM43.2,36.57a1.024,1.024,0,0,1-.71-.29l-3.67-3.67a.99.99,0,0,1-.29-.71.967.967,0,0,1,.29-.7l3.67-3.68a1,1,0,1,1,1.42,1.42L40.94,31.9l2.97,2.96a1.008,1.008,0,0,1,0,1.42,1.024,1.024,0,0,1-.71.29Zm1.95,5.29a.842.842,0,0,1-.27-.04.991.991,0,0,1-.7-1.23l4.98-17.92a1.008,1.008,0,0,1,1.24-.69.993.993,0,0,1,.69,1.23L46.11,41.13a1,1,0,0,1-.96.73Zm11.3-9.25-3.67,3.67a1.024,1.024,0,0,1-.71.29,1.042,1.042,0,0,1-.71-.29,1,1,0,0,1,.01-1.42l2.96-2.96-2.96-2.96a1,1,0,0,1,1.41-1.42l3.67,3.68a.967.967,0,0,1,.29.7.99.99,0,0,1-.29.71Z" fill="#fff"/>
      </g>
    </g>
  </g>
</svg>
