<svg xmlns="http://www.w3.org/2000/svg" width="124" height="124" viewBox="0 0 124 124">
  <g id="Group_14123" data-name="Group 14123" transform="translate(-266 -1868)">
    <circle id="Ellipse_10" data-name="Ellipse 10" cx="62" cy="62" r="62" transform="translate(266 1868)" fill="#fefefe"/>
    <g id="Group_14242" data-name="Group 14242" transform="translate(300.001 1897.845)">
      <g id="Page-1_17_" transform="translate(-0.001 5.156)">
        <g id="_x30_19---Technology-Engineering" transform="translate(0 0)">
          <path id="Shape_133_" d="M1.559,37.637l3.644.6a22.44,22.44,0,0,0,3.246,7.823L6.291,49.068A1.7,1.7,0,0,0,6.31,51.11a24.955,24.955,0,0,0,1.732,1.907c.615.616,1.249,1.184,1.9,1.733a1.7,1.7,0,0,0,2.044.019L15,52.61a22.4,22.4,0,0,0,7.817,3.248l.6,3.646a1.687,1.687,0,0,0,1.457,1.42c.519.059,1.041.095,1.575.121a.953.953,0,0,0,1-.945V52.517a.952.952,0,0,0-.92-.946,18,18,0,0,1,0-35.943.952.952,0,0,0,.92-.946V7.1a.952.952,0,0,0-1-.946q-.8.033-1.578.112A1.708,1.708,0,0,0,23.411,7.7l-.6,3.646A22.419,22.419,0,0,0,15,14.595l-3.01-2.16a1.7,1.7,0,0,0-2.044.019,25.177,25.177,0,0,0-1.9,1.733A21.845,21.845,0,0,0,6.31,16.094a1.7,1.7,0,0,0-.019,2.046l2.158,3.011A22.441,22.441,0,0,0,5.2,28.971l-3.644.6a1.687,1.687,0,0,0-1.42,1.458,23.435,23.435,0,0,0,0,5.11,1.711,1.711,0,0,0,1.42,1.5Z" transform="translate(0.001 -6.156)" fill="#0504a5"/>
          <path id="Shape_132_" d="M157.852,151.127a14.2,14.2,0,0,0,0,28.335.869.869,0,0,0,.9-.876V152a.869.869,0,0,0-.9-.876Z" transform="translate(-131.313 -137.848)" fill="#0504a5"/>
          <path id="Shape_131_" d="M325.021,39.019h-4.732v1.893h4.732a2.848,2.848,0,0,0,2.839-2.839V32.22a2.839,2.839,0,1,0-1.893,0v5.852A.946.946,0,0,1,325.021,39.019Z" transform="translate(-290.953 -24.822)" fill="#0504a5"/>
          <path id="Shape_130_" d="M320.288,204.38h9.464a.946.946,0,0,0,0-1.893h-9.464Z" transform="translate(-290.952 -184.505)" fill="#0504a5"/>
          <path id="Shape_129_" d="M320.288,431.7h4.732a.946.946,0,0,1,.946.946V438.5a2.839,2.839,0,1,0,1.893,0v-5.852a2.848,2.848,0,0,0-2.839-2.839h-4.732V431.7Z" transform="translate(-290.952 -391.003)" fill="#0504a5"/>
          <path id="Shape_128_" d="M334.484,347.145h-14.2v1.893h14.2a.946.946,0,0,1,.946.946v4.906a2.839,2.839,0,1,0,1.893,0v-4.906A2.848,2.848,0,0,0,334.484,347.145Z" transform="translate(-290.952 -315.913)" fill="#0504a5"/>
          <path id="Shape_127_" d="M343.948,274.816a2.839,2.839,0,0,0-2.665,1.893H320.288V278.6h20.995a2.834,2.834,0,1,0,2.665-3.786Z" transform="translate(-290.952 -250.209)" fill="#0504a5"/>
          <path id="Shape_126_" d="M330.7,389.421a.946.946,0,0,0-.946-.946h-9.464v1.893h9.464A.946.946,0,0,0,330.7,389.421Z" transform="translate(-290.952 -353.457)" fill="#0504a5"/>
          <path id="Shape_125_" d="M337.322,130.12v-4.906a2.839,2.839,0,1,0-1.893,0v4.906a.946.946,0,0,1-.946.946h-14.2v1.893h14.2A2.848,2.848,0,0,0,337.322,130.12Z" transform="translate(-290.951 -109.298)" fill="#0504a5"/>
        </g>
      </g>
    </g>
  </g>
</svg>
