<svg xmlns="http://www.w3.org/2000/svg" width="124" height="124" viewBox="0 0 124 124">
  <g id="Group_14123" data-name="Group 14123" transform="translate(-266 -1868)">
    <circle id="Ellipse_10" data-name="Ellipse 10" cx="62" cy="62" r="62" transform="translate(266 1868)" fill="#fff"/>
    <g id="_x30_3" transform="translate(293 1895)">
      <path id="Path_1998" data-name="Path 1998" d="M37.69,2H9.138A7.138,7.138,0,0,0,2,9.138V61.483a7.138,7.138,0,0,0,7.138,7.138H37.69a7.138,7.138,0,0,0,7.138-7.138V9.138A7.138,7.138,0,0,0,37.69,2Zm4.759,58.294A5.955,5.955,0,0,1,36.5,66.242H10.328a5.955,5.955,0,0,1-5.948-5.948V10.328a5.955,5.955,0,0,1,5.948-5.948H36.5a5.955,5.955,0,0,1,5.948,5.948Z" fill="#0504a5"/>
      <path id="Path_1999" data-name="Path 1999" d="M33.742,4H25.414A4.759,4.759,0,1,1,15.9,4H7.569A3.573,3.573,0,0,0,4,7.569V57.535A3.573,3.573,0,0,0,7.569,61.1H33.742a3.573,3.573,0,0,0,3.569-3.569V7.569A3.573,3.573,0,0,0,33.742,4ZM17.869,39.984A1.19,1.19,0,0,1,16.3,41.775L6.786,33.448a1.19,1.19,0,0,1,0-1.791L16.3,23.329a1.19,1.19,0,1,1,1.566,1.791L9.376,32.552Zm16.655-6.536-9.517,8.328a1.19,1.19,0,1,1-1.566-1.791l8.494-7.432L23.441,25.12a1.19,1.19,0,1,1,1.566-1.791l9.517,8.328a1.19,1.19,0,0,1,0,1.791Z" transform="translate(2.759 2.759)" fill="#0504a5"/>
      <path id="Path_2000" data-name="Path 2000" d="M41.2,34.307l-3.353-1.891a17.711,17.711,0,0,0,0-5.244L41.2,25.28A2.382,2.382,0,0,0,42.084,22l-4.87-8.242A2.38,2.38,0,0,0,34,12.893l-3.411,1.925a19.6,19.6,0,0,0-4.715-2.677V8.379A2.379,2.379,0,0,0,23.491,6H21V20.276a9.517,9.517,0,0,1,0,19.035V53.587h2.491a2.379,2.379,0,0,0,2.379-2.379V47.447a19.68,19.68,0,0,0,4.715-2.678L34,46.694a2.378,2.378,0,0,0,3.218-.862l4.87-8.242a2.382,2.382,0,0,0-.881-3.283Z" transform="translate(26.207 5.517)" fill="#0504a5"/>
    </g>
  </g>
</svg>
