<svg xmlns="http://www.w3.org/2000/svg" width="124" height="124" viewBox="0 0 124 124">
  <g id="Group_14123" data-name="Group 14123" transform="translate(-266 -1868)">
    <circle id="Ellipse_10" data-name="Ellipse 10" cx="62" cy="62" r="62" transform="translate(266 1868)" fill="#fefefe"/>
    <path id="Path_1154" data-name="Path 1154" d="M44.041,43.007l1.412,3.72a.289.289,0,0,0,.261.189l3.974.194a.294.294,0,0,1,.17.523l-3.1,2.493a.289.289,0,0,0-.1.307L47.7,54.272a.294.294,0,0,1-.445.323l-3.329-2.179a.289.289,0,0,0-.322,0L40.276,54.6a.294.294,0,0,1-.445-.323l1.044-3.839a.289.289,0,0,0-.1-.307l-3.1-2.493a.294.294,0,0,1,.17-.523l3.974-.194a.289.289,0,0,0,.261-.189l1.412-3.72a.3.3,0,0,1,.55,0ZM62.482,73.615a9.437,9.437,0,1,1-9.437,9.437A9.437,9.437,0,0,1,62.482,73.615Zm-1.24,10.27-2.109-2.109a1.4,1.4,0,0,0-1.98,1.98l3.1,3.1a1.4,1.4,0,0,0,1.98,0c1.869-1.869,3.718-3.76,5.579-5.638a1.4,1.4,0,1,0-1.982-1.969ZM43.766,57.992A7.009,7.009,0,1,1,36.757,65,7.009,7.009,0,0,1,43.766,57.992ZM31.348,85.544H51.457a11.325,11.325,0,0,1,1.627-8.77,13.863,13.863,0,0,0-22.876,7.363A1.161,1.161,0,0,0,31.348,85.544ZM71.465,59.158,68.95,62.241a.289.289,0,0,0-.034.32L70.736,66.1a.294.294,0,0,1-.368.409L66.658,65.07a.289.289,0,0,0-.315.067l-2.8,2.824a.294.294,0,0,1-.5-.224l.223-3.972a.289.289,0,0,0-.161-.279l-3.552-1.793a.294.294,0,0,1,.057-.547l3.847-1.016a.289.289,0,0,0,.216-.24l.608-3.932a.294.294,0,0,1,.538-.114l2.155,3.345a.289.289,0,0,0,.294.131l3.927-.637a.3.3,0,0,1,.275.476ZM59.917,47.409a.3.3,0,0,0-.476-.275l-3.083,2.515a.289.289,0,0,1-.32.034L52.5,47.863a.294.294,0,0,0-.409.368l1.439,3.709a.289.289,0,0,1-.067.315l-2.824,2.8a.294.294,0,0,0,.224.5l3.972-.223a.289.289,0,0,1,.279.161l1.793,3.552a.294.294,0,0,0,.547-.057l1.016-3.847a.289.289,0,0,1,.24-.216l3.932-.608a.294.294,0,0,0,.114-.538l-3.345-2.155a.289.289,0,0,1-.131-.294ZM16.342,58.682l3.928.637a.289.289,0,0,0,.294-.131l2.155-3.345a.294.294,0,0,1,.538.114l.608,3.932a.289.289,0,0,0,.216.24l3.847,1.016a.294.294,0,0,1,.058.547l-3.552,1.793a.289.289,0,0,0-.161.279l.223,3.972a.294.294,0,0,1-.5.224l-2.8-2.824a.289.289,0,0,0-.315-.067l-3.709,1.439A.294.294,0,0,1,16.8,66.1l1.819-3.539a.289.289,0,0,0-.034-.32l-2.515-3.083a.3.3,0,0,1,.275-.476Zm11.75-11.548a.3.3,0,0,0-.476.275l.637,3.927a.289.289,0,0,1-.131.294l-3.345,2.155a.294.294,0,0,0,.114.538l3.932.608a.289.289,0,0,1,.24.216l1.016,3.847a.294.294,0,0,0,.547.057L32.418,55.5a.289.289,0,0,1,.279-.161l3.972.223a.294.294,0,0,0,.224-.5l-2.824-2.8A.289.289,0,0,1,34,51.94l1.439-3.709a.294.294,0,0,0-.409-.368l-3.538,1.819a.289.289,0,0,1-.32-.034Z" transform="translate(284 1862.182)" fill="#0504a5" fill-rule="evenodd"/>
  </g>
</svg>
