<svg xmlns="http://www.w3.org/2000/svg" width="124" height="124" viewBox="0 0 124 124">
  <g id="Group_14123" data-name="Group 14123" transform="translate(-266 -1868)">
    <circle id="Ellipse_10" data-name="Ellipse 10" cx="62" cy="62" r="62" transform="translate(266 1868)" fill="#0504a5"/>
    <g id="Group_34442" data-name="Group 34442" transform="translate(288.75 1893.75)">
      <path id="Path_50884" data-name="Path 50884" d="M18.919,23.835a2.087,2.087,0,0,0-2.085-2.085H14.75v4.169h2.085A2.087,2.087,0,0,0,18.919,23.835Z" transform="translate(9.014 11.017)" fill="#fff"/>
      <circle id="Ellipse_831" data-name="Ellipse 831" cx="3.752" cy="3.752" r="3.752" transform="translate(50.447 41.105)" fill="#fff"/>
      <path id="Path_50885" data-name="Path 50885" d="M11.919,23.835a2.085,2.085,0,0,0-4.169,0v3.752h4.169Z" transform="translate(4.34 11.017)" fill="#fff"/>
      <path id="Path_50886" data-name="Path 50886" d="M72.544,5.25H5.836A4.591,4.591,0,0,0,1.25,9.836v8.755H77.13V9.836A4.591,4.591,0,0,0,72.544,5.25Zm-63.372,7.5A1.251,1.251,0,1,1,10.422,11.5,1.251,1.251,0,0,1,9.172,12.755Zm5,0A1.251,1.251,0,1,1,15.425,11.5,1.251,1.251,0,0,1,14.175,12.755Zm5,0A1.251,1.251,0,1,1,20.428,11.5,1.251,1.251,0,0,1,19.178,12.755Zm50.031,0H52.531a1.251,1.251,0,0,1,0-2.5H69.208a1.251,1.251,0,0,1,0,2.5Z" fill="#fff"/>
      <path id="Path_50887" data-name="Path 50887" d="M26.253,37.459a.418.418,0,0,0-.152.57l2.144,3.713a.425.425,0,0,0,.253.2.416.416,0,0,0,.315-.042,4.224,4.224,0,0,1,6.269,3.619.418.418,0,0,0,.417.417h4.288a.418.418,0,0,0,.417-.417A4.224,4.224,0,0,1,46.473,41.9a.413.413,0,0,0,.568-.153l2.146-3.713a.418.418,0,0,0-.154-.57,4.216,4.216,0,0,1,0-7.238.418.418,0,0,0,.152-.57l-2.144-3.713a.425.425,0,0,0-.253-.2.416.416,0,0,0-.315.042A4.216,4.216,0,0,1,40.2,22.167a.418.418,0,0,0-.417-.417H35.5a.418.418,0,0,0-.417.417,4.219,4.219,0,0,1-6.268,3.619.413.413,0,0,0-.568.153L26.1,29.652a.418.418,0,0,0,.154.57,4.216,4.216,0,0,1,0,7.238Zm11.39-9.873a6.254,6.254,0,1,1-6.254,6.254A6.261,6.261,0,0,1,37.644,27.587Z" transform="translate(16.555 11.017)" fill="#fff"/>
      <path id="Path_50888" data-name="Path 50888" d="M1.25,56.859a4.591,4.591,0,0,0,4.586,4.586H72.544a4.591,4.591,0,0,0,4.586-4.586V14.75H1.25Zm33.821-9.122-5,5a1.277,1.277,0,0,1-1.769,0,1.25,1.25,0,0,1,0-1.769l4.119-4.119L28.3,42.734a1.251,1.251,0,0,1,1.769-1.769l5,5A1.25,1.25,0,0,1,35.071,47.737Zm5.418-14.662,2.146-3.713a2.96,2.96,0,0,1,3.987-1.068,1.691,1.691,0,0,0,2.515-1.453,2.922,2.922,0,0,1,2.918-2.918h4.288a2.922,2.922,0,0,1,2.918,2.918,1.7,1.7,0,0,0,2.516,1.453,2.962,2.962,0,0,1,3.987,1.069l2.144,3.713a2.924,2.924,0,0,1-1.068,3.987,1.69,1.69,0,0,0,0,2.905,2.925,2.925,0,0,1,1.069,3.987l-2.146,3.713a2.943,2.943,0,0,1-3.987,1.068,1.694,1.694,0,0,0-2.515,1.453,2.922,2.922,0,0,1-2.918,2.918H52.055a2.922,2.922,0,0,1-2.918-2.918,1.691,1.691,0,0,0-2.516-1.453,2.952,2.952,0,0,1-3.987-1.068L40.49,43.954a2.924,2.924,0,0,1,1.068-3.987,1.69,1.69,0,0,0,0-2.906,2.925,2.925,0,0,1-1.069-3.987Zm-7.553-7.9a1.251,1.251,0,0,1,2.5,0V36.847a1.251,1.251,0,0,1-2.5,0Zm-11.674,0a1.251,1.251,0,0,1,1.251-1.251h3.335a4.586,4.586,0,1,1,0,9.172H23.764v3.752a1.251,1.251,0,0,1-2.5,0Zm-1.6,26.287,3.335-10.006a1.251,1.251,0,1,1,2.373.792L22.032,52.252a1.267,1.267,0,0,1-1.582.792,1.252,1.252,0,0,1-.791-1.583ZM9.588,28.508a4.586,4.586,0,0,1,9.172,0v8.338a1.251,1.251,0,0,1-2.5,0V34.762H12.09v2.085a1.251,1.251,0,0,1-2.5,0Zm.366,17.46,5-5a1.251,1.251,0,0,1,1.769,1.769l-4.119,4.119,4.119,4.119a1.251,1.251,0,1,1-1.769,1.769l-5-5a1.25,1.25,0,0,1,0-1.769Z" transform="translate(0 6.343)" fill="#fff"/>
    </g>
  </g>
</svg>
