<svg xmlns="http://www.w3.org/2000/svg" width="124" height="124" viewBox="0 0 124 124">
  <g id="Group_14123" data-name="Group 14123" transform="translate(-266 -1868)">
    <circle id="Ellipse_10" data-name="Ellipse 10" cx="62" cy="62" r="62" transform="translate(266 1868)" fill="#0504a5"/>
    <g id="Group_34560" data-name="Group 34560" transform="translate(287 1889.584)">
      <path id="Path_50982" data-name="Path 50982" d="M68.215,44.246a5.522,5.522,0,0,1-1.97-.368,31.63,31.63,0,0,1-3.388,1.444,5.421,5.421,0,0,1-4.977,3.2H54.755a5.444,5.444,0,0,1-4.977-3.23,19.911,19.911,0,0,1-3.414-1.418,5.416,5.416,0,0,1-5.8-1.248l-2.193-2.206a5.355,5.355,0,0,1-1.234-5.831,25.821,25.821,0,0,1-1.458-3.375,5.407,5.407,0,0,1-3.2-4.977V23.117a5.445,5.445,0,0,1,3.191-4.977,35,35,0,0,1,1.458-3.388,5.4,5.4,0,0,1-.263-3.086H7.94A3.943,3.943,0,0,0,4,15.606V55.132a3.943,3.943,0,0,0,3.94,3.94h61.93a3.943,3.943,0,0,0,3.94-3.94V40.9C72.313,42.441,70.562,44.394,68.215,44.246ZM17.526,47.122a1.324,1.324,0,0,1-.932,2.246,1.3,1.3,0,0,1-.932-.394l-4.425-4.425a1.324,1.324,0,0,1,0-1.865l4.425-4.425a1.314,1.314,0,1,1,1.865,1.852L14.02,43.616Zm9.205-7.616L24.525,48.37a1.314,1.314,0,1,1-2.548-.643l2.206-8.864a1.314,1.314,0,1,1,2.548.644Zm10.742,5.043-4.425,4.425a1.3,1.3,0,0,1-.932.394,1.324,1.324,0,0,1-.932-2.246l3.506-3.506L31.183,40.11a1.308,1.308,0,0,1,0-1.852,1.324,1.324,0,0,1,1.865,0l4.425,4.425a1.324,1.324,0,0,1,0,1.865Z" transform="translate(0 1.957)" fill="#fff"/>
      <path id="Path_50983" data-name="Path 50983" d="M42.637,54.283a16.2,16.2,0,0,1-.394-4.517H31.213a16.291,16.291,0,0,1-.394,4.517c-14.077.84-19.133,4.517-19.369,4.688a1.31,1.31,0,0,0,1.563,2.1c.066-.039,5.016-3.519,18.8-4.215,3.044-.157,6.778-.157,9.823,0,13.788.7,18.739,4.176,18.792,4.215a1.314,1.314,0,0,0,1.576-2.1C61.77,58.8,56.715,55.124,42.637,54.283Z" transform="translate(2.176 13.89)" fill="#fff"/>
      <path id="Path_50984" data-name="Path 50984" d="M67.535,22.251a.174.174,0,0,1-.171-.118,30.819,30.819,0,0,0-2.193-5.581,2.8,2.8,0,0,0-.157-3.808l-2.206-2.206a2.8,2.8,0,0,0-3.821-.171,31.857,31.857,0,0,0-5.581-2.193A.174.174,0,0,1,53.287,8a2.83,2.83,0,0,0-2.823-2.587H47.338a2.811,2.811,0,0,0-2.81,2.534.211.211,0,0,1-.131.223,18.8,18.8,0,0,0-5.358,2.219.181.181,0,0,1-.21-.026,2.814,2.814,0,0,0-3.821.158L32.8,12.744a2.8,2.8,0,0,0-.171,3.808,31.479,31.479,0,0,0-2.193,5.581.163.163,0,0,1-.171.118,2.83,2.83,0,0,0-2.587,2.823V28.2a2.809,2.809,0,0,0,2.587,2.81.188.188,0,0,1,.171.131,31.452,31.452,0,0,0,2.193,5.568,2.815,2.815,0,0,0,.17,3.822l2.206,2.206a2.815,2.815,0,0,0,3.821.171.183.183,0,0,1,.21-.026A18.8,18.8,0,0,0,44.4,45.1c.081.011.143.126.131.223a2.821,2.821,0,0,0,2.81,2.534h3.125a2.83,2.83,0,0,0,2.823-2.587.174.174,0,0,1,.118-.171,31.509,31.509,0,0,0,5.581-2.193,2.8,2.8,0,0,0,3.821-.17l2.206-2.206a2.814,2.814,0,0,0,.158-3.821,31.37,31.37,0,0,0,2.193-5.568.2.2,0,0,1,.171-.131,2.8,2.8,0,0,0,2.587-2.81V25.074A2.82,2.82,0,0,0,67.535,22.251ZM48.9,38.456A11.835,11.835,0,0,1,37.082,26.637c.641-15.674,23-15.669,23.637,0A11.835,11.835,0,0,1,48.9,38.456Z" transform="translate(7.416)" fill="#fff"/>
    </g>
  </g>
</svg>
