<svg xmlns="http://www.w3.org/2000/svg" width="124" height="124" viewBox="0 0 124 124">
  <g id="Group_14123" data-name="Group 14123" transform="translate(-266 -1868)">
    <circle id="Ellipse_10" data-name="Ellipse 10" cx="62" cy="62" r="62" transform="translate(266 1868)" fill="#0504a5"/>
    <g id="Group_34559" data-name="Group 34559" transform="translate(292 1859)">
      <path id="Path_50979" data-name="Path 50979" d="M69.292,391H2.091A2.091,2.091,0,0,0,0,393.091v1.394a7.668,7.668,0,0,0,7.668,7.668H63.716a7.668,7.668,0,0,0,7.668-7.668v-1.394A2.091,2.091,0,0,0,69.292,391Z" transform="translate(0 -301.202)" fill="#fff"/>
      <path id="Path_50980" data-name="Path 50980" d="M288.289,179.365,289.683,171H273.707l1.394,8.365Z" transform="translate(-235.546 -111.875)" fill="#fff"/>
      <path id="Path_50981" data-name="Path 50981" d="M34.509,85.615H90.231a3.493,3.493,0,0,0,3.509-3.448c0-.013,0-.025,0-.038V48.668A7.668,7.668,0,0,0,86.071,41h-47.4A7.668,7.668,0,0,0,31,48.668V82.129c0,.013,0,.025,0,.038A3.493,3.493,0,0,0,34.509,85.615ZM51.216,74.461H45.639a2.091,2.091,0,1,1,0-4.183h5.577a2.091,2.091,0,1,1,0,4.183Zm5.577-23.7h4.88a2.091,2.091,0,0,1,2.063,1.748l.406,2.435H83.283a2.091,2.091,0,0,1,2.063,2.435L83.255,69.925a2.091,2.091,0,0,1-2.063,1.748h-.7v2.091a2.091,2.091,0,0,1-4.183,0V71.673H69.341v2.091a2.091,2.091,0,0,1-4.183,0V71.673h-.7A2.091,2.091,0,0,1,62.4,69.925L59.9,54.942H56.793a2.091,2.091,0,0,1,0-4.183ZM45.639,53.548h5.577a2.091,2.091,0,1,1,0,4.183H45.639a2.091,2.091,0,1,1,0-4.183Zm-4.183,8.365h9.759a2.091,2.091,0,1,1,0,4.183H41.457a2.091,2.091,0,1,1,0-4.183Z" transform="translate(-26.678)" fill="#fff"/>
    </g>
  </g>
</svg>
