<svg xmlns="http://www.w3.org/2000/svg" width="124" height="124" viewBox="0 0 124 124">
  <g id="Group_14123" data-name="Group 14123" transform="translate(-266 -1868)">
    <circle id="Ellipse_10" data-name="Ellipse 10" cx="62" cy="62" r="62" transform="translate(266 1868)" fill="#0504a5"/>
    <g id="Group_34414" data-name="Group 34414" transform="translate(298 1900)">
      <g id="Group_34414-2" data-name="Group 34414">
        <path id="Path_2050" data-name="Path 2050" d="M47.906,0H12.359A12.373,12.373,0,0,0,0,12.359V47.906A12.373,12.373,0,0,0,12.359,60.266H47.906A12.373,12.373,0,0,0,60.266,47.906V12.359A12.373,12.373,0,0,0,47.906,0ZM18.556,46.437a2.943,2.943,0,0,1-5.1-2.943l.579-1h6.8Zm-5.55-6.3a2.943,2.943,0,0,1,0-5.885H18.8L26.735,20.5l-2.152-3.727a2.946,2.946,0,0,1,1.077-4.02h0a2.946,2.946,0,0,1,4.02,1.077l.453.785.453-.784a2.943,2.943,0,1,1,5.1,2.943L25.591,34.253h6.365l3.4,5.885Zm34.253,0H44.868l1.938,3.356a2.943,2.943,0,1,1-5.1,2.942L31.492,28.74l3.4-5.885,6.581,11.4h5.789a2.943,2.943,0,1,1,0,5.885Z" fill="#fff"/>
      </g>
    </g>
  </g>
</svg>
