<svg id="Group_37452" data-name="Group 37452" xmlns="http://www.w3.org/2000/svg" width="99.655" height="99.655" viewBox="0 0 99.655 99.655">
  <path id="Path_50984" data-name="Path 50984" d="M62.955,61.15,82.571,27.176l3.643.062,5.955.229,19.891,6.886,14.9-7.178a49.842,49.842,0,0,0-86.307-4.3v.033l1.508,25.5Z" transform="translate(-32.744)" fill="#db4437"/>
  <path id="Path_50985" data-name="Path 50985" d="M30.211,155.864l-22.3-38.242L7.9,117.6a49.834,49.834,0,0,0,39.564,76.708L65.274,182.5l4.167-26.632Z" transform="translate(0 -94.714)" fill="#0f9d58"/>
  <path id="Path_50986" data-name="Path 50986" d="M290.626,139.621H246.233L265.85,173.6l0,.007-21.973,38.441h.017c.777.036,1.557.056,2.343.056a49.845,49.845,0,0,0,44.392-72.479Z" transform="translate(-196.406 -112.445)" fill="#ffcd40"/>
  <circle id="Ellipse_845" data-name="Ellipse 845" cx="22.652" cy="22.652" r="22.652" transform="translate(27.176 27.176)" fill="#f1f1f1"/>
  <circle id="Ellipse_846" data-name="Ellipse 846" cx="18.121" cy="18.121" r="18.121" transform="translate(31.706 31.706)" fill="#4285f4"/>
</svg>
