<svg xmlns="http://www.w3.org/2000/svg" width="94" height="94" viewBox="0 0 94 94">
  <g id="Group_34003" data-name="Group 34003" transform="translate(-353 -4829)">
    <circle id="Ellipse_17" data-name="Ellipse 17" cx="47" cy="47" r="47" transform="translate(353 4829)" fill="#fff"/>
    <path id="Path_51004" data-name="Path 51004" d="M50.108,49.36v7.078h-31.1V47.266H46.738a21.9,21.9,0,0,0,3.37,2.094ZM30.666,52.554h4.776a.7.7,0,1,0,0-1.4H30.666a.7.7,0,1,0,0,1.4Zm9.284-1.641a.939.939,0,1,0,.939.939A.939.939,0,0,0,39.95,50.913ZM21.964,52.554h4.181a.7.7,0,1,0,0-1.4H21.964a.7.7,0,1,0,0,1.4Zm24.081-2.29a1.588,1.588,0,1,0,1.588,1.588A1.589,1.589,0,0,0,46.045,50.264Zm-.995-4.4H21.2l7.544-3.884H41.76a19.288,19.288,0,0,0,2.39,3.006Q44.588,45.437,45.051,45.862ZM60.379,47.3v4.123l-8.867,4.565v-6a15.288,15.288,0,0,0,1.707.573,1.4,1.4,0,0,0,.727,0A19.612,19.612,0,0,0,60.379,47.3ZM51.512,66.564v-9L60.379,53v8.691a.5.5,0,0,1-.272.446ZM19.006,57.842h31.1v9.172h-30.6a.5.5,0,0,1-.5-.5v-8.67Zm11.66,5.288h4.776a.7.7,0,1,0,0-1.4H30.666a.7.7,0,1,0,0,1.4Zm9.284-1.641a.939.939,0,1,0,.939.939A.939.939,0,0,0,39.95,61.489ZM21.964,63.129h4.181a.7.7,0,1,0,0-1.4H21.964a.7.7,0,1,0,0,1.4Zm24.081-2.29a1.588,1.588,0,1,0,1.588,1.588A1.589,1.589,0,0,0,46.045,60.839ZM40.828,23.826a.5.5,0,0,1,.449-.5,18.419,18.419,0,0,0,8.568-3.473h7.473a18.432,18.432,0,0,0,8.568,3.475.5.5,0,0,1,.448.5c0,2.092,0,10.688,0,10.688,0,7.19-7.3,13.231-12.753,14.694-5.455-1.463-12.755-7.5-12.755-14.694ZM53.163,47.474a1.4,1.4,0,0,0,.839,0,17.641,17.641,0,0,0,8.5-6.246,11.6,11.6,0,0,0,2.409-6.716V25.843a1.4,1.4,0,0,0-1.152-1.381,17.2,17.2,0,0,1-6.518-2.77,1.4,1.4,0,0,0-.788-.242H50.708a1.4,1.4,0,0,0-.788.242,17.19,17.19,0,0,1-6.516,2.77,1.4,1.4,0,0,0-1.152,1.381v8.669a11.6,11.6,0,0,0,2.409,6.716A17.641,17.641,0,0,0,53.163,47.474Zm.419-1.34c-4.7-1.47-9.927-6.477-9.927-11.623V25.843a18.6,18.6,0,0,0,7.052-2.99h5.747a18.6,18.6,0,0,0,7.054,2.99v8.669c0,5.147-5.229,10.152-9.927,11.623ZM58.5,30.7l-7.332,5.955L48.8,33.121a.7.7,0,0,0-1.166.783l2.8,4.173a.7.7,0,0,0,1.025.154l7.929-6.439A.7.7,0,1,0,58.5,30.7Z" transform="translate(357.329 4832.566)" fill="#0504a5" fill-rule="evenodd"/>
  </g>
</svg>
