<svg xmlns="http://www.w3.org/2000/svg" width="94" height="94" viewBox="0 0 94 94">
  <g id="Group_34003" data-name="Group 34003" transform="translate(-353 -4829)">
    <circle id="Ellipse_17" data-name="Ellipse 17" cx="47" cy="47" r="47" transform="translate(353 4829)" fill="#fff"/>
    <path id="Path_51003" data-name="Path 51003" d="M24.247,28.528H19.872V24.551a9.549,9.549,0,1,1,19.1,0H34.6a5.176,5.176,0,1,0-10.352,0Zm10.625,23.59H17.733a1.746,1.746,0,0,1-1.747-1.743V31.79a1.749,1.749,0,0,1,1.747-1.743H41.114a1.746,1.746,0,0,1,1.743,1.743v3.3a14.582,14.582,0,0,0-7.984,17.031ZM29.423,34.45a3.4,3.4,0,0,0-1.783,6.3V45.93a1.783,1.783,0,0,0,3.567,0V40.746a3.4,3.4,0,0,0-1.783-6.3Zm19.515.827A13.047,13.047,0,1,1,35.892,48.324,13.053,13.053,0,0,1,48.939,35.277ZM41.222,54.768a.473.473,0,0,0,.466.552c2.41,0,12.093,0,14.5,0a.475.475,0,0,0,.468-.554,7.844,7.844,0,0,0-15.436,0Zm7.717-7.393a3.965,3.965,0,1,0-3.963-3.965A3.972,3.972,0,0,0,48.939,47.375Z" transform="translate(361.014 4838)" fill="#0504a5" fill-rule="evenodd"/>
  </g>
</svg>
