<svg xmlns="http://www.w3.org/2000/svg" width="94" height="94" viewBox="0 0 94 94">
  <g id="Group_34003" data-name="Group 34003" transform="translate(-353 -4829)">
    <circle id="Ellipse_17" data-name="Ellipse 17" cx="47" cy="47" r="47" transform="translate(353 4829)" fill="#fff"/>
    <g id="Group_37476" data-name="Group 37476" transform="translate(376.999 4853)">
      <path id="Path_51010" data-name="Path 51010" d="M1.948,397.616a5.534,5.534,0,0,0-.347,8.106h0a5.534,5.534,0,0,0,8.106-.347l.551-.654L2.6,397.065Z" transform="translate(0 -361.62)" fill="#0504a5"/>
      <circle id="Ellipse_847" data-name="Ellipse 847" cx="3.079" cy="3.079" r="3.079" transform="translate(32.161 17.019) rotate(-9.321)" fill="#0504a5"/>
      <path id="Path_51011" data-name="Path 51011" d="M74.223,0A18.986,18.986,0,0,0,57.978,28.824l-5.807,4.89L59.5,41.045l4.89-5.807A18.991,18.991,0,1,0,74.223,0ZM60.29,21.67a1.205,1.205,0,0,1,1.7.084,2.847,2.847,0,0,0,2.093.874,1.305,1.305,0,0,0,1.364-.863c.1-.552-.769-.918-1.038-1.017a11.444,11.444,0,0,1-2.733-1.132A2.984,2.984,0,0,1,60.4,16.789a3.146,3.146,0,0,1,2.278-2.542,5.135,5.135,0,0,1,4.473.978,1.2,1.2,0,0,1-1.549,1.843h0a2.727,2.727,0,0,0-2.228-.514.73.73,0,0,0-.588.58.455.455,0,0,0,.275.475c.4.174,1.264.539,2.182.877,2.239.826,2.8,2.454,2.576,3.7a3.667,3.667,0,0,1-3.737,2.85,5.22,5.22,0,0,1-3.878-1.666,1.205,1.205,0,0,1,.084-1.7Zm14.159-3.326a1.205,1.205,0,1,1,0,2.41H72.341v1.834h2.372a1.205,1.205,0,1,1,0,2.41H71.136a1.205,1.205,0,0,1-1.205-1.205V15.3A1.205,1.205,0,0,1,71.136,14.1h3.577a1.205,1.205,0,1,1,0,2.41H72.341v1.834Zm8.756,6.694a5.489,5.489,0,1,1,5.489-5.489A5.5,5.5,0,0,1,83.205,25.038Z" transform="translate(-47.513)" fill="#0504a5"/>
    </g>
  </g>
</svg>
