<svg id="Group_60" data-name="Group 60" xmlns="http://www.w3.org/2000/svg" xmlns:xlink="http://www.w3.org/1999/xlink" width="45.412" height="50.869" viewBox="0 0 45.412 50.869">
  <defs>
    <clipPath id="clip-path">
      <rect id="Rectangle_26" data-name="Rectangle 26" width="45.412" height="50.868" fill="#fefefe"/>
    </clipPath>
  </defs>
  <g id="Group_59" data-name="Group 59" clip-path="url(#clip-path)">
    <path id="Path_20" data-name="Path 20" d="M70.483,78.858H64.126c0-1.343-.01-2.662.013-3.98,0-.154.165-.325.29-.453.661-.677,1.338-1.338,2-2.012.5-.511.54-1.04.117-1.439-.405-.383-.907-.338-1.4.15-.628.626-1.243,1.266-1.925,1.961-.691-.7-1.337-1.353-1.986-2a.914.914,0,0,0-1.073-.286.9.9,0,0,0-.242,1.535c.668.7,1.379,1.351,2.03,2.062a1.39,1.39,0,0,1,.336.827c.036,1.153.014,2.308.012,3.462a1.487,1.487,0,0,1-.023.157H55.948c0-.432-.015-.879.005-1.324a.646.646,0,0,0-.365-.678,15.225,15.225,0,0,1-7.523-10.427A15.443,15.443,0,1,1,71.135,76.663a1.065,1.065,0,0,0-.659,1.194,7.452,7.452,0,0,1,.008,1" transform="translate(-40.509 -40.74)" fill="#fefefe"/>
    <path id="Path_21" data-name="Path 21" d="M112.7,291.282c0,.656.011,1.222,0,1.789a1.8,1.8,0,0,1-1.83,1.84c-1.21.018-2.42.02-3.63,0a1.8,1.8,0,0,1-1.8-1.809c-.015-.582,0-1.165,0-1.818-.581,0-1.122,0-1.663,0a1.838,1.838,0,0,1-1.971-1.988c0-.526,0-1.052,0-1.61h14.519c0,.686.049,1.364-.012,2.033a1.782,1.782,0,0,1-1.744,1.562c-.3.013-.6,0-.907,0H112.7" transform="translate(-86.361 -244.056)" fill="#fefefe"/>
    <rect id="Rectangle_25" data-name="Rectangle 25" width="14.463" height="1.747" transform="translate(15.465 39.99)" fill="#fefefe"/>
    <path id="Path_22" data-name="Path 22" d="M45.513,46.5a4.9,4.9,0,0,1-.753-.48q-1.238-1.2-2.442-2.437a.906.906,0,1,1,1.256-1.3c.852.827,1.688,1.67,2.521,2.518a.781.781,0,0,1,.191,1.026,4.052,4.052,0,0,1-.773.673" transform="translate(-35.612 -35.602)" fill="#fefefe"/>
    <path id="Path_23" data-name="Path 23" d="M229.595,46.353c-.231-.186-.588-.34-.7-.6a1.054,1.054,0,0,1,.081-.924c.875-.959,1.8-1.875,2.748-2.765a.887.887,0,0,1,1.236,1.254c-.893.944-1.825,1.851-2.756,2.759a2.343,2.343,0,0,1-.612.276" transform="translate(-194.128 -35.497)" fill="#fefefe"/>
    <path id="Path_24" data-name="Path 24" d="M46.5,229.277a4.823,4.823,0,0,1-.492.785c-.775.8-1.567,1.59-2.365,2.371a.915.915,0,1,1-1.274-1.289c.8-.809,1.6-1.609,2.408-2.409a.822.822,0,0,1,1.076-.214,3.625,3.625,0,0,1,.648.756" transform="translate(-35.622 -193.761)" fill="#fefefe"/>
    <path id="Path_25" data-name="Path 25" d="M145.53,2.673c0,.586.009,1.173,0,1.759a.912.912,0,1,1-1.811-.018q-.014-1.7,0-3.405A.91.91,0,0,1,144.631,0a.922.922,0,0,1,.9,1.027c.01.549,0,1.1,0,1.646" transform="translate(-121.916 0)" fill="#fefefe"/>
    <path id="Path_26" data-name="Path 26" d="M2.719,145.5c-.587,0-1.173.013-1.76,0a.9.9,0,1,1,0-1.806q1.759-.022,3.519,0a.9.9,0,1,1,0,1.806c-.586.016-1.173,0-1.76,0" transform="translate(0 -121.891)" fill="#fefefe"/>
    <path id="Path_27" data-name="Path 27" d="M266.3,143.7c.587,0,1.173-.012,1.76,0a.9.9,0,1,1,0,1.806q-1.759.022-3.519,0a.9.9,0,1,1,0-1.806c.586-.016,1.173,0,1.76,0" transform="translate(-223.605 -121.902)" fill="#fefefe"/>
    <path id="Path_28" data-name="Path 28" d="M232.831,231.91c-.182.232-.325.584-.571.682a1.079,1.079,0,0,1-.933-.066c-.951-.863-1.857-1.777-2.736-2.714a.888.888,0,0,1,1.263-1.229c.921.868,1.807,1.775,2.688,2.683a2.359,2.359,0,0,1,.288.644" transform="translate(-193.737 -193.72)" fill="#fefefe"/>
  </g>
</svg>
