<svg xmlns="http://www.w3.org/2000/svg" xmlns:xlink="http://www.w3.org/1999/xlink" width="99.694" height="105.658" viewBox="0 0 99.694 105.658">
  <defs>
    <clipPath id="clip-path">
      <rect id="Rectangle_34" data-name="Rectangle 34" width="99.694" height="105.658" fill="#fefefe"/>
    </clipPath>
  </defs>
  <g id="Group_73" data-name="Group 73" transform="translate(0 65.999)">
    <g id="Group_72" data-name="Group 72" transform="translate(0 -65.999)" clip-path="url(#clip-path)">
      <path id="Path_43" data-name="Path 43" d="M25.89,319.866c-.706-.656-1.666-1.186-2.066-1.993a2.984,2.984,0,0,1,2.793-4.189c1.686-.051,3.375-.035,5.063-.052.026,0,.052-.039.134-.1V306.6H30.548c-7.272,0-14.543.016-21.815-.006-4.556-.014-7.972-2.841-8.6-7.167a26.287,26.287,0,0,1-.026-3.666h86.23c.863,5.111-1.656,9.419-6.194,10.544a11.718,11.718,0,0,1-2.763.282c-7.134.022-14.267.012-21.4.012H54.693v7.069H58.9c2.32,0,3.532.727,3.949,2.37.387,1.521-.311,2.727-2.213,3.823Z" transform="translate(-0.038 -214.208)" fill="#fefefe"/>
      <path id="Path_44" data-name="Path 44" d="M0,143.539v-1.217q0-19.555,0-39.11c0-5.419,3.481-8.889,8.924-8.89q19.852,0,39.7,0h.934a28.1,28.1,0,0,0-2.456,4.9c-.524,1.853-1.434,2.533-3.293,2.987a16.776,16.776,0,0,0-12.791,15.533c-.084,1.371-.067,2.748-.076,4.123a12.425,12.425,0,0,1-1.821,6.954,7.128,7.128,0,0,0,4.142,10.753A6.451,6.451,0,0,0,39,138.733a10.83,10.83,0,0,1,6.85-1.816,25.451,25.451,0,0,0,8.88-1.019c6.238-2.179,9.846-6.677,11.243-13.015a1.82,1.82,0,0,1,1.521-1.664,16.066,16.066,0,0,0,8.348-5.428c3.289-3.979,6.543-7.987,9.814-11.981.185-.226.39-.436.7-.785v40.514Z" transform="translate(0 -68.312)" fill="#fefefe"/>
      <path id="Path_45" data-name="Path 45" d="M251.826,33.748,238.5,20.627l8.324-6.786Q254.35,7.7,261.878,1.571a6.341,6.341,0,0,1,8.907,9q-6.514,7.945-13.011,15.9l-5.948,7.275" transform="translate(-172.735 -0.001)" fill="#fefefe"/>
      <path id="Path_46" data-name="Path 46" d="M137.3,165.45a50.639,50.639,0,0,0-6.113.791,38.769,38.769,0,0,0-4.7,1.979,1.857,1.857,0,0,1-1.447,0c-.223-.137-.278-1.021-.061-1.322,2.139-2.971,2.579-6.367,2.668-9.88a34,34,0,0,1,.327-5.537,10.779,10.779,0,0,1,9.483-8.733A11.771,11.771,0,0,1,149.381,149c3.334,6.419.031,16.1-9.575,16.6-.824.043-1.652.006-2.478.006l-.023-.161" transform="translate(-90.417 -103.315)" fill="#fefefe"/>
      <path id="Path_47" data-name="Path 47" d="M204.557,111.4A18.16,18.16,0,0,0,191.315,98.18c1.208-4.442,5.213-6.274,8.105-8.994l14.1,14.071c-2.406,4.142-5.962,7.412-8.962,8.142" transform="translate(-138.56 -64.593)" fill="#fefefe"/>
    </g>
  </g>
</svg>
