<svg xmlns="http://www.w3.org/2000/svg" width="124" height="124" viewBox="0 0 124 124">
  <g id="Group_14123" data-name="Group 14123" transform="translate(-266 -1868)">
    <circle id="Ellipse_10" data-name="Ellipse 10" cx="62" cy="62" r="62" transform="translate(266 1868)" fill="#0504a5"/>
    <g id="Group_37108" data-name="Group 37108" transform="translate(290 1893.035)">
      <path id="Path_2579" data-name="Path 2579" d="M28.388,17.439c15.784,0,24.4-3.465,24.4-5.244s-8.618-5.231-24.4-5.231S4,10.43,4,12.2,12.6,17.439,28.388,17.439Z" transform="translate(0)" fill="#fff"/>
      <path id="Path_2580" data-name="Path 2580" d="M28.388,30.246c2.419,0,4.747-.078,6.918-.248a22.826,22.826,0,0,1,16.425-6.957c.353,0,.706.013,1.059.026v-8.8c-9.563,5.665-39.226,5.668-48.79,0V24.872A.444.444,0,0,1,4.013,25c0,1.778,8.6,5.244,24.375,5.244Z" transform="translate(0 1.565)" fill="#fff"/>
      <path id="Path_2581" data-name="Path 2581" d="M28.388,42.171c-9.6,0-19.733-1.334-24.388-4.224V48.553a.444.444,0,0,1,.013.131C3.7,51.3,19.7,54.788,32.861,53.823a22.632,22.632,0,0,1-3.989-11.664c-.157.013-.327.013-.484.013Z" transform="translate(0 6.639)" fill="#fff"/>
      <path id="Path_2582" data-name="Path 2582" d="M49.254,23.788A20.336,20.336,0,0,0,26.6,43.926c1.134,26.883,39.415,26.9,40.551,0a20.309,20.309,0,0,0-17.9-20.138Zm-15.313,23.5a1.313,1.313,0,0,1-1.491-1.1C30.968,37.648,38.2,29.173,46.887,29.4a14.447,14.447,0,0,1,7.375,2l-.536-2.55a1.292,1.292,0,0,1,1.007-1.543,1.311,1.311,0,0,1,1.556,1.007s1.239,5.983,1.255,6.028A1.311,1.311,0,0,1,56.3,35.91l-6.146.183a1.308,1.308,0,1,1-.078-2.616l2.432-.065C44.05,28.724,33.426,36.249,35.039,45.8a1.3,1.3,0,0,1-1.1,1.491ZM57.2,54.309a14.65,14.65,0,0,1-17.262,2.524l.641,2.04a1.309,1.309,0,1,1-2.5.785l-1.8-5.767A1.31,1.31,0,0,1,37,52.178c.108-.058,6.434-.863,6.434-.863a1.311,1.311,0,1,1,.327,2.6l-3.008.379a11.993,11.993,0,0,0,17.85-12.8,1.3,1.3,0,1,1,2.55-.549A14.554,14.554,0,0,1,57.2,54.309Z" transform="translate(4.844 3.577)" fill="#fff"/>
      <path id="Path_2583" data-name="Path 2583" d="M28.388,42.095c.17,0,.327,0,.484-.013a22.611,22.611,0,0,1,4.145-11.861c-9.6.532-23.77-.706-29.018-4.119V36.72a.444.444,0,0,1,.013.131c0,1.778,8.6,5.244,24.375,5.244Z" transform="translate(0 4.101)" fill="#fff"/>
    </g>
  </g>
</svg>
