<svg xmlns="http://www.w3.org/2000/svg" width="150" height="143.015" viewBox="0 0 150 143.015">
  <g id="Group_37532" data-name="Group 37532" transform="translate(-4.014 -15.749)">
    <path id="Path_51057" data-name="Path 51057" d="M349.189,354.45a17,17,0,1,0,17-17A17.016,17.016,0,0,0,349.189,354.45Zm26-6.982a1.784,1.784,0,0,1,0,2.524l-11.449,11.441a1.785,1.785,0,0,1-2.806-.37l-4.041-6.994a1.784,1.784,0,0,1,3.09-1.785l2.879,4.982,9.8-9.8a1.784,1.784,0,0,1,2.524,0Z" transform="translate(-242.438 -225.954)" fill="#94c1ff"/>
    <path id="Path_51058" data-name="Path 51058" d="M138.921,216.726h-6.176a2.171,2.171,0,0,0-2.164,2.172v30.027a2.175,2.175,0,0,0,2.172,2.172h6.168a2.171,2.171,0,0,0,2.164-2.172V218.9A2.171,2.171,0,0,0,138.921,216.726Z" transform="translate(-88.896 -141.159)" fill="#94c1ff"/>
    <path id="Path_51059" data-name="Path 51059" d="M74.156,162.532a126.654,126.654,0,0,0,30.622-12.726,30.024,30.024,0,0,1-2.028-5.729,115.97,115.97,0,0,1-28.1,12.1,1.788,1.788,0,0,1-.991,0c-7.555-2.187-21.969-7.152-33.609-15.826-11.987-8.932-18.064-19.407-18.064-31.135V47.023a1.784,1.784,0,0,1,1.007-1.606,117.763,117.763,0,0,1,102.326,0,1.785,1.785,0,0,1,1.007,1.606V107.21a30.293,30.293,0,0,1,5.843-.568l.139,0V42.257a123.73,123.73,0,0,0-116.3,0v66.955c0,34.631,43.889,49.435,58.152,53.321Z" transform="translate(-8.421 -8.422)" fill="#94c1ff"/>
    <g id="Group_37531" data-name="Group 37531" transform="translate(4.014 15.749)">
      <path id="Path_51060" data-name="Path 51060" d="M167.556,144.769h-7.461c.543-1.283,1.1-2.567,1.65-3.851.821-1.9,1.669-3.87,2.472-5.811,2.735-6.566,2.127-11.413-1.806-14.407l-.057-.042c-2.181-1.527-4.071-2.083-5.78-1.7a5.112,5.112,0,0,0-3.331,2.657l-.059.1-4.423,10.85a6.689,6.689,0,0,1-3.538,3.7,34.688,34.688,0,0,0-10.881,9.629,5.7,5.7,0,0,0-3.84-1.49h-6.176a5.744,5.744,0,0,0-5.733,5.741v30.027a5.748,5.748,0,0,0,5.741,5.741H130.5a5.735,5.735,0,0,0,5.024-2.981,6.874,6.874,0,0,0,4.054,1.319q5.657,0,11.293-.008t11.251-.008a6.271,6.271,0,0,0,5.574-9.148,6.273,6.273,0,0,0,3.48-9.959,6.259,6.259,0,0,0,.759-9.6,6.27,6.27,0,0,0-4.379-10.76Zm-34.891,35.406a2.171,2.171,0,0,1-2.164,2.172h-6.168a2.175,2.175,0,0,1-2.172-2.172V150.148a2.171,2.171,0,0,1,2.164-2.172H130.5a2.171,2.171,0,0,1,2.164,2.172Zm29.6-22.86h5.29a2.7,2.7,0,1,1,0,5.4H160.95a1.784,1.784,0,0,0,0,3.569h5.29a2.7,2.7,0,0,1,0,5.408h-6.615a1.784,1.784,0,0,0,0,3.569h2.5a2.7,2.7,0,0,1,0,5.408q-5.628,0-11.255.008t-11.289.008a3.349,3.349,0,0,1-3.345-3.345V150.207c0-2.527,7.188-9.186,10.481-10.7a10.241,10.241,0,0,0,5.35-5.595l4.33-10.622c.447-.738.829-.823.958-.852.372-.083,1.246-.047,2.925,1.122.952.726,3.675,2.9.643,10.177-.795,1.921-1.638,3.876-2.453,5.767q-.873,2.025-1.736,4.054a3.45,3.45,0,0,0,3.173,4.778h7.652a2.7,2.7,0,1,1,0,5.408h-5.29a1.784,1.784,0,0,0,0,3.569Z" transform="translate(-84.49 -88.157)" fill="#0504a5"/>
      <path id="Path_51061" data-name="Path 51061" d="M377.6,374.681a1.784,1.784,0,0,0-3.09,1.785l4.041,6.994a1.785,1.785,0,0,0,1.312.877,1.805,1.805,0,0,0,.233.015,1.785,1.785,0,0,0,1.261-.522l11.449-11.441a1.784,1.784,0,1,0-2.522-2.525l-9.8,9.8-2.879-4.982Z" transform="translate(-264.072 -264.101)" fill="#0504a5"/>
      <path id="Path_51062" data-name="Path 51062" d="M337.2,346.028a20.565,20.565,0,1,0,20.565-20.565A20.588,20.588,0,0,0,337.2,346.028Zm37.561,0a17,17,0,1,1-17-17A17.015,17.015,0,0,1,374.76,346.028Z" transform="translate(-238.031 -233.281)" fill="#0504a5"/>
      <path id="Path_51063" data-name="Path 51063" d="M65.273,157.682a1.787,1.787,0,0,0,.924,0,130.734,130.734,0,0,0,31.875-13.165,30.268,30.268,0,1,0,29.384-46.069V32.771a1.784,1.784,0,0,0-.929-1.566,127.284,127.284,0,0,0-121.583,0,1.784,1.784,0,0,0-.929,1.566v68.019c0,37.554,46.888,53.041,61.259,56.893ZM150.446,128.5a26.7,26.7,0,0,1-53.091,4.1,1.813,1.813,0,0,0-.031-.211,26.7,26.7,0,1,1,53.122-3.887ZM93.659,131.86a110.34,110.34,0,0,1-27.924,12.318c-7.444-2.189-21.031-6.961-31.974-15.115-11.033-8.222-16.628-17.734-16.628-28.273V39.725a114.215,114.215,0,0,1,97.2,0V99.72A30.269,30.269,0,0,0,93.659,131.86ZM7.583,33.835a123.73,123.73,0,0,1,116.3,0V98.222l-.139,0a30.319,30.319,0,0,0-5.843.568V38.6a1.784,1.784,0,0,0-1.007-1.606,117.763,117.763,0,0,0-102.326,0A1.785,1.785,0,0,0,13.565,38.6v62.189c0,11.728,6.078,22.2,18.064,31.135C43.27,140.6,57.683,145.563,65.238,147.75a1.788,1.788,0,0,0,.991,0,115.975,115.975,0,0,0,28.1-12.1,30.024,30.024,0,0,0,2.028,5.729A126.647,126.647,0,0,1,65.735,154.11c-14.263-3.886-58.152-18.69-58.152-53.321V33.835Z" transform="translate(-4.014 -15.749)" fill="#0504a5"/>
    </g>
  </g>
</svg>
