<svg id="_26._Data_Recovery" data-name="26. Data Recovery" xmlns="http://www.w3.org/2000/svg" width="150.033" height="150" viewBox="0 0 150.033 150">
  <path id="Path_51064" data-name="Path 51064" d="M75.974,40.994V35.98a4.5,4.5,0,0,0-4.522-4.522,4.5,4.5,0,0,1-4.241-3.069,31.561,31.561,0,0,0-1.289-3.069,4.522,4.522,0,0,1,.843-5.178,4.545,4.545,0,0,0,0-6.4l-3.538-3.538a4.545,4.545,0,0,0-6.4,0,4.522,4.522,0,0,1-5.178.843,31.56,31.56,0,0,0-3.069-1.289,4.5,4.5,0,0,1-3.069-4.241A4.545,4.545,0,0,0,40.994,1H35.98a4.5,4.5,0,0,0-4.522,4.522,4.5,4.5,0,0,1-3.069,4.241,31.56,31.56,0,0,0-3.069,1.289,4.522,4.522,0,0,1-5.178-.843,4.545,4.545,0,0,0-6.4,0l-3.538,3.538a4.545,4.545,0,0,0,0,6.4,4.522,4.522,0,0,1,.843,5.178,31.559,31.559,0,0,0-1.289,3.069,4.5,4.5,0,0,1-4.241,3.069A4.545,4.545,0,0,0,1,35.98v5.014a4.5,4.5,0,0,0,4.522,4.522,4.5,4.5,0,0,1,4.241,3.069,31.558,31.558,0,0,0,1.289,3.069,4.522,4.522,0,0,1-.843,5.178,4.686,4.686,0,0,0,0,6.4l3.538,3.538a4.545,4.545,0,0,0,6.4,0,4.522,4.522,0,0,1,5.178-.843,31.562,31.562,0,0,0,3.069,1.289,4.5,4.5,0,0,1,3.069,4.241,4.545,4.545,0,0,0,4.522,4.522h5.014a4.5,4.5,0,0,0,4.522-4.522,4.5,4.5,0,0,1,3.069-4.241,31.563,31.563,0,0,0,3.069-1.289,4.522,4.522,0,0,1,5.178.843,4.686,4.686,0,0,0,6.4,0l3.538-3.538a4.545,4.545,0,0,0,0-6.4,4.522,4.522,0,0,1-.843-5.178,31.56,31.56,0,0,0,1.289-3.069,4.5,4.5,0,0,1,4.241-3.069,4.545,4.545,0,0,0,4.522-4.522Z" transform="translate(1.343 1.343)" fill="#94c1fd"/>
  <circle id="Ellipse_850" data-name="Ellipse 850" cx="16.401" cy="16.401" r="16.401" transform="translate(23.429 23.429)" fill="#f5f7ff"/>
  <ellipse id="Ellipse_851" data-name="Ellipse 851" cx="49.202" cy="16.401" rx="49.202" ry="16.401" transform="translate(30.458 79.66)" fill="#6c99d8"/>
  <path id="Path_51065" data-name="Path 51065" d="M111.4,41V64.429c0,9.067-22.024,16.4-49.2,16.4S13,73.5,13,64.429V41c0,14.62,52.974,21.766,83.619,11.715C105.757,49.739,111.4,45.686,111.4,41Z" transform="translate(17.458 55.06)" fill="#ccd3eb"/>
  <path id="Path_51066" data-name="Path 51066" d="M62.2,64.4C35.024,64.4,13,57.067,13,48v7.029c0,9.067,22.024,16.4,49.2,16.4s49.2-7.333,49.2-16.4V48C111.4,57.067,89.38,64.4,62.2,64.4Z" transform="translate(17.458 64.461)" fill="#94c0fd"/>
  <ellipse id="Ellipse_852" data-name="Ellipse 852" cx="49.202" cy="16.401" rx="49.202" ry="16.401" transform="translate(30.458 42.173)" fill="#94c0fd"/>
  <path id="Path_51067" data-name="Path 51067" d="M62.2,36.386c-23.429,0-43.2-5.529-48.03-12.886A6.3,6.3,0,0,0,13,27.014c0,9.067,22.024,16.4,49.2,16.4s49.2-7.333,49.2-16.4a6.3,6.3,0,0,0-1.171-3.514C105.405,30.857,85.748,36.386,62.2,36.386Z" transform="translate(17.458 31.559)" fill="#6c99d8"/>
  <path id="Path_51068" data-name="Path 51068" d="M111.4,25V48.429c0,9.067-22.024,16.4-49.2,16.4S13,57.5,13,48.429V25c0,14.62,52.974,21.766,83.619,11.715C105.757,33.739,111.4,29.686,111.4,25Z" transform="translate(17.458 33.573)" fill="#94c0fd"/>
  <path id="Path_51069" data-name="Path 51069" d="M62.2,48.4C35.024,48.4,13,41.067,13,32v7.029c0,9.067,22.024,16.4,49.2,16.4s49.2-7.333,49.2-16.4V32C111.4,41.067,89.38,48.4,62.2,48.4Z" transform="translate(17.458 42.974)" fill="#94c0fd"/>
  <circle id="Ellipse_853" data-name="Ellipse 853" cx="28.115" cy="28.115" r="28.115" transform="translate(91.374 91.374)" fill="#94c1fd"/>
  <g id="Group_37533" data-name="Group 37533" transform="translate(0 0)">
    <path id="Path_51070" data-name="Path 51070" d="M48.8,55.547a88.024,88.024,0,0,1-29.615-6.279,2.343,2.343,0,0,0-1.968,4.217,93.155,93.155,0,0,0,31.3,6.677,2.347,2.347,0,0,0,.281-4.686Z" transform="translate(21.629 66.004)" fill="#0504a5"/>
    <path id="Path_51071" data-name="Path 51071" d="M27.5,40.661c-1.57-.328-3.093-.679-4.569-1.078a2.347,2.347,0,0,0-1.171,4.545c1.523.4,3.14.773,4.8,1.1a2.343,2.343,0,1,0,.937-4.569Z" transform="translate(26.856 53.057)" fill="#0504a5"/>
    <path id="Path_51072" data-name="Path 51072" d="M17.217,37.486a93.155,93.155,0,0,0,31.3,6.677,2.347,2.347,0,1,0,.281-4.686,88.024,88.024,0,0,1-29.615-6.209,2.343,2.343,0,0,0-1.968,4.217Z" transform="translate(21.629 44.517)" fill="#0504a5"/>
    <path id="Path_51073" data-name="Path 51073" d="M44.369,40.566c.609,0,4.311-.726,5.154-.914a2.389,2.389,0,0,0-.937-4.686c-1.476.3-3,.586-4.686.843a2.4,2.4,0,0,0,.469,4.756Z" transform="translate(56.377 46.895)" fill="#0504a5"/>
    <path id="Path_51074" data-name="Path 51074" d="M50.472,39.677a30.224,30.224,0,0,0,5.67-2.109A2.348,2.348,0,1,0,54.174,33.3a40.087,40.087,0,0,1-4.452,1.757,2.343,2.343,0,0,0,.75,4.616Z" transform="translate(64.331 44.434)" fill="#0504a5"/>
    <path id="Path_51075" data-name="Path 51075" d="M126.776,89.945A10.356,10.356,0,0,0,131.2,82V58.573c0-11.316-23.008-17.549-44.516-18.579a2.32,2.32,0,1,0,0,4.639c24.671,1.171,39.83,8.13,39.83,13.894,0,6.63-20.032,14.058-46.859,14.058S32.8,65.157,32.8,58.526,51.076,44.914,77.317,44.469h.211a1.921,1.921,0,0,0,.726-.164h.141a2.577,2.577,0,0,0,.586-.4,1.1,1.1,0,0,0,.141-.211c.656-.82.539-.82.539-6.3a6.865,6.865,0,0,0-6.865-6.935,2.2,2.2,0,0,1-2.038-1.523,34.278,34.278,0,0,0-1.382-3.3,2.132,2.132,0,0,1,.4-2.484,7.029,7.029,0,0,0,0-9.723L66.211,9.887a6.888,6.888,0,0,0-9.7,0,2.155,2.155,0,0,1-2.484.4c-1.007-.492-2.085-.937-3.327-1.406a2.155,2.155,0,0,1-1.5-2.015A6.865,6.865,0,0,0,42.337,0H37.323a6.865,6.865,0,0,0-6.865,6.865A2.2,2.2,0,0,1,28.935,8.9a34.278,34.278,0,0,0-3.3,1.382,2.132,2.132,0,0,1-2.484-.4,7.146,7.146,0,0,0-9.723,0L9.887,13.448a7.029,7.029,0,0,0,0,9.7,2.155,2.155,0,0,1,.4,2.484A32.449,32.449,0,0,0,8.9,28.959a2.2,2.2,0,0,1-2.038,1.5A6.865,6.865,0,0,0,0,37.323v5.014A6.865,6.865,0,0,0,6.865,49.2,2.2,2.2,0,0,1,8.9,50.724a34.277,34.277,0,0,0,1.382,3.3,2.132,2.132,0,0,1-.4,2.484,7.029,7.029,0,0,0,0,9.723l3.561,3.538a7.029,7.029,0,0,0,9.7,0,2.2,2.2,0,0,1,2.483-.4c.773.375,1.593.726,2.484,1.054V82a9.723,9.723,0,0,0,3.4,7.029,9.7,9.7,0,0,0-3.4,7.029v23.429c0,12.183,26.545,18.743,51.544,18.743a147.6,147.6,0,0,0,15.253-.82,30.458,30.458,0,1,0,31.864-47.468Zm-.258-23.2V82c0,2.343-2.577,4.826-7.029,7.029a30.318,30.318,0,0,0-16.822,5.108,142.216,142.216,0,0,1-39.1,1.007A2.36,2.36,0,1,0,63,99.832a145.591,145.591,0,0,0,33.34,0,30.06,30.06,0,0,0-5.623,9.911c-3.538.281-7.24.445-11.035.445-26.827,0-46.859-7.427-46.859-14.058a6.115,6.115,0,0,1,2.507-4.17,35.146,35.146,0,0,0,3.538,1.874,2.348,2.348,0,1,0,1.968-4.264C35.73,87.18,32.8,84.346,32.8,82V66.75C50.49,80.784,108.806,80.808,126.518,66.75ZM27.67,65.157a7.029,7.029,0,0,0-7.849,1.289,2.179,2.179,0,0,1-3.069,0c-3.678-3.655-4.17-3.889-4.17-5.084a2.179,2.179,0,0,1,.633-1.523A6.865,6.865,0,0,0,14.5,51.966a24.179,24.179,0,0,1-1.171-2.812,7.029,7.029,0,0,0-6.466-4.686,2.155,2.155,0,0,1-2.179-2.132V37.323a2.155,2.155,0,0,1,2.179-2.179,6.865,6.865,0,0,0,6.443-4.686A30.036,30.036,0,0,1,14.5,27.6a6.818,6.818,0,0,0-1.289-7.849,2.179,2.179,0,0,1,0-3.069l3.514-3.514a2.343,2.343,0,0,1,3.093,0,6.865,6.865,0,0,0,7.872,1.289A22.563,22.563,0,0,1,30.5,13.284a7.029,7.029,0,0,0,4.686-6.466,2.155,2.155,0,0,1,2.132-2.132h5.014a2.155,2.155,0,0,1,2.179,2.179A6.865,6.865,0,0,0,49.2,13.308,27.671,27.671,0,0,1,52.06,14.5a7.029,7.029,0,0,0,7.849-1.289,2.179,2.179,0,0,1,3.069,0c3.678,3.655,4.17,3.889,4.17,5.084a2.179,2.179,0,0,1-.633,1.523,6.865,6.865,0,0,0-1.289,7.872A24.179,24.179,0,0,1,66.4,30.5a7.029,7.029,0,0,0,6.466,4.686,2.155,2.155,0,0,1,2.179,2.179v2.46c-23.664.75-46.859,7.263-46.859,18.743v6.771Zm51.99,68.39c-26.827,0-46.859-7.427-46.859-14.058V104.237C41.517,111.149,60.916,114.8,79.66,114.8c3.374,0,6.631-.141,9.817-.351a29.8,29.8,0,0,0,2.741,18.486c-4.124.375-8.294.609-12.558.609Zm39.83,11.715a25.772,25.772,0,1,1,25.772-25.772,25.772,25.772,0,0,1-25.772,25.772Z" transform="translate(0 0)" fill="#0504a5"/>
  </g>
  <path id="Path_51076" data-name="Path 51076" d="M55.95,46.718l.75-.726a2.353,2.353,0,0,0-3.327-3.327l-4.686,4.686a2.343,2.343,0,0,0,0,3.327l4.686,4.686A2.353,2.353,0,0,0,56.7,52.037l-.586-.562a11.715,11.715,0,0,1,8.692,18.064,2.343,2.343,0,1,0,3.889,2.6A16.4,16.4,0,0,0,55.95,46.718Z" transform="translate(64.453 56.371)" fill="#f5f7ff"/>
  <path id="Path_51077" data-name="Path 51077" d="M62.07,64.5a2.353,2.353,0,0,0-3.327,3.327l.586.562a11.715,11.715,0,0,1-8.692-18.064,2.339,2.339,0,1,0-3.889-2.6A16.4,16.4,0,0,0,59.492,73.194l-.75.726a2.343,2.343,0,0,0,1.663,3.96c1.265,0,1.335-.351,6.349-5.365a2.343,2.343,0,0,0,0-3.327Z" transform="translate(59.083 62.696)" fill="#f5f7ff"/>
  <path id="Path_51078" data-name="Path 51078" d="M35.343,24a2.343,2.343,0,1,0,2.343,2.343A2.343,2.343,0,0,0,35.343,24Z" transform="translate(44.317 32.23)" fill="#f5f7ff"/>
  <path id="Path_51079" data-name="Path 51079" d="M40.343,24a2.343,2.343,0,1,0,2.343,2.343A2.343,2.343,0,0,0,40.343,24Z" transform="translate(51.031 32.23)" fill="#f5f7ff"/>
  <path id="Path_51080" data-name="Path 51080" d="M30.343,24a2.343,2.343,0,1,0,2.343,2.343A2.343,2.343,0,0,0,30.343,24Z" transform="translate(37.602 32.23)" fill="#f5f7ff"/>
  <path id="Path_51081" data-name="Path 51081" d="M2.343,37.686h9.372a2.343,2.343,0,1,0,0-4.686H2.343a2.343,2.343,0,1,0,0,4.686Z" transform="translate(0 44.317)" fill="#0504a5"/>
  <path id="Path_51082" data-name="Path 51082" d="M11.715,37H2.343a2.343,2.343,0,0,0,0,4.686h9.372a2.343,2.343,0,0,0,0-4.686Z" transform="translate(0 49.688)" fill="#0504a5"/>
</svg>
