<svg xmlns="http://www.w3.org/2000/svg" width="124" height="124" viewBox="0 0 124 124">
  <g id="Group_14123" data-name="Group 14123" transform="translate(-266 -1868)">
    <circle id="Ellipse_10" data-name="Ellipse 10" cx="62" cy="62" r="62" transform="translate(266 1868)" fill="#0504a5"/>
    <g id="Group_37107" data-name="Group 37107" transform="translate(295 1897)">
      <path id="Path_2577" data-name="Path 2577" d="M129.539,111a18.539,18.539,0,1,0,18.539,18.539A18.56,18.56,0,0,0,129.539,111Zm12.97,19.448h-3.836V126.9l-9.134,9.134-4.091-4.091-6.827,6.827-2.712-2.712,9.539-9.539,4.091,4.091,6.422-6.422h-3.553v-3.836h10.1Z" transform="translate(-96.808 -96.808)" fill="#fff"/>
      <path id="Path_2578" data-name="Path 2578" d="M65.461,36.822V28.639H61.078A28.44,28.44,0,0,0,59.33,22.1l3.792-2.189L59.03,12.822l-3.8,2.192a28.8,28.8,0,0,0-4.787-4.787l2.192-3.8L45.553,2.339,43.363,6.131a28.44,28.44,0,0,0-6.541-1.748V0H28.639V4.383A28.44,28.44,0,0,0,22.1,6.131L19.908,2.339,12.822,6.431l2.192,3.8a28.8,28.8,0,0,0-4.787,4.787l-3.8-2.192L2.339,19.908,6.132,22.1a28.44,28.44,0,0,0-1.748,6.541H0v8.183H4.383a28.44,28.44,0,0,0,1.748,6.541L2.339,45.553l4.091,7.086,3.8-2.192a28.8,28.8,0,0,0,4.787,4.787l-2.192,3.8,7.086,4.091L22.1,59.33a28.44,28.44,0,0,0,6.541,1.748v4.383h8.183V61.078a28.44,28.44,0,0,0,6.541-1.748l2.189,3.792,7.086-4.091-2.192-3.8a28.8,28.8,0,0,0,4.787-4.787l3.8,2.192,4.091-7.086L59.33,43.363a28.44,28.44,0,0,0,1.748-6.541ZM32.731,55.1A22.374,22.374,0,1,1,55.1,32.731,22.4,22.4,0,0,1,32.731,55.1Z" fill="#fff"/>
    </g>
  </g>
</svg>
