<svg xmlns="http://www.w3.org/2000/svg" width="124" height="124" viewBox="0 0 124 124">
  <g id="Group_14123" data-name="Group 14123" transform="translate(-266 -1868)">
    <circle id="Ellipse_10" data-name="Ellipse 10" cx="62" cy="62" r="62" transform="translate(266 1868)" fill="#0504a5"/>
    <g id="migrating" transform="translate(296 1897.996)">
      <path id="Path_50956" data-name="Path 50956" d="M26,59H20a1,1,0,0,1-1-1H4.32l.23,1.32A1.014,1.014,0,0,0,5.5,60h35a1.014,1.014,0,0,0,.95-.68L41.68,58H27A1,1,0,0,1,26,59Z" fill="#fff"/>
      <path id="Path_50957" data-name="Path 50957" d="M7,36a.988.988,0,0,0-.89.55A1.064,1.064,0,0,0,6,37V56H20a1,1,0,0,1,1,1h4a1,1,0,0,1,1-1H40V44H39a1,1,0,0,1-.97-.76l-.17-.67-.59.36a1,1,0,0,1-1.22-.15l-2.83-2.83a1,1,0,0,1-.15-1.22l.36-.59-.67-.17A1,1,0,0,1,32,37V36ZM20,47H18V45h2Zm4,0H22V45h2Zm4,0H26V45h2Z" fill="#fff"/>
      <circle id="Ellipse_838" data-name="Ellipse 838" cx="2" cy="2" r="2" transform="translate(39 33)" fill="#fff"/>
      <path id="Path_50958" data-name="Path 50958" d="M8,22H19.54A6,6,0,0,1,24,20h1.04A11.02,11.02,0,0,1,36,10c.3,0,.6.02.9.05a4.992,4.992,0,0,0-8.41-2.61,1,1,0,0,1-.75.29,1.021,1.021,0,0,1-.73-.37A9,9,0,0,0,11,13a1,1,0,0,1-1,1H8a4,4,0,0,0,0,8Z" fill="#fff"/>
      <path id="Path_50959" data-name="Path 50959" d="M56,22H53.65a1.028,1.028,0,0,1-.82-.42,1.014,1.014,0,0,1-.12-.91A5.2,5.2,0,0,0,53,19a5,5,0,0,0-8.51-3.56,1,1,0,0,1-.75.29,1.021,1.021,0,0,1-.73-.37A9,9,0,0,0,27,21a1,1,0,0,1-1,1H24a4,4,0,0,0,0,8h9.27l2.78-2.78a1,1,0,0,1,1.22-.15l.59.36.17-.67A1,1,0,0,1,39,26h4a1,1,0,0,1,.97.76l.17.67.59-.36a1,1,0,0,1,1.22.15L48.73,30H56a4,4,0,0,0,0-8Z" fill="#fff"/>
      <path id="Path_50960" data-name="Path 50960" d="M45.09,40.81l1.72-1.72-.65-1.08a1.019,1.019,0,0,1-.06-.9,1.007,1.007,0,0,1,.68-.59l1.22-.3V33.78l-1.22-.3a1.007,1.007,0,0,1-.68-.59,1.019,1.019,0,0,1,.06-.9l.65-1.08-1.72-1.72-1.08.64a.989.989,0,0,1-.9.07,1.007,1.007,0,0,1-.59-.68L42.22,28H39.78l-.3,1.22a1.007,1.007,0,0,1-.59.68.989.989,0,0,1-.9-.07l-1.08-.64-1.72,1.72.65,1.08a1.019,1.019,0,0,1,.06.9,1.007,1.007,0,0,1-.68.59l-1.22.3v2.44l1.22.3a1.007,1.007,0,0,1,.68.59,1.019,1.019,0,0,1-.06.9l-.65,1.08,1.72,1.72,1.08-.65a1.019,1.019,0,0,1,.9-.06,1.007,1.007,0,0,1,.59.68l.3,1.22h2.44l.3-1.22a1.007,1.007,0,0,1,.59-.68,1.019,1.019,0,0,1,.9.06ZM41,39a4,4,0,1,1,4-4A4,4,0,0,1,41,39Z" fill="#fff"/>
      <path id="Path_50961" data-name="Path 50961" d="M55,46a3,3,0,0,1-3,3H44v2h8a5.006,5.006,0,0,0,5-5V34H55Z" fill="#fff"/>
    </g>
  </g>
</svg>
