<svg xmlns="http://www.w3.org/2000/svg" width="124" height="124" viewBox="0 0 124 124">
  <g id="Group_14123" data-name="Group 14123" transform="translate(-266 -1868)">
    <circle id="Ellipse_10" data-name="Ellipse 10" cx="62" cy="62" r="62" transform="translate(266 1868)" fill="#0504a5"/>
    <g id="_x30_7" transform="translate(296 1898)">
      <path id="Path_50952" data-name="Path 50952" d="M28.79,29.355A21.165,21.165,0,0,0,14,9.2V6.113A2.113,2.113,0,0,1,16.113,4h8.452a4.226,4.226,0,1,0,8.452,0h8.452A2.113,2.113,0,0,1,43.58,6.113V52.6a2.113,2.113,0,0,1-2.113,2.113H16.113A2.113,2.113,0,0,1,14,52.6V49.509A21.165,21.165,0,0,0,28.79,29.355Z" transform="translate(13.355 2.226)" fill="#fff"/>
      <path id="Path_50953" data-name="Path 50953" d="M14.113,52.283v2.539a4.23,4.23,0,0,0,4.226,4.226H43.693a4.23,4.23,0,0,0,4.226-4.226V8.339a4.23,4.23,0,0,0-4.226-4.226H18.339a4.23,4.23,0,0,0-4.226,4.226v2.539A21.005,21.005,0,0,0,12,10.559V8.339A6.346,6.346,0,0,1,18.339,2H43.693a6.346,6.346,0,0,1,6.339,6.339V54.822a6.346,6.346,0,0,1-6.339,6.339H18.339A6.346,6.346,0,0,1,12,54.822V52.6A21.006,21.006,0,0,0,14.113,52.283Z" transform="translate(11.129)" fill="#fff"/>
      <path id="Path_50954" data-name="Path 50954" d="M21.016,7A19.016,19.016,0,1,0,40.032,26.016,19.016,19.016,0,0,0,21.016,7Zm0,33.806a14.79,14.79,0,0,1-10.35-25.355H9.4a1.056,1.056,0,1,1,0-2.113h4.226A1.056,1.056,0,0,1,14.677,14.4v4.226a1.056,1.056,0,1,1-2.113,0V16.59a12.661,12.661,0,0,0,8.452,22.1,1.056,1.056,0,1,1,0,2.113Zm0-6.339a8.452,8.452,0,1,1,8.452-8.452A8.461,8.461,0,0,1,21.016,34.467ZM32.637,36.58a1.056,1.056,0,1,1,0,2.113H28.411a1.056,1.056,0,0,1-1.056-1.056V33.411a1.056,1.056,0,0,1,2.113,0v2.028a12.66,12.66,0,0,0-8.452-22.1,1.056,1.056,0,0,1,0-2.113A14.79,14.79,0,0,1,31.367,36.58Z" transform="translate(0 5.564)" fill="#fff"/>
      <path id="Path_50955" data-name="Path 50955" d="M14.339,13a6.339,6.339,0,1,0,6.339,6.339A6.346,6.346,0,0,0,14.339,13Zm2.86,4.973-2.113,2.113a1.056,1.056,0,0,1-.747.31H12.226a1.056,1.056,0,1,1,0-2.113H13.9l1.8-1.8A1.056,1.056,0,1,1,17.2,17.973Z" transform="translate(6.677 12.242)" fill="#fff"/>
    </g>
  </g>
</svg>
