<svg xmlns="http://www.w3.org/2000/svg" width="124" height="124" viewBox="0 0 124 124">
  <g id="Group_14123" data-name="Group 14123" transform="translate(-266 -1868)">
    <circle id="Ellipse_10" data-name="Ellipse 10" cx="62" cy="62" r="62" transform="translate(266 1868)" fill="#0504a5"/>
    <g id="Icon" transform="translate(289.75 1891.75)">
      <path id="Path_50966" data-name="Path 50966" d="M51.546,14.681A9.43,9.43,0,0,0,42.115,5.25H14.681A9.43,9.43,0,0,0,5.25,14.681V42.115a9.43,9.43,0,0,0,9.431,9.431H42.115a9.43,9.43,0,0,0,9.431-9.431ZM35.257,21.539V35.257a2.572,2.572,0,0,0,5.144,0V21.539a2.572,2.572,0,1,0-5.144,0ZM31.827,35.257V24.969a6,6,0,0,0-6-6H22.4a6,6,0,0,0-6,6V35.257a2.572,2.572,0,0,0,5.144,0V32.685h5.144v2.572a2.572,2.572,0,0,0,5.144,0ZM21.539,27.541h5.144V24.969a.858.858,0,0,0-.857-.857H22.4a.858.858,0,0,0-.857.857Z" transform="translate(9.717 9.717)" fill="#fff" fill-rule="evenodd"/>
      <path id="Path_50967" data-name="Path 50967" d="M19.822,16.394H33.539a2.572,2.572,0,0,0,0-5.144H19.822a2.572,2.572,0,0,0,0,5.144Z" transform="translate(38.869 24.293)" fill="#fff" fill-rule="evenodd"/>
      <path id="Path_50968" data-name="Path 50968" d="M16.394,17.539V3.822a2.572,2.572,0,1,0-5.144,0V17.539a2.572,2.572,0,1,0,5.144,0Z" transform="translate(24.293 0)" fill="#fff" fill-rule="evenodd"/>
      <path id="Path_50969" data-name="Path 50969" d="M11.25,19.822V33.539a2.572,2.572,0,0,0,5.144,0V19.822a2.572,2.572,0,0,0-5.144,0Z" transform="translate(24.293 38.869)" fill="#fff" fill-rule="evenodd"/>
      <path id="Path_50970" data-name="Path 50970" d="M17.539,11.25H3.822a2.572,2.572,0,1,0,0,5.144H17.539a2.572,2.572,0,1,0,0-5.144Z" transform="translate(0 24.293)" fill="#fff" fill-rule="evenodd"/>
      <path id="Path_50971" data-name="Path 50971" d="M19.822,13.394H28.4a2.572,2.572,0,1,0,0-5.144H19.822a2.572,2.572,0,0,0,0,5.144Z" transform="translate(38.869 17.005)" fill="#fff" fill-rule="evenodd"/>
      <path id="Path_50972" data-name="Path 50972" d="M13.394,13.9V5.322a2.572,2.572,0,1,0-5.144,0V13.9a2.572,2.572,0,0,0,5.144,0Z" transform="translate(17.005 3.644)" fill="#fff" fill-rule="evenodd"/>
      <path id="Path_50973" data-name="Path 50973" d="M8.25,19.822V28.4a2.572,2.572,0,1,0,5.144,0V19.822a2.572,2.572,0,0,0-5.144,0Z" transform="translate(17.005 38.869)" fill="#fff" fill-rule="evenodd"/>
      <path id="Path_50974" data-name="Path 50974" d="M13.9,8.25H5.322a2.572,2.572,0,1,0,0,5.144H13.9a2.572,2.572,0,0,0,0-5.144Z" transform="translate(3.644 17.005)" fill="#fff" fill-rule="evenodd"/>
      <path id="Path_50975" data-name="Path 50975" d="M19.822,19.394H28.4a2.572,2.572,0,1,0,0-5.144H19.822a2.572,2.572,0,0,0,0,5.144Z" transform="translate(38.869 31.581)" fill="#fff" fill-rule="evenodd"/>
      <path id="Path_50976" data-name="Path 50976" d="M19.394,13.9V5.322a2.572,2.572,0,1,0-5.144,0V13.9a2.572,2.572,0,0,0,5.144,0Z" transform="translate(31.581 3.644)" fill="#fff" fill-rule="evenodd"/>
      <path id="Path_50977" data-name="Path 50977" d="M14.25,19.822V28.4a2.572,2.572,0,1,0,5.144,0V19.822a2.572,2.572,0,0,0-5.144,0Z" transform="translate(31.581 38.869)" fill="#fff" fill-rule="evenodd"/>
      <path id="Path_50978" data-name="Path 50978" d="M13.9,14.25H5.322a2.572,2.572,0,1,0,0,5.144H13.9a2.572,2.572,0,0,0,0-5.144Z" transform="translate(3.644 31.581)" fill="#fff" fill-rule="evenodd"/>
    </g>
  </g>
</svg>
