<svg xmlns="http://www.w3.org/2000/svg" width="124" height="124" viewBox="0 0 124 124">
  <g id="Group_14123" data-name="Group 14123" transform="translate(-266 -1868)">
    <circle id="Ellipse_10" data-name="Ellipse 10" cx="62" cy="62" r="62" transform="translate(266 1868)" fill="#0504a5"/>
    <g id="Group_34382" data-name="Group 34382" transform="translate(290.15 1892.03)">
      <path id="Path_2040" data-name="Path 2040" d="M45.306,46.317l-2.982-.845a16.158,16.158,0,0,0-1.761-4.25l1.514-2.7a1.888,1.888,0,0,0-.317-2.254l-2.148-2.148a1.868,1.868,0,0,0-2.242-.305l-2.712,1.514a16.352,16.352,0,0,0-4.25-1.773l-.834-2.97A1.881,1.881,0,0,0,27.766,29.2H24.725a1.871,1.871,0,0,0-1.808,1.385l-.834,2.97a15.958,15.958,0,0,0-4.25,1.773l-2.712-1.514a1.883,1.883,0,0,0-2.242.305l-2.148,2.148a1.888,1.888,0,0,0-.317,2.254l1.514,2.7a16.323,16.323,0,0,0-1.761,4.25l-2.982.845A1.881,1.881,0,0,0,5.8,48.125v3.029a1.871,1.871,0,0,0,1.385,1.808l2.97.834a15.875,15.875,0,0,0,1.773,4.262l-1.514,2.7a1.888,1.888,0,0,0,.317,2.254l2.148,2.148a1.866,1.866,0,0,0,2.242.305l2.712-1.514a16.523,16.523,0,0,0,4.25,1.773l.834,2.97a1.881,1.881,0,0,0,1.808,1.385h3.041a1.871,1.871,0,0,0,1.808-1.385l.834-2.97a15.8,15.8,0,0,0,4.25-1.773l2.712,1.514a1.883,1.883,0,0,0,2.242-.305l2.148-2.148a1.888,1.888,0,0,0,.317-2.254l-1.514-2.7A16.43,16.43,0,0,0,42.335,53.8l2.97-.834a1.881,1.881,0,0,0,1.385-1.808V48.125a1.906,1.906,0,0,0-1.385-1.808ZM26.228,58.456a8.805,8.805,0,1,1,8.805-8.805A8.8,8.8,0,0,1,26.228,58.456Z" transform="translate(0.513 4.738)" fill="#fff"/>
      <path id="Path_2041" data-name="Path 2041" d="M66.017,53.131l-1.843-.517A9.856,9.856,0,0,0,63.094,50l.927-1.667a1.141,1.141,0,0,0-.2-1.385l-1.315-1.315a1.156,1.156,0,0,0-1.385-.188l-1.667.927a10.116,10.116,0,0,0-2.618-1.092l-.517-1.831A1.155,1.155,0,0,0,55.2,42.6H53.326a1.155,1.155,0,0,0-1.115.845l-.517,1.831a9.885,9.885,0,0,0-2.618,1.092l-1.667-.927a1.156,1.156,0,0,0-1.385.188l-1.315,1.315a1.161,1.161,0,0,0-.2,1.385L45.449,50a9.7,9.7,0,0,0-1.08,2.618l-1.843.517a1.155,1.155,0,0,0-.845,1.115v1.867a1.155,1.155,0,0,0,.845,1.115l1.831.517a9.961,9.961,0,0,0,1.092,2.63l-.939,1.667a1.141,1.141,0,0,0,.2,1.385l1.315,1.315a1.153,1.153,0,0,0,1.385.188l1.667-.939a10.29,10.29,0,0,0,2.618,1.092l.517,1.831a1.155,1.155,0,0,0,1.115.845H55.2a1.155,1.155,0,0,0,1.115-.845l.517-1.831a9.885,9.885,0,0,0,2.618-1.092l1.667.939a1.156,1.156,0,0,0,1.385-.188l1.315-1.315a1.161,1.161,0,0,0,.2-1.385l-.927-1.667a10.2,10.2,0,0,0,1.092-2.63l1.831-.517a1.155,1.155,0,0,0,.845-1.115V54.246a1.155,1.155,0,0,0-.845-1.115ZM54.277,60.6a5.412,5.412,0,1,1,5.412-5.412A5.414,5.414,0,0,1,54.277,60.6Z" transform="translate(6.757 7.07)" fill="#fff"/>
      <path id="Path_2042" data-name="Path 2042" d="M9.46,45.338l-.54-.963A4.181,4.181,0,0,1,9.612,39.4l2.148-2.148A4.12,4.12,0,0,1,14.7,36.04a4.189,4.189,0,0,1,2.031.528l1.608.9a18.207,18.207,0,0,1,2.383-.986l.493-1.761a4.16,4.16,0,0,1,4-3.041h3.041a4.174,4.174,0,0,1,4,3.041l.493,1.761a18.279,18.279,0,0,1,2.383,1l1.62-.9a4.189,4.189,0,0,1,2.031-.528,4.128,4.128,0,0,1,2.935,1.209l2.148,2.148a4.179,4.179,0,0,1,.693,4.99l-.9,1.608c.106.2.188.411.282.61h17.6A9.958,9.958,0,0,0,62.3,26.73a9,9,0,0,0-3.722,1.139,1.1,1.1,0,0,1-.564.153,1.138,1.138,0,0,1-.564-2.125,11.041,11.041,0,0,1,5.436-1.444,9.687,9.687,0,0,0,.117-1.432,10.059,10.059,0,0,0-15.9-8.206,15.711,15.711,0,0,0-31.158,2.865,16.231,16.231,0,0,0,.235,2.735,12.958,12.958,0,0,1,3.839,1.714,1.133,1.133,0,0,1-.634,2.078,1.169,1.169,0,0,1-.634-.188,10.392,10.392,0,0,0-1.925-1.01,12.242,12.242,0,0,0-2.09-.188A11.874,11.874,0,0,0,9.46,45.338ZM46.9,18.582a1.139,1.139,0,1,1,0-2.278h3.839a1.139,1.139,0,1,1,0,2.278h-.775v8.676h.775a1.139,1.139,0,1,1,0,2.278H46.9a1.139,1.139,0,1,1,0-2.278h.775V18.582Zm-10.848-.857a1.7,1.7,0,0,1,1.7-1.7H41.24a4.332,4.332,0,1,1,0,8.664H38.329v3.7a1.139,1.139,0,1,1-2.278,0Zm-12,3.064a4.755,4.755,0,1,1,9.51,0V28.4a1.139,1.139,0,1,1-2.278,0V24.7H26.319v3.7a1.139,1.139,0,0,1-2.278,0V20.789Z" transform="translate(0 0)" fill="#fff"/>
      <path id="Path_2043" data-name="Path 2043" d="M38.036,17.945a2.057,2.057,0,0,0-2.055-2.055H33.07V20h2.912A2.057,2.057,0,0,0,38.036,17.945Z" transform="translate(5.259 2.422)" fill="#fff"/>
      <path id="Path_2044" data-name="Path 2044" d="M27.814,18.367a2.477,2.477,0,0,0-4.954,0V20h4.966V18.367Z" transform="translate(3.482 2.422)" fill="#fff"/>
    </g>
  </g>
</svg>
