<svg xmlns="http://www.w3.org/2000/svg" width="80" height="80" viewBox="0 0 80 80">
  <g id="Group_37271" data-name="Group 37271" transform="translate(-142 -5814)">
    <circle id="Ellipse_841" data-name="Ellipse 841" cx="40" cy="40" r="40" transform="translate(142 5814)" fill="#0504a5"/>
    <path id="Path_50955" data-name="Path 50955" d="M15.618,18.749H13.294L12.55,16h2.7Zm-1.979,1.328.744,2.749h1.78l-.372-2.749Zm3.32-1.328h2.43V16h-2.8Zm.544,4.077H19.39V20.077H17.132Zm3.214,0h1.9l.372-2.749H20.718Zm0-4.077h2.444L23.533,16H20.718v2.749Zm3.24,4.077h.77a1.335,1.335,0,0,0,1.288-.983l.465-1.766H24.317ZM27.278,16h-2.4L24.5,18.749H26.84l.651-2.47a.227.227,0,0,0-.04-.2.234.234,0,0,0-.173-.08ZM17.862,28.842c0,.279-.5.279-.5,0a.252.252,0,1,1,.5,0Zm5.923,0c0,.279-.491.279-.491,0a.252.252,0,0,1,.252-.252A.25.25,0,0,1,23.785,28.842Zm0,0c0,.279-.491.279-.491,0a.252.252,0,0,1,.252-.252A.25.25,0,0,1,23.785,28.842Zm-5.923,0c0,.279-.5.279-.5,0a.252.252,0,1,1,.5,0Zm0,0c0,.279-.5.279-.5,0a.252.252,0,1,1,.5,0Zm5.923,0c0,.279-.491.279-.491,0a.252.252,0,0,1,.252-.252A.25.25,0,0,1,23.785,28.842Zm0,0c0,.279-.491.279-.491,0a.252.252,0,0,1,.252-.252A.25.25,0,0,1,23.785,28.842Zm-5.923,0c0,.279-.5.279-.5,0a.252.252,0,1,1,.5,0Zm0,0c0,.279-.5.279-.5,0a.252.252,0,1,1,.5,0Zm5.923,0c0,.279-.491.279-.491,0a.252.252,0,0,1,.252-.252A.25.25,0,0,1,23.785,28.842Zm0,0c0,.279-.491.279-.491,0a.252.252,0,0,1,.252-.252A.25.25,0,0,1,23.785,28.842Zm-5.923,0c0,.279-.5.279-.5,0a.252.252,0,1,1,.5,0Zm0,0c0,.279-.5.279-.5,0a.252.252,0,1,1,.5,0Zm5.923,0c0,.279-.491.279-.491,0a.252.252,0,0,1,.252-.252A.25.25,0,0,1,23.785,28.842Zm0,0c0,.279-.491.279-.491,0a.252.252,0,0,1,.252-.252A.25.25,0,0,1,23.785,28.842Zm-5.923,0c0,.279-.5.279-.5,0a.252.252,0,1,1,.5,0ZM37.332,7.752V29.917L33.507,26.69a2.07,2.07,0,0,0-1.3-.478,2.032,2.032,0,0,0-2.032,2.032v5.923H2.961A2.964,2.964,0,0,1,0,31.206V7.752ZM19.19,28.842a1.58,1.58,0,1,0-1.58,1.58A1.584,1.584,0,0,0,19.19,28.842Zm5.923,0a1.574,1.574,0,1,0-1.567,1.58A1.581,1.581,0,0,0,25.113,28.842Zm3.4-13.559a1.56,1.56,0,0,0-1.235-.611H12.191L11.806,13.2a1.71,1.71,0,0,0-1.66-1.262H9.164a.664.664,0,1,0,0,1.328h.983a.386.386,0,0,1,.372.279L13.692,25.4a1.977,1.977,0,0,0,1.926,1.474H26.256a.658.658,0,0,0,.664-.664.666.666,0,0,0-.664-.664H15.618a.669.669,0,0,1-.651-.491l-.239-.9h10a2.658,2.658,0,0,0,2.563-1.965l1.487-5.578a1.528,1.528,0,0,0-.266-1.328ZM23.785,28.842c0,.279-.491.279-.491,0a.252.252,0,0,1,.252-.252A.25.25,0,0,1,23.785,28.842Zm-5.923,0c0,.279-.5.279-.5,0a.252.252,0,1,1,.5,0Zm0,0c0,.279-.5.279-.5,0a.252.252,0,1,1,.5,0Zm5.923,0c0,.279-.491.279-.491,0a.252.252,0,0,1,.252-.252A.25.25,0,0,1,23.785,28.842Zm0,0c0,.279-.491.279-.491,0a.252.252,0,0,1,.252-.252A.25.25,0,0,1,23.785,28.842Zm-5.923,0c0,.279-.5.279-.5,0a.252.252,0,1,1,.5,0Zm0,0c0,.279-.5.279-.5,0a.252.252,0,1,1,.5,0Zm5.923,0c0,.279-.491.279-.491,0a.252.252,0,0,1,.252-.252A.25.25,0,0,1,23.785,28.842Zm0,0c0,.279-.491.279-.491,0a.252.252,0,0,1,.252-.252A.25.25,0,0,1,23.785,28.842Zm-5.923,0c0,.279-.5.279-.5,0a.252.252,0,1,1,.5,0Zm0,0c0,.279-.5.279-.5,0a.252.252,0,1,1,.5,0Zm5.923,0c0,.279-.491.279-.491,0a.252.252,0,0,1,.252-.252A.25.25,0,0,1,23.785,28.842ZM37.332,5.269V6.424H0V5.269A2.953,2.953,0,0,1,2.962,2.32H34.37a2.953,2.953,0,0,1,2.962,2.948ZM10.585,4.7a.623.623,0,0,0-.624-.624H3.134a.624.624,0,0,0,0,1.248H9.96a.623.623,0,0,0,.624-.624Zm18.752,0a.666.666,0,0,0-.664-.664.675.675,0,0,0-.664.664.666.666,0,0,0,.664.664A.658.658,0,0,0,29.337,4.7Zm2.749,0a.675.675,0,0,0-.664-.664.666.666,0,0,0-.664.664.658.658,0,0,0,.664.664A.666.666,0,0,0,32.086,4.7Zm2.736,0a.664.664,0,1,0-1.328,0,.664.664,0,1,0,1.328,0ZM23.785,28.842c0,.279-.491.279-.491,0a.252.252,0,0,1,.252-.252A.25.25,0,0,1,23.785,28.842Zm-5.923,0c0,.279-.5.279-.5,0a.252.252,0,1,1,.5,0Zm0,0c0,.279-.5.279-.5,0a.252.252,0,1,1,.5,0Zm0,0c0,.279-.5.279-.5,0a.252.252,0,1,1,.5,0ZM39.59,33.561l-6.941-5.853a.7.7,0,0,0-1.151.535l0,9.08a.7.7,0,0,0,1.149.539l1.906-1.584,1.056,2.271a1.25,1.25,0,1,0,2.266-1.054l-1.056-2.271,2.44-.437a.7.7,0,0,0,.328-1.226Z" transform="translate(162 5833.68)" fill="#fff"/>
  </g>
</svg>
