<svg xmlns="http://www.w3.org/2000/svg" width="60" height="60" viewBox="0 0 60 60">
  <g id="Group_37272" data-name="Group 37272" transform="translate(-142 -5994)">
    <circle id="Ellipse_842" data-name="Ellipse 842" cx="30" cy="30" r="30" transform="translate(142 5994)" fill="#0504a5"/>
    <g id="Group_37248" data-name="Group 37248" transform="translate(154.946 6007)">
      <path id="Path_50951" data-name="Path 50951" d="M112.814,7.026A7.025,7.025,0,0,0,105.855,0a5.431,5.431,0,0,0-3.977,1.791A5.431,5.431,0,0,0,97.9,0a7.025,7.025,0,0,0-6.959,7.026c0,3.859,2.832,5.852,6.112,8.159a50.105,50.105,0,0,1,4.173,3.169l.65.565.651-.564c1.607-1.39,3.135-2.479,4.483-3.439,3.242-2.308,5.8-4.131,5.8-7.89Zm-7.954,2.983h-1.988V12h-1.988V10.008H98.9V8.02h1.988V6.031h1.988V8.02h1.988Z" transform="translate(-84.864)" fill="#fff"/>
      <path id="Path_50952" data-name="Path 50952" d="M285.721,137.2c-2.028,0-2.552,9.425-2.592,9.624a7.729,7.729,0,0,1-2.818,4.656l-4.306,3.127-1.192-1.592,4.306-3.126c1.706-1.279,2.483-3.463.351-3.463-1.909,0-5.478,2.211-6.537,3.088a5.512,5.512,0,0,0-1.994,4.244v8.284h5.965a5.09,5.09,0,0,1,1.312-2.989,28.282,28.282,0,0,1,3.261-3.34c2.346-2.207,4.779-4.474,5.1-6.78a60.119,60.119,0,0,0,.338-6.575C286.906,139.7,286.681,137.285,285.721,137.2Z" transform="translate(-252.933 -128.106)" fill="#fff"/>
      <path id="Path_50953" data-name="Path 50953" d="M13.792,149.328c-2.8-1.929-4.931-2.9-6.3-2.9-2.132,0-1.354,2.184.351,3.463l4.306,3.126-1.192,1.592-4.306-3.127a7.728,7.728,0,0,1-2.818-4.656c-.04-.2-.563-9.624-2.592-9.624-1.113.1-1.233,3.34-1.173,6.442.04,2.267.219,4.474.318,5.289.318,2.306,2.751,4.573,5.1,6.78a28.275,28.275,0,0,1,3.261,3.34,5.09,5.09,0,0,1,1.312,2.989h5.965V153.8a5.6,5.6,0,0,0-2.227-4.468Z" transform="translate(0 -128.106)" fill="#fff"/>
    </g>
  </g>
</svg>
