<svg xmlns="http://www.w3.org/2000/svg" width="60" height="60" viewBox="0 0 60 60">
  <g id="Group_37247" data-name="Group 37247" transform="translate(-140 -3441)">
    <circle id="Ellipse_840" data-name="Ellipse 840" cx="30" cy="30" r="30" transform="translate(140 3441)" fill="#0504a5"/>
    <path id="Path_50950" data-name="Path 50950" d="M40.744,55.813a1.181,1.181,0,0,0-1.115-.8H33.443a1.181,1.181,0,0,0-1.115.8ZM27.708,42.5c2.274,0,4.117,3.564,4.117,5.837a4.117,4.117,0,1,1-8.234,0c0-2.274,1.843-5.837,4.117-5.837Zm-1.944,4.01h3.888a.431.431,0,0,0,0-.862H25.764a.431.431,0,1,0,0,.862Zm-2.819.226H10.415a.382.382,0,0,0-.072.756l12.65,2.448a5.477,5.477,0,0,1-.048-3.2Zm9.478,3.2,12.65-2.448A.382.382,0,0,0,45,46.733H32.471a5.477,5.477,0,0,1-.048,3.2Zm-3.754-8.151-.118-1.75a.434.434,0,0,0-.422-.422h-.843a.434.434,0,0,0-.422.422l-.118,1.75a3.126,3.126,0,0,1,1.922,0Zm3.191,3.25,3.822-.74a.382.382,0,0,0-.072-.756H30.959a8.412,8.412,0,0,1,.9,1.5Zm-7.4-1.5H19.806a.382.382,0,0,0-.072.756l3.822.74a8.417,8.417,0,0,1,.9-1.5ZM14.63,55.009H24.691a.4.4,0,0,1,.4.4v1.081a.4.4,0,0,1-.4.4H14.63a.4.4,0,0,1-.4-.4V55.412A.4.4,0,0,1,14.63,55.009ZM11.846,67.084a.43.43,0,0,1,.576-.64,3.462,3.462,0,0,0,4.624,0,.431.431,0,0,1,.577,0,3.463,3.463,0,0,0,4.623,0,.431.431,0,0,1,.577,0,3.463,3.463,0,0,0,4.623,0,.43.43,0,0,1,.576.64,4.32,4.32,0,0,1-5.488.237,4.319,4.319,0,0,1-5.2,0,4.319,4.319,0,0,1-5.488-.237Zm0,2.516a.43.43,0,0,1,.576-.64,3.462,3.462,0,0,0,4.624,0,.431.431,0,0,1,.577,0,3.463,3.463,0,0,0,4.623,0,.431.431,0,0,1,.577,0,3.463,3.463,0,0,0,4.623,0,.43.43,0,0,1,.576.64,4.319,4.319,0,0,1-5.488.237,4.319,4.319,0,0,1-5.2,0,4.319,4.319,0,0,1-5.488-.237Zm2.123-3.247a2.6,2.6,0,0,0,2.5-.55,1.294,1.294,0,0,1,1.73,0,2.6,2.6,0,0,0,3.47,0,1.294,1.294,0,0,1,1.73,0,2.587,2.587,0,0,0,1.887.658,8.392,8.392,0,0,0,1.341-4.253,10.141,10.141,0,0,1-6.969-2.557,10.141,10.141,0,0,1-6.969,2.557,8.269,8.269,0,0,0,1.278,4.143Zm10.15-5.3a8.126,8.126,0,0,1-3.85-2.005l-.61-.61-.61.61a8.126,8.126,0,0,1-3.85,2.005V57.758h8.92v3.289Zm6.534,7.563H42.417a.867.867,0,0,0,.865-.865V57.54a.867.867,0,0,0-.865-.865H30.654a.867.867,0,0,0-.865.865V67.746A.867.867,0,0,0,30.654,68.611ZM31.216,58.1H41.855v5.579H31.216Zm9.942,9.188h-2.28a1.986,1.986,0,0,1,1.971-1.8h1.005v1.1a.7.7,0,0,1-.7.7Zm-9.246,0a.7.7,0,0,1-.7-.7v-1.1h1.005a1.986,1.986,0,0,1,1.971,1.8h-2.28Zm-.048,2.986H33.27a.89.89,0,0,0,.882-.8H30.982a.889.889,0,0,0,.882.8Zm7.568,0h1.406a.89.89,0,0,0,.882-.8H38.55a.889.889,0,0,0,.882.8Z" transform="translate(141.963 3415.387)" fill="#fff" fill-rule="evenodd"/>
  </g>
</svg>
