<svg xmlns="http://www.w3.org/2000/svg" width="124" height="124" viewBox="0 0 124 124">
  <g id="Group_14123" data-name="Group 14123" transform="translate(-266 -1868)">
    <circle id="Ellipse_10" data-name="Ellipse 10" cx="62" cy="62" r="62" transform="translate(266 1868)" fill="#0504a5"/>
    <path id="Path_50924" data-name="Path 50924" d="M87.6,15.4,61.359.253a1.886,1.886,0,0,0-1.886,0L33.231,15.4a1.886,1.886,0,0,0-.943,1.633v30.3a1.886,1.886,0,0,0,.943,1.633L59.473,64.122a1.886,1.886,0,0,0,1.886,0L87.6,48.972a1.886,1.886,0,0,0,.943-1.633v-30.3A1.886,1.886,0,0,0,87.6,15.4ZM53.346,38.248a1.886,1.886,0,0,1-1.886,1.886h-2.02A1.886,1.886,0,0,1,47.7,38.973l-3.443-8.264v7.539a1.886,1.886,0,0,1-3.772,0V26.127a1.886,1.886,0,0,1,1.886-1.886h2.02A1.886,1.886,0,0,1,46.13,25.4l3.443,8.264V26.127a1.886,1.886,0,0,1,3.772,0ZM66.476,28.013h-6.06v3.3h4.04a1.886,1.886,0,0,1,0,3.772h-4.04v3.164a1.886,1.886,0,0,1-3.772,0V26.127a1.886,1.886,0,0,1,1.886-1.886h7.946A1.886,1.886,0,0,1,66.476,28.013Zm13.131,0H77.453V38.248a1.886,1.886,0,0,1-3.772,0V28.013H71.527a1.886,1.886,0,0,1,0-3.772h8.08A1.886,1.886,0,0,1,79.607,28.013Z" transform="translate(267.712 1898)" fill="#fff"/>
  </g>
</svg>
