<svg xmlns="http://www.w3.org/2000/svg" xmlns:xlink="http://www.w3.org/1999/xlink" width="68" height="68" viewBox="0 0 68 68">
  <defs>
    <clipPath id="clip-path">
      <rect id="Rectangle_74" data-name="Rectangle 74" width="35.677" height="35.664" fill="#0504a5"/>
    </clipPath>
  </defs>
  <g id="Group_13896" data-name="Group 13896" transform="translate(-297 -2332)">
    <circle id="Ellipse_17" data-name="Ellipse 17" cx="34" cy="34" r="34" transform="translate(297 2332)" fill="#fff"/>
    <g id="Group_13903" data-name="Group 13903" transform="translate(313 2348)">
      <g id="Group_13903-2" data-name="Group 13903" clip-path="url(#clip-path)">
        <path id="Path_803" data-name="Path 803" d="M16.677,16.564c-.241.686-.523,1.362-.714,2.062a9.066,9.066,0,0,0-.074,4.448.39.39,0,0,1-.238.523q-1.121.536-2.223,1.111a.8.8,0,0,1-.765.008,20.25,20.25,0,0,1-11.4-12.472A26.763,26.763,0,0,1,0,6.655C3.915,6.142,6.077,3.944,6.475,0H19.6c.4,3.928,2.547,6.137,6.55,6.662-.279,1.32-.549,2.648-.846,3.972-.137.612-.161.593-.774.661a9.663,9.663,0,0,0-7.578,4.861c-.088.147-.19.286-.286.428a3.13,3.13,0,0,0-.071-.577c-.3-.967-.61-1.934-.944-2.891a.413.413,0,0,1,.178-.575c.853-.594,1.687-1.216,2.533-1.822.22-.157.417-.367.264-.611a.785.785,0,0,0-.572-.286c-1.052-.026-2.106-.016-3.159,0a.358.358,0,0,1-.414-.3c-.306-.993-.637-1.977-.952-2.967-.083-.261-.175-.507-.506-.5-.309.009-.393.247-.472.493-.312.978-.642,1.95-.942,2.931a.4.4,0,0,1-.458.344c-1.04-.018-2.081-.008-3.122-.013-.262,0-.509.023-.6.319s.1.455.311.608c.855.613,1.7,1.237,2.563,1.845a.341.341,0,0,1,.153.457c-.337,1-.658,2-.989,2.994-.081.245-.148.493.1.676s.483.051.7-.111c.917-.674,1.839-1.342,2.773-2.023.941.686,1.87,1.365,2.8,2.042.366.267.493.257.836-.051" transform="translate(0 0.001)" fill="#0504a5"/>
        <path id="Path_804" data-name="Path 804" d="M187.55,153.9c-.455,0-.926.014-1.395,0a.646.646,0,0,0-.648.389,6.45,6.45,0,0,1-6.443,3.537,6.3,6.3,0,0,1-5.237-3.371.876.876,0,0,0-.963-.555c-.231.03-.473-.018-.7.011-.4.05-.574-.086-.676-.5a8.911,8.911,0,0,1,.048-4.552c.066-.241.165-.349.431-.33.357.026.719-.006,1.077.01a.7.7,0,0,0,.705-.428,6.522,6.522,0,0,1,4.757-3.445,6.6,6.6,0,0,1,6.907,3.305.881.881,0,0,0,.958.57c.269-.03.547.015.817-.011.312-.03.457.076.539.391a8.557,8.557,0,0,1-.055,4.727c-.018.059-.039.117-.062.174a.547.547,0,0,1-.057.082m-7.933,3.084a5.777,5.777,0,1,0-5.781-5.756,5.773,5.773,0,0,0,5.781,5.756" transform="translate(-154.21 -130.199)" fill="#0504a5"/>
        <path id="Path_805" data-name="Path 805" d="M152.387,281.456l2.941-5.091a9.946,9.946,0,0,0,5.427,3.126l-2.94,5.095-1.15-4.268-4.278,1.138" transform="translate(-137.255 -248.922)" fill="#0504a5"/>
        <path id="Path_806" data-name="Path 806" d="M275.07,279.466a9.934,9.934,0,0,0,5.424-3.133l2.938,5.086-4.271-1.133-1.151,4.269-2.94-5.089" transform="translate(-247.755 -248.893)" fill="#0504a5"/>
        <path id="Path_807" data-name="Path 807" d="M174.746,127.654a8.793,8.793,0,0,1,16.124-.008c-.471,0-.921.011-1.368-.011-.074,0-.151-.147-.208-.238a7.548,7.548,0,0,0-12.932-.081.6.6,0,0,1-.613.344c-.329-.025-.661-.006-1-.006" transform="translate(-157.394 -110.219)" fill="#0504a5"/>
        <path id="Path_808" data-name="Path 808" d="M190.815,247.538a8.8,8.8,0,0,1-16.129,0c.429,0,.847-.015,1.262.01a.466.466,0,0,1,.289.221,7.551,7.551,0,0,0,12.957.08.538.538,0,0,1,.549-.318c.344.026.691.006,1.071.006" transform="translate(-157.339 -222.949)" fill="#0504a5"/>
        <path id="Path_809" data-name="Path 809" d="M97.8,79.981c.254.78.477,1.46.7,2.141.2.618.2.618.864.618h2.192a3.077,3.077,0,0,1-.237.221c-.54.394-1.073.8-1.628,1.172a.63.63,0,0,0-.272.851c.254.708.475,1.428.743,2.246L98.3,85.873c-.471-.343-.517-.343-.976-.009L95.444,87.23c.268-.816.492-1.546.749-2.265a.62.62,0,0,0-.266-.824,19.792,19.792,0,0,1-1.82-1.4h1.12c.409,0,.818-.011,1.227,0a.536.536,0,0,0,.594-.437c.23-.743.478-1.481.753-2.326" transform="translate(-84.762 -72.039)" fill="#0504a5"/>
        <path id="Path_810" data-name="Path 810" d="M216.393,167.224a4.888,4.888,0,1,1-4.764-4.907,4.882,4.882,0,0,1,4.764,4.907m-5.759,1.084c-.442-.451-.845-.868-1.255-1.28-.3-.3-.562-.336-.765-.122s-.166.447.124.739q.719.724,1.444,1.443c.383.38.547.381.925,0q1.577-1.573,3.15-3.149c.061-.061.164-.122.17-.189.015-.191.062-.455-.039-.56s-.369-.078-.558-.057c-.088.01-.166.138-.244.217l-2.953,2.955" transform="translate(-186.1 -146.199)" fill="#0504a5"/>
      </g>
    </g>
  </g>
</svg>
