<svg xmlns="http://www.w3.org/2000/svg" width="68" height="68" viewBox="0 0 68 68">
  <g id="Group_13896" data-name="Group 13896" transform="translate(-297 -2332)">
    <circle id="Ellipse_17" data-name="Ellipse 17" cx="34" cy="34" r="34" transform="translate(297 2332)" fill="#fff"/>
    <path id="Path_835" data-name="Path 835" d="M2.422,6.027V4.2A1.211,1.211,0,0,1,3.623,3H25.438a1.2,1.2,0,0,1,1.2,1.2v19.39a1.211,1.211,0,0,1-1.2,1.2H3.623a1.2,1.2,0,0,1-1.2-1.2V22.374h21.8V8.207L14.53,16.925ZM0,11.476H6.054V13.9H0ZM0,17.53H9.687v2.422H0Z" transform="translate(317.681 2352.102)" fill="#0504a5"/>
  </g>
</svg>
