<svg xmlns="http://www.w3.org/2000/svg" width="68" height="68" viewBox="0 0 68 68">
  <g id="Group_13896" data-name="Group 13896" transform="translate(-297 -2332)">
    <circle id="Ellipse_17" data-name="Ellipse 17" cx="34" cy="34" r="34" transform="translate(297 2332)" fill="#fff"/>
    <path id="Path_836" data-name="Path 836" d="M25.369,19.677v4.394a1.243,1.243,0,0,1-1.155,1.24q-.815.058-1.33.058A19.884,19.884,0,0,1,3,5.485q0-.515.058-1.33A1.243,1.243,0,0,1,4.3,3H8.692a.621.621,0,0,1,.618.559q.043.427.08.686a17.275,17.275,0,0,0,1.5,4.972.567.567,0,0,1-.182.7L8.025,11.838a16.214,16.214,0,0,0,8.506,8.506l1.912-2.678a.574.574,0,0,1,.713-.185,17.27,17.27,0,0,0,4.972,1.5q.257.037.682.08A.621.621,0,0,1,25.369,19.677Z" transform="translate(317 2352)" fill="#0504a5"/>
  </g>
</svg>
