<svg xmlns="http://www.w3.org/2000/svg" xmlns:xlink="http://www.w3.org/1999/xlink" width="68" height="68" viewBox="0 0 68 68">
  <defs>
    <clipPath id="clip-path">
      <rect id="Rectangle_71" data-name="Rectangle 71" width="37.583" height="37.6" fill="#0504a5"/>
    </clipPath>
  </defs>
  <g id="Group_13896" data-name="Group 13896" transform="translate(-297 -2332)">
    <circle id="Ellipse_17" data-name="Ellipse 17" cx="34" cy="34" r="34" transform="translate(297 2332)" fill="#fff"/>
    <g id="Group_13895" data-name="Group 13895" transform="translate(312 2347)">
      <g id="Group_13894" data-name="Group 13894" clip-path="url(#clip-path)">
        <path id="Path_785" data-name="Path 785" d="M79.251,58.5a27.237,27.237,0,0,1-1.928,9.6,21.332,21.332,0,0,1-8.311,9.757c-.9.587-1.858,1.09-2.8,1.622a1.279,1.279,0,0,1-1.269.03,25.44,25.44,0,0,1-7.221-5.305A21.067,21.067,0,0,1,52.6,64.392a31.637,31.637,0,0,1-.74-7.3,1.33,1.33,0,0,1,1.449-1.368,15.2,15.2,0,0,0,4.861-.872,25.452,25.452,0,0,0,6.4-3.321,1.394,1.394,0,0,1,1.972,0,24.3,24.3,0,0,0,7.561,3.677,13.9,13.9,0,0,0,3.629.511,1.362,1.362,0,0,1,1.515,1.527c0,.417,0,.834,0,1.251M65.559,71.38h2.686a2.192,2.192,0,0,0,2.163-2.163q.026-2.41,0-4.82a2.009,2.009,0,0,0-.948-1.735.719.719,0,0,1-.38-.691,3.5,3.5,0,0,0-4.891-3.276,3.379,3.379,0,0,0-2.159,3.356.549.549,0,0,1-.291.552A2.1,2.1,0,0,0,60.7,64.476q-.011,2.318,0,4.636a2.2,2.2,0,0,0,2.284,2.267c.859,0,1.717,0,2.576,0" transform="translate(-46.763 -46.1)" fill="#0504a5"/>
        <path id="Path_786" data-name="Path 786" d="M31.015,163.1c-1.742.95-3.219.769-4.223-.51a2.964,2.964,0,0,1,3.978-4.289c1.324.876,1.638,2.353.841,4.168.612.4,1.217.831,1.861,1.2a17.788,17.788,0,0,0,20.242-1.672,17.946,17.946,0,0,0,6.157-17.812c-.013-.06-.025-.12-.035-.18-.047-.282.044-.5.335-.561a.423.423,0,0,1,.526.389c.138.722.3,1.442.374,2.171a18.447,18.447,0,0,1-3.851,13.657,18.222,18.222,0,0,1-12.4,7.1,18.3,18.3,0,0,1-13.541-3.47c-.089-.064-.179-.126-.264-.185" transform="translate(-23.6 -129.324)" fill="#0504a5"/>
        <path id="Path_787" data-name="Path 787" d="M28.667,2.8c1.348-1.013,2.686-1.025,3.716-.048a2.636,2.636,0,0,1-2.92,4.306c-1.3-.6-1.783-1.88-1.306-3.548-.589-.309-1.179-.653-1.8-.938A17.922,17.922,0,0,0,1.138,21.882c.072.434-.035.644-.331.689s-.469-.118-.538-.55A18.479,18.479,0,0,1,3.679,7.65,18.212,18.212,0,0,1,15.612.29,18.431,18.431,0,0,1,28.36,2.625c.1.061.21.119.307.173" transform="translate(0 0)" fill="#0504a5"/>
        <path id="Path_788" data-name="Path 788" d="M164.346,137.273a2.642,2.642,0,1,1,5.255,0Z" transform="translate(-148.179 -121.143)" fill="#0504a5"/>
        <path id="Path_789" data-name="Path 789" d="M180.971,192.611c-1.128,0-1.236-.132-1.018-1.247.056-.288.113-.576.178-.862a1.5,1.5,0,0,0-.046-1.1.861.861,0,0,1,.324-1.039.964.964,0,0,1,1.131,0,.86.86,0,0,1,.32,1.04,1.471,1.471,0,0,0-.054,1.06c.087.394.163.79.245,1.185.144.7-.067.954-.787.956h-.294" transform="translate(-162.179 -169.686)" fill="#0504a5"/>
      </g>
    </g>
  </g>
</svg>
