<svg xmlns="http://www.w3.org/2000/svg" width="124" height="124" viewBox="0 0 124 124">
  <g id="Group_14123" data-name="Group 14123" transform="translate(-266 -1868)">
    <circle id="Ellipse_10" data-name="Ellipse 10" cx="62" cy="62" r="62" transform="translate(266 1868)" fill="#0504a5"/>
    <g id="Group_34555" data-name="Group 34555" transform="translate(295.951 1897.952)">
      <path id="Path_50949" data-name="Path 50949" d="M3.077,397.935a8.743,8.743,0,0,0-.548,12.806h0a8.742,8.742,0,0,0,12.806-.548l.87-1.033L4.11,397.065Z" transform="translate(0 -349.173)" fill="#fff"/>
      <circle id="Ellipse_837" data-name="Ellipse 837" cx="4.863" cy="4.863" r="4.863" transform="translate(42.703 23.525) rotate(-9.321)" fill="#fff"/>
      <path id="Path_50950" data-name="Path 50950" d="M82.655,0A26.246,26.246,0,0,0,60.2,39.845L52.171,46.6,62.305,56.739l6.759-8.027A26.253,26.253,0,1,0,82.655,0ZM63.395,29.956a1.666,1.666,0,0,1,2.353.116,3.935,3.935,0,0,0,2.893,1.208,1.8,1.8,0,0,0,1.886-1.194c.136-.763-1.063-1.269-1.434-1.406-2.136-.811-2.9-.912-3.779-1.565a4.125,4.125,0,0,1-1.761-3.908A4.349,4.349,0,0,1,66.7,19.694a7.1,7.1,0,0,1,6.183,1.351,1.665,1.665,0,0,1-2.142,2.548v0a3.769,3.769,0,0,0-3.079-.711,1.009,1.009,0,0,0-.812.8.629.629,0,0,0,.38.656c.556.24,1.748.745,3.016,1.212,3.1,1.142,3.869,3.392,3.561,5.117a5.069,5.069,0,0,1-5.166,3.94,7.216,7.216,0,0,1-5.361-2.3A1.666,1.666,0,0,1,63.395,29.956Zm19.573-4.6a1.666,1.666,0,0,1,0,3.332H80.054v2.536h3.279a1.666,1.666,0,1,1,0,3.332H78.388a1.666,1.666,0,0,1-1.666-1.666V21.157a1.666,1.666,0,0,1,1.666-1.666h4.945a1.666,1.666,0,1,1,0,3.332H80.054v2.536Zm12.1,9.253a7.587,7.587,0,1,1,7.587-7.587A7.6,7.6,0,0,1,95.071,34.612Z" transform="translate(-44.813)" fill="#fff"/>
    </g>
  </g>
</svg>
