<svg xmlns="http://www.w3.org/2000/svg" width="124" height="124" viewBox="0 0 124 124">
  <g id="Group_14123" data-name="Group 14123" transform="translate(-266 -1868)">
    <circle id="Ellipse_10" data-name="Ellipse 10" cx="62" cy="62" r="62" transform="translate(266 1868)" fill="#0504a5"/>
    <g id="Group_34475" data-name="Group 34475" transform="translate(291 1899)">
      <path id="Path_50901" data-name="Path 50901" d="M431.785,189.883V199.5a.893.893,0,0,1-1.785,0v-9.615a.893.893,0,0,1,1.785,0Z" transform="translate(-367.605 -163.69)" fill="#fff"/>
      <path id="Path_50902" data-name="Path 50902" d="M35.785,189.883V199.5a.893.893,0,0,1-1.785,0v-9.615a.893.893,0,0,1,1.785,0Z" transform="translate(-23.987 -163.69)" fill="#fff"/>
      <path id="Path_50903" data-name="Path 50903" d="M100.544,57.54l-9.717,5.055a.892.892,0,0,1-.822-1.584l9.717-5.055a.892.892,0,0,1,.822,1.584Z" transform="translate(-71.459 -49.623)" fill="#fff"/>
      <path id="Path_50904" data-name="Path 50904" d="M100.94,369.125a.882.882,0,0,1-1.233.47l-9.717-5.055a.892.892,0,0,1,.822-1.584l9.717,5.055a.882.882,0,0,1,.411,1.114Z" transform="translate(-71.445 -313.926)" fill="#fff"/>
      <path id="Path_50905" data-name="Path 50905" d="M298.94,62.125a.882.882,0,0,1-1.233.47l-9.717-5.055a.892.892,0,0,1,.822-1.584l9.717,5.055A.882.882,0,0,1,298.94,62.125Z" transform="translate(-242.882 -49.623)" fill="#fff"/>
      <path id="Path_50906" data-name="Path 50906" d="M298.544,364.54l-9.717,5.055a.892.892,0,0,1-.822-1.584l9.717-5.055a.892.892,0,0,1,.822,1.584Z" transform="translate(-242.897 -313.926)" fill="#fff"/>
      <path id="Path_50907" data-name="Path 50907" d="M232.9,86a.884.884,0,0,1,.884.884v.79a.893.893,0,0,1-1.785,0v-.79A.883.883,0,0,1,232.9,86Z" transform="translate(-195.796 -74.815)" fill="#fff"/>
      <path id="Path_50908" data-name="Path 50908" d="M233.785,371.946v.79a.893.893,0,0,1-1.785,0v-.79A.893.893,0,0,1,233.785,371.946Z" transform="translate(-195.796 -322.803)" fill="#fff"/>
      <path id="Path_50909" data-name="Path 50909" d="M91.958,161.536,90,160.512a.893.893,0,0,1,.827-1.583l1.956,1.024A.893.893,0,0,1,91.958,161.536Z" transform="translate(-71.757 -138.157)" fill="#fff"/>
      <path id="Path_50910" data-name="Path 50910" d="M360.614,159.4a.882.882,0,0,1-.409,1.112l-1.955,1.024a.893.893,0,0,1-.828-1.582l1.956-1.024A.882.882,0,0,1,360.614,159.4Z" transform="translate(-304.258 -138.158)" fill="#fff"/>
      <path id="Path_50911" data-name="Path 50911" d="M92.8,297.587l-1.956,1.024a.893.893,0,0,1-.827-1.583L91.971,296A.893.893,0,0,1,92.8,297.587Z" transform="translate(-71.769 -257.381)" fill="#fff"/>
      <path id="Path_50912" data-name="Path 50912" d="M360.637,298.139a.882.882,0,0,1-1.236.471l-1.956-1.024a.893.893,0,0,1,.828-1.582l1.955,1.024A.882.882,0,0,1,360.637,298.139Z" transform="translate(-304.281 -257.38)" fill="#fff"/>
      <path id="Path_50913" data-name="Path 50913" d="M210.133,410h-2.455A2.681,2.681,0,0,0,205,412.678v2.455a2.681,2.681,0,0,0,2.678,2.678h2.455a2.681,2.681,0,0,0,2.678-2.678v-2.455A2.681,2.681,0,0,0,210.133,410Z" transform="translate(-171.809 -355.809)" fill="#fff"/>
      <path id="Path_50914" data-name="Path 50914" d="M210.133,0h-2.455A2.681,2.681,0,0,0,205,2.678V5.133a2.681,2.681,0,0,0,2.678,2.678h2.455a2.681,2.681,0,0,0,2.678-2.678V2.678A2.681,2.681,0,0,0,210.133,0Z" transform="translate(-171.809)" fill="#fff"/>
      <path id="Path_50915" data-name="Path 50915" d="M12.133,307H9.678A2.681,2.681,0,0,0,7,309.678v2.455a2.681,2.681,0,0,0,2.678,2.678h2.455a2.681,2.681,0,0,0,2.678-2.678v-2.455A2.681,2.681,0,0,0,12.133,307Z" transform="translate(0 -266.423)" fill="#fff"/>
      <path id="Path_50916" data-name="Path 50916" d="M408.133,103h-2.455A2.681,2.681,0,0,0,403,105.678v2.455a2.681,2.681,0,0,0,2.678,2.678h2.455a2.681,2.681,0,0,0,2.678-2.678v-2.455A2.681,2.681,0,0,0,408.133,103Z" transform="translate(-343.618 -89.386)" fill="#fff"/>
      <path id="Path_50917" data-name="Path 50917" d="M408.133,307h-2.455A2.681,2.681,0,0,0,403,309.678v2.455a2.681,2.681,0,0,0,2.678,2.678h2.455a2.681,2.681,0,0,0,2.678-2.678v-2.455A2.681,2.681,0,0,0,408.133,307Z" transform="translate(-343.618 -266.423)" fill="#fff"/>
      <path id="Path_50918" data-name="Path 50918" d="M12.133,103H9.678A2.681,2.681,0,0,0,7,105.678v2.455a2.681,2.681,0,0,0,2.678,2.678h2.455a2.681,2.681,0,0,0,2.678-2.678v-2.455A2.681,2.681,0,0,0,12.133,103Z" transform="translate(0 -89.386)" fill="#fff"/>
      <path id="Path_50919" data-name="Path 50919" d="M151.81,199.517l-9.15-4.982a.446.446,0,0,0-.66.392v10.658a.893.893,0,0,0,.466.784l8.917,4.855a.446.446,0,0,0,.66-.392V199.909A.447.447,0,0,0,151.81,199.517Z" transform="translate(-116.994 -167.797)" fill="#fff"/>
      <path id="Path_50920" data-name="Path 50920" d="M164.136,140.7l9.109-4.96a.446.446,0,0,0,0-.784l-8.9-4.843a.892.892,0,0,0-.854,0l-8.9,4.843a.446.446,0,0,0,0,.784l9.109,4.96A.446.446,0,0,0,164.136,140.7Z" transform="translate(-126.826 -112.634)" fill="#fff"/>
      <path id="Path_50921" data-name="Path 50921" d="M248,199.909v10.923a.446.446,0,0,0,.66.392l8.917-4.855a.893.893,0,0,0,.466-.784V194.927a.446.446,0,0,0-.66-.392l-9.15,4.982A.446.446,0,0,0,248,199.909Z" transform="translate(-208.856 -167.797)" fill="#fff"/>
    </g>
  </g>
</svg>
