<svg xmlns="http://www.w3.org/2000/svg" width="124" height="124" viewBox="0 0 124 124">
  <g id="Group_14123" data-name="Group 14123" transform="translate(-266 -1868)">
    <circle id="Ellipse_10" data-name="Ellipse 10" cx="62" cy="62" r="62" transform="translate(266 1868)" fill="#0504a5"/>
    <path id="Path_50923" data-name="Path 50923" d="M69.878,109.763a5.755,5.755,0,1,1-4.069-1.687A5.742,5.742,0,0,1,69.878,109.763Zm15.473,2.859v2.424a1.622,1.622,0,0,1-1.139,1.564l-1.72.557a1.59,1.59,0,0,0-1.072,1.115,16.223,16.223,0,0,1-1.427,3.441,1.606,1.606,0,0,0-.028,1.545l.822,1.615a1.624,1.624,0,0,1-.3,1.909l-1.715,1.715a1.627,1.627,0,0,1-1.909.3l-1.615-.822a1.58,1.58,0,0,0-1.545.028,15.919,15.919,0,0,1-3.441,1.422,1.594,1.594,0,0,0-1.11,1.077l-.562,1.72a1.614,1.614,0,0,1-1.564,1.134H64.6a1.619,1.619,0,0,1-1.564-1.134l-.557-1.72a1.606,1.606,0,0,0-1.115-1.077,15.953,15.953,0,0,1-3.441-1.422,1.593,1.593,0,0,0-1.545-.028l-1.615.822a1.629,1.629,0,0,1-1.909-.3l-1.715-1.715a1.63,1.63,0,0,1-.3-1.909l.822-1.615a1.58,1.58,0,0,0-.028-1.545,15.918,15.918,0,0,1-1.422-3.441,1.61,1.61,0,0,0-1.077-1.115l-1.72-.557a1.619,1.619,0,0,1-1.134-1.564v-2.424a1.613,1.613,0,0,1,1.134-1.564l1.725-.562a1.6,1.6,0,0,0,1.072-1.11,16.208,16.208,0,0,1,1.422-3.441,1.58,1.58,0,0,0,.028-1.545l-.822-1.615a1.627,1.627,0,0,1,.3-1.909l1.715-1.715a1.622,1.622,0,0,1,1.909-.3l1.615.822a1.606,1.606,0,0,0,1.545-.028,16.187,16.187,0,0,1,3.441-1.427,1.593,1.593,0,0,0,1.115-1.072l.557-1.72A1.623,1.623,0,0,1,64.6,94.294h2.424a1.617,1.617,0,0,1,1.564,1.139l.562,1.72a1.575,1.575,0,0,0,1.11,1.072A16.223,16.223,0,0,1,73.7,99.652a1.606,1.606,0,0,0,1.545.028l1.615-.822a1.622,1.622,0,0,1,1.909.3l1.715,1.715a1.62,1.62,0,0,1,.3,1.909l-.822,1.615a1.606,1.606,0,0,0,.028,1.545,16.187,16.187,0,0,1,1.427,3.441,1.578,1.578,0,0,0,1.072,1.11l1.72.562a1.617,1.617,0,0,1,1.139,1.564Zm-11.035,1.21a8.5,8.5,0,1,0-2.491,6.02A8.477,8.477,0,0,0,74.316,113.833Zm-27.007,18.2H41.291l-1.834-5.113H26.334l-1.829,5.113H18.488a1.378,1.378,0,1,0,0,2.756H47.306a1.378,1.378,0,1,0,0-2.756Zm-3.733-20.171H-.01V78.47A4.324,4.324,0,0,1,4.3,74.16H61.5a4.324,4.324,0,0,1,4.315,4.31V91.536H64.6a4.376,4.376,0,0,0-4.183,3.044l-.383,1.167A18.83,18.83,0,0,0,57.1,96.963l-1.1-.558a4.377,4.377,0,0,0-5.108.809l-1.715,1.715a4.378,4.378,0,0,0-.809,5.108l.557,1.1a19.306,19.306,0,0,0-1.21,2.926l-1.172.378A4.376,4.376,0,0,0,43.575,111.865ZM17.323,93.7l9.121-5.095a1.373,1.373,0,1,0-1.334-2.4L13.854,92.49a1.419,1.419,0,0,0-.548.543,1.374,1.374,0,0,0,.533,1.867l11.271,6.3a1.373,1.373,0,1,0,1.334-2.4ZM35.56,82.1a1.376,1.376,0,0,0-1.649,1.035l-4.7,20.524a1.374,1.374,0,1,0,2.679.609l4.7-20.519A1.376,1.376,0,0,0,35.56,82.1Zm5.128,19.1,11.271-6.3a1.374,1.374,0,0,0,.533-1.867,1.408,1.408,0,0,0-.548-.543L40.688,86.205a1.373,1.373,0,1,0-1.334,2.4L48.475,93.7,39.354,98.8a1.373,1.373,0,1,0,1.334,2.4Zm5.865,18.033a4.372,4.372,0,0,1-3.039-4.183v-.425H-.01v5.236a4.327,4.327,0,0,0,4.315,4.31h43.84a4.823,4.823,0,0,1,.232-.533l.557-1.1a19.857,19.857,0,0,1-1.215-2.926Z" transform="translate(285.01 1825.84)" fill="#fff"/>
  </g>
</svg>
