<svg xmlns="http://www.w3.org/2000/svg" width="94" height="94" viewBox="0 0 94 94">
  <g id="Group_34003" data-name="Group 34003" transform="translate(-353 -4829)">
    <circle id="Ellipse_17" data-name="Ellipse 17" cx="47" cy="47" r="47" transform="translate(353 4829)" fill="#fff"/>
    <g id="Group_37515" data-name="Group 37515" transform="translate(376 4852)">
      <path id="Path_51014" data-name="Path 51014" d="M217.849,233.363l-1.363,3.579H219.2Z" transform="translate(-196.19 -211.485)" fill="#0504a5"/>
      <path id="Path_51015" data-name="Path 51015" d="M141,162.563h21.563V141H141Zm16.172-16.406a1.406,1.406,0,0,1,2.813,0v11.25a1.406,1.406,0,0,1-2.812,0Zm-13.5,10.749,4.224-11.092.013-.032a1.655,1.655,0,0,1,1.536-1.032h0a1.655,1.655,0,0,1,1.536,1.029l.015.039,4.186,11.092a1.406,1.406,0,1,1-2.631.993l-.7-1.853h-4.846l-.707,1.857a1.406,1.406,0,0,1-2.628-1Z" transform="translate(-127.781 -127.781)" fill="#0504a5"/>
      <path id="Path_51016" data-name="Path 51016" d="M100.219,66H67.406A1.406,1.406,0,0,0,66,67.406v32.813a1.406,1.406,0,0,0,1.406,1.406h32.813a1.406,1.406,0,0,0,1.406-1.406V67.406A1.406,1.406,0,0,0,100.219,66ZM97.406,96A1.406,1.406,0,0,1,96,97.406H71.625A1.406,1.406,0,0,1,70.219,96V71.625a1.406,1.406,0,0,1,1.406-1.406H96a1.406,1.406,0,0,1,1.406,1.406Z" transform="translate(-59.813 -59.813)" fill="#0504a5"/>
      <path id="Path_51017" data-name="Path 51017" d="M393.813,1.406a1.406,1.406,0,0,0-2.812,0V3.375h2.813Z" transform="translate(-354.344)" fill="#0504a5"/>
      <path id="Path_51018" data-name="Path 51018" d="M333.813,1.406a1.406,1.406,0,0,0-2.812,0V3.375h2.813Z" transform="translate(-299.969)" fill="#0504a5"/>
      <path id="Path_51019" data-name="Path 51019" d="M273.813,1.406a1.406,1.406,0,0,0-2.812,0V3.375h2.813Z" transform="translate(-245.594)" fill="#0504a5"/>
      <path id="Path_51020" data-name="Path 51020" d="M213.813,1.406a1.406,1.406,0,0,0-2.812,0V3.375h2.813Z" transform="translate(-191.219)" fill="#0504a5"/>
      <path id="Path_51021" data-name="Path 51021" d="M153.813,1.406a1.406,1.406,0,0,0-2.812,0V3.375h2.813Z" transform="translate(-136.844)" fill="#0504a5"/>
      <path id="Path_51022" data-name="Path 51022" d="M93.813,1.406a1.406,1.406,0,0,0-2.812,0V3.375h2.813Z" transform="translate(-82.469)" fill="#0504a5"/>
      <path id="Path_51023" data-name="Path 51023" d="M391,477.969a1.406,1.406,0,0,0,2.813,0V476H391Z" transform="translate(-354.344 -431.375)" fill="#0504a5"/>
      <path id="Path_51024" data-name="Path 51024" d="M331,477.969a1.406,1.406,0,0,0,2.813,0V476H331Z" transform="translate(-299.969 -431.375)" fill="#0504a5"/>
      <path id="Path_51025" data-name="Path 51025" d="M271,477.969a1.406,1.406,0,0,0,2.813,0V476H271Z" transform="translate(-245.594 -431.375)" fill="#0504a5"/>
      <path id="Path_51026" data-name="Path 51026" d="M211,477.969a1.406,1.406,0,0,0,2.813,0V476H211Z" transform="translate(-191.219 -431.375)" fill="#0504a5"/>
      <path id="Path_51027" data-name="Path 51027" d="M151,477.969a1.406,1.406,0,0,0,2.813,0V476H151Z" transform="translate(-136.844 -431.375)" fill="#0504a5"/>
      <path id="Path_51028" data-name="Path 51028" d="M91,477.969a1.406,1.406,0,0,0,2.813,0V476H91Z" transform="translate(-82.469 -431.375)" fill="#0504a5"/>
      <path id="Path_51029" data-name="Path 51029" d="M0,92.406a1.406,1.406,0,0,0,1.406,1.406H3.375V91H1.406A1.406,1.406,0,0,0,0,92.406Z" transform="translate(0 -82.469)" fill="#0504a5"/>
      <path id="Path_51030" data-name="Path 51030" d="M0,152.406a1.406,1.406,0,0,0,1.406,1.406H3.375V151H1.406A1.406,1.406,0,0,0,0,152.406Z" transform="translate(0 -136.844)" fill="#0504a5"/>
      <path id="Path_51031" data-name="Path 51031" d="M0,212.406a1.406,1.406,0,0,0,1.406,1.406H3.375V211H1.406A1.406,1.406,0,0,0,0,212.406Z" transform="translate(0 -191.219)" fill="#0504a5"/>
      <path id="Path_51032" data-name="Path 51032" d="M0,272.406a1.406,1.406,0,0,0,1.406,1.406H3.375V271H1.406A1.406,1.406,0,0,0,0,272.406Z" transform="translate(0 -245.594)" fill="#0504a5"/>
      <path id="Path_51033" data-name="Path 51033" d="M0,332.406a1.406,1.406,0,0,0,1.406,1.406H3.375V331H1.406A1.406,1.406,0,0,0,0,332.406Z" transform="translate(0 -299.969)" fill="#0504a5"/>
      <path id="Path_51034" data-name="Path 51034" d="M0,392.406a1.406,1.406,0,0,0,1.406,1.406H3.375V391H1.406A1.406,1.406,0,0,0,0,392.406Z" transform="translate(0 -354.344)" fill="#0504a5"/>
      <path id="Path_51035" data-name="Path 51035" d="M479.375,92.406A1.406,1.406,0,0,0,477.969,91H476v2.813h1.969A1.406,1.406,0,0,0,479.375,92.406Z" transform="translate(-431.375 -82.469)" fill="#0504a5"/>
      <path id="Path_51036" data-name="Path 51036" d="M477.969,151H476v2.813h1.969a1.406,1.406,0,0,0,0-2.812Z" transform="translate(-431.375 -136.844)" fill="#0504a5"/>
      <path id="Path_51037" data-name="Path 51037" d="M477.969,211H476v2.813h1.969a1.406,1.406,0,0,0,0-2.812Z" transform="translate(-431.375 -191.219)" fill="#0504a5"/>
      <path id="Path_51038" data-name="Path 51038" d="M477.969,271H476v2.813h1.969a1.406,1.406,0,0,0,0-2.812Z" transform="translate(-431.375 -245.594)" fill="#0504a5"/>
      <path id="Path_51039" data-name="Path 51039" d="M477.969,331H476v2.813h1.969a1.406,1.406,0,0,0,0-2.812Z" transform="translate(-431.375 -299.969)" fill="#0504a5"/>
      <path id="Path_51040" data-name="Path 51040" d="M477.969,391H476v2.813h1.969a1.406,1.406,0,0,0,0-2.812Z" transform="translate(-431.375 -354.344)" fill="#0504a5"/>
    </g>
  </g>
</svg>
