<svg xmlns="http://www.w3.org/2000/svg" width="94" height="94" viewBox="0 0 94 94">
  <g id="Group_34003" data-name="Group 34003" transform="translate(-353 -4829)">
    <path id="Path_51042" data-name="Path 51042" d="M47,0A47,47,0,1,1,0,47,47,47,0,0,1,47,0Z" transform="translate(353 4829)" fill="#fff"/>
    <g id="Layer_2" data-name="Layer 2" transform="translate(374.988 4853.72)">
      <path id="Path_51042-2" data-name="Path 51042" d="M44.293,7.009A12.706,12.706,0,0,0,28.525,5.237l5.11,5.2a2.315,2.315,0,0,1-3.453,3.085L23.691,7.009a12.476,12.476,0,0,0-3.177-2.3,12.752,12.752,0,0,0-14.8,2.3,15.33,15.33,0,0,0,0,19.98C10,31.593,20.4,42.251,25.072,42.251c3.637,0,10.773-6.468,15.722-11.509,1.243-1.243,2.3-2.3,3.223-3.338l.345-.368a15.33,15.33,0,0,0-.069-20.026Zm-14.686,19.8h-2.3v2.3a2.3,2.3,0,1,1-4.6,0v-2.3H20.4a2.3,2.3,0,0,1,0-4.6h2.3V19.9a2.3,2.3,0,1,1,4.6,0v2.3h2.3a2.3,2.3,0,1,1,0,4.6Z" transform="translate(0 0)" fill="#0504a5"/>
    </g>
  </g>
</svg>
