<svg xmlns="http://www.w3.org/2000/svg" width="94" height="94" viewBox="0 0 94 94">
  <g id="Group_34003" data-name="Group 34003" transform="translate(-353 -4829)">
    <circle id="Ellipse_17" data-name="Ellipse 17" cx="47" cy="47" r="47" transform="translate(353 4829)" fill="#fff"/>
    <g id="Group_37516" data-name="Group 37516" transform="translate(372 4785)">
      <circle id="Ellipse_848" data-name="Ellipse 848" cx="2.247" cy="2.247" r="2.247" transform="translate(29.695 94.458)" fill="#0504a5"/>
      <circle id="Ellipse_849" data-name="Ellipse 849" cx="2.247" cy="2.247" r="2.247" transform="translate(19.478 94.458)" fill="#0504a5"/>
      <path id="Path_51044" data-name="Path 51044" d="M50.057,91.9A9.144,9.144,0,0,0,38.781,81.3a11.3,11.3,0,0,0-21.632-3.455,9.137,9.137,0,0,0-11.64,10.3A12.32,12.32,0,0,0,0,98.553a12.473,12.473,0,0,0,12.5,12.24H44.847A10.146,10.146,0,0,0,50.057,91.9ZM16.011,98.565a3.852,3.852,0,0,1-3.934,2.979A5.678,5.678,0,0,1,7.915,99.76a1.076,1.076,0,1,1,1.594-1.445,3.5,3.5,0,0,0,2.568,1.078,1.761,1.761,0,0,0,1.817-1.207c.146-.816-.9-1.294-1.35-1.462-1.494-.551-2.82-1.141-2.876-1.166a1.089,1.089,0,0,1-.149-.081,2.939,2.939,0,0,1-1.311-2.91,3.267,3.267,0,0,1,2.369-2.635A4.7,4.7,0,0,1,15.613,91.3a1.076,1.076,0,0,1-1.811,1.15,2.916,2.916,0,0,0-2.6-.455,1.1,1.1,0,0,0-.86.881.8.8,0,0,0,.3.761c.322.141,1.445.627,2.652,1.072C15.649,95.578,16.243,97.271,16.011,98.565Zm10.112,1.9a1.075,1.075,0,0,1-2.15.014,4.4,4.4,0,1,1,0-7.557,1.075,1.075,0,0,1,2.15.014Zm10.217,0a1.075,1.075,0,0,1-2.15.014,4.4,4.4,0,1,1,0-7.557,1.075,1.075,0,0,1,2.15.014Zm9.751-1.9a3.852,3.852,0,0,1-3.934,2.979,5.678,5.678,0,0,1-4.162-1.785,1.076,1.076,0,1,1,1.594-1.445,3.5,3.5,0,0,0,2.568,1.078,1.761,1.761,0,0,0,1.817-1.207c.146-.816-.9-1.294-1.35-1.462-1.494-.551-2.82-1.141-2.876-1.166a1.089,1.089,0,0,1-.149-.081,2.939,2.939,0,0,1-1.311-2.91,3.267,3.267,0,0,1,2.369-2.635A4.7,4.7,0,0,1,45.692,91.3a1.076,1.076,0,0,1-1.811,1.15,2.916,2.916,0,0,0-2.6-.455,1.1,1.1,0,0,0-.86.881.8.8,0,0,0,.3.761c.322.141,1.445.627,2.652,1.072C45.728,95.578,46.322,97.271,46.091,98.565Z" transform="translate(0 0)" fill="#0504a5"/>
    </g>
  </g>
</svg>
