<svg xmlns="http://www.w3.org/2000/svg" width="94" height="94" viewBox="0 0 94 94">
  <g id="Group_34003" data-name="Group 34003" transform="translate(-353 -4829)">
    <circle id="Ellipse_17" data-name="Ellipse 17" cx="47" cy="47" r="47" transform="translate(353 4829)" fill="#fff"/>
    <g id="Group_37470" data-name="Group 37470" transform="translate(372 4847.036)">
      <path id="Path_50993" data-name="Path 50993" d="M21.332,14.408c11.217,0,17.341-2.463,17.341-3.727S32.549,6.965,21.332,6.965,4,9.427,4,10.682,10.115,14.408,21.332,14.408Z" transform="translate(0)" fill="#0504a5"/>
      <path id="Path_50994" data-name="Path 50994" d="M21.332,25.623c1.719,0,3.373-.056,4.916-.177A16.222,16.222,0,0,1,37.92,20.5c.251,0,.5.009.753.019V14.266c-6.8,4.026-27.876,4.028-34.673,0V21.8a.315.315,0,0,1,.009.093c0,1.264,6.115,3.727,17.323,3.727Z" transform="translate(0 -1.001)" fill="#0504a5"/>
      <path id="Path_50995" data-name="Path 50995" d="M21.332,40.949c-6.821,0-14.024-.948-17.332-3v7.537a.316.316,0,0,1,.009.093c-.226,1.856,11.147,4.338,20.5,3.652a16.084,16.084,0,0,1-2.835-8.289c-.111.009-.232.009-.344.009Z" transform="translate(0 -4.246)" fill="#0504a5"/>
      <path id="Path_50996" data-name="Path 50996" d="M42.7,23.75A14.452,14.452,0,0,0,26.6,38.061c.806,19.1,28.011,19.114,28.818,0A14.433,14.433,0,0,0,42.7,23.75ZM31.818,40.45a.933.933,0,0,1-1.059-.781,10.442,10.442,0,0,1,10.26-11.932,10.267,10.267,0,0,1,5.241,1.422l-.381-1.812a.918.918,0,0,1,.716-1.1.932.932,0,0,1,1.106.716s.88,4.252.892,4.284a.932.932,0,0,1-.883,1.115l-4.368.13a.93.93,0,1,1-.056-1.859l1.728-.046C39,27.258,31.452,32.6,32.6,39.39a.927.927,0,0,1-.781,1.059Zm16.533,4.99a10.411,10.411,0,0,1-12.267,1.794l.455,1.45a.93.93,0,1,1-1.775.558l-1.282-4.1a.931.931,0,0,1,.511-1.217c.077-.041,4.572-.613,4.572-.613a.932.932,0,1,1,.232,1.849l-2.137.269a8.523,8.523,0,0,0,12.685-9.1.927.927,0,1,1,1.812-.39,10.343,10.343,0,0,1-2.807,9.5Z" transform="translate(-3.098 -2.288)" fill="#0504a5"/>
      <path id="Path_50997" data-name="Path 50997" d="M21.332,37.467c.121,0,.232,0,.344-.009a16.069,16.069,0,0,1,2.946-8.429C17.8,29.407,7.729,28.528,4,26.1v7.546a.315.315,0,0,1,.009.093c0,1.264,6.115,3.727,17.323,3.727Z" transform="translate(0 -2.623)" fill="#0504a5"/>
    </g>
  </g>
</svg>
