<svg xmlns="http://www.w3.org/2000/svg" width="94" height="94" viewBox="0 0 94 94">
  <g id="Group_34003" data-name="Group 34003" transform="translate(-353 -4829)">
    <circle id="Ellipse_17" data-name="Ellipse 17" cx="47" cy="47" r="47" transform="translate(353 4829)" fill="#fff"/>
    <path id="Path_51043" data-name="Path 51043" d="M78.223,91.621a1.48,1.48,0,0,1,1.02,1.408v1.464H81.18V93.029A1.48,1.48,0,0,1,82.2,91.621a6.326,6.326,0,0,0,.884-.366,1.478,1.478,0,0,1,1.719.274l1.035,1.036,1.37-1.37L86.17,90.158a1.48,1.48,0,0,1-.274-1.717,6.4,6.4,0,0,0,.366-.884,1.48,1.48,0,0,1,1.408-1.02h1.464V84.6H87.67a1.48,1.48,0,0,1-1.408-1.02,6.328,6.328,0,0,0-.366-.884,1.482,1.482,0,0,1,.274-1.719l1.036-1.036-1.37-1.37L84.8,79.6a1.48,1.48,0,0,1-1.719.275,6.26,6.26,0,0,0-.884-.366,1.48,1.48,0,0,1-1.019-1.408V76.64H79.243V78.1a1.478,1.478,0,0,1-1.02,1.408,6.5,6.5,0,0,0-.884.366A1.478,1.478,0,0,1,75.62,79.6l-1.035-1.035-1.369,1.37,1.035,1.036a1.48,1.48,0,0,1,.275,1.719,6.334,6.334,0,0,0-.368.884,1.478,1.478,0,0,1-1.408,1.02H71.287v1.938h1.464a1.478,1.478,0,0,1,1.408,1.02,6.4,6.4,0,0,0,.368.884,1.48,1.48,0,0,1-.275,1.719l-1.035,1.036,1.369,1.37,1.035-1.036a1.478,1.478,0,0,1,1.719-.274A6.231,6.231,0,0,0,78.223,91.621ZM68.284,123.5H47.611a1.246,1.246,0,1,0,0,2.492H68.284a1.246,1.246,0,1,0,0-2.492Zm-15.139-7.839a24.319,24.319,0,0,1-1.175,6.2H63.908a19.288,19.288,0,0,1-1.166-6.2Zm-8.538-2.65v-1.938H43.144a1.478,1.478,0,0,1-1.408-1.02,6.351,6.351,0,0,0-.368-.885,1.478,1.478,0,0,1,.275-1.717l1.035-1.036-1.369-1.37-1.035,1.035a1.478,1.478,0,0,1-1.719.274,6.326,6.326,0,0,0-.884-.366,1.48,1.48,0,0,1-1.02-1.41v-1.464H34.715v1.464a1.481,1.481,0,0,1-1.019,1.41,6.326,6.326,0,0,0-.884.366,1.478,1.478,0,0,1-1.719-.274l-1.035-1.035-1.37,1.37,1.036,1.036A1.48,1.48,0,0,1,30,109.163a6.4,6.4,0,0,0-.366.884,1.48,1.48,0,0,1-1.408,1.02H26.76v1.938h1.464a1.48,1.48,0,0,1,1.408,1.02,6.327,6.327,0,0,0,.366.884,1.482,1.482,0,0,1-.274,1.719l-1.036,1.036,1.37,1.37L31.094,118a1.478,1.478,0,0,1,1.719-.274,6.328,6.328,0,0,0,.884.366,1.481,1.481,0,0,1,1.019,1.41v1.464h1.937V119.5a1.481,1.481,0,0,1,1.02-1.41,6.4,6.4,0,0,0,.884-.366,1.48,1.48,0,0,1,1.719.274l1.035,1.036,1.369-1.37-1.035-1.036a1.48,1.48,0,0,1-.275-1.719,6.4,6.4,0,0,0,.368-.884,1.478,1.478,0,0,1,1.408-1.02h1.464Zm-8.924-5.537a4.568,4.568,0,1,1-4.565,4.568A4.572,4.572,0,0,1,35.683,107.469Zm43.711,1.837v2.731a1.988,1.988,0,0,1-1.986,1.986H45.96a1.466,1.466,0,0,0,.282-.865v-2.242a1.486,1.486,0,0,0-1.483-1.483H43.252c-.015-.042-.033-.084-.048-.128H79.394Zm-18.478,2.381a.818.818,0,0,0-.817-.817H55.8a.817.817,0,1,0,0,1.634h4.3A.817.817,0,0,0,60.916,111.687ZM79.091,96.129h.3v11.543H43.726l.214-.215a1.482,1.482,0,0,0,0-2.1l-1.583-1.585a1.486,1.486,0,0,0-2.1,0L39.2,104.842a8.15,8.15,0,0,0-.91-.377v-1.508a1.484,1.484,0,0,0-1.482-1.483h-.3V85.567a1.988,1.988,0,0,1,1.986-1.986H69.935a1.466,1.466,0,0,0-.282.865v2.24a1.485,1.485,0,0,0,1.483,1.483h1.506a7.9,7.9,0,0,0,.377.91l-1.065,1.066a1.485,1.485,0,0,0,0,2.1l1.584,1.584a1.483,1.483,0,0,0,2.1,0L76.7,92.762a8.258,8.258,0,0,0,.91.377v1.508a1.483,1.483,0,0,0,1.482,1.482ZM62.616,91.254a.817.817,0,0,0-1.156,1.155l3.531,3.533L61.46,99.475a.818.818,0,1,0,1.156,1.156l4.109-4.11a.819.819,0,0,0,0-1.156ZM59.5,90.04a.815.815,0,0,0-1,.583l-2.686,10.224a.817.817,0,0,0,.583,1,.841.841,0,0,0,.208.027.815.815,0,0,0,.789-.61L60.08,91.038a.817.817,0,0,0-.583-1Zm-6.218,1.215-4.109,4.11a.819.819,0,0,0,0,1.156l4.109,4.11a.818.818,0,1,0,1.156-1.156L50.9,95.942l3.531-3.533a.817.817,0,0,0-1.156-1.155Zm31.5-5.687A4.566,4.566,0,1,1,80.211,81,4.572,4.572,0,0,1,84.776,85.567Z" transform="translate(342.241 4774.36)" fill="#0504a5" fill-rule="evenodd"/>
  </g>
</svg>
