<svg xmlns="http://www.w3.org/2000/svg" width="124" height="124" viewBox="0 0 124 124">
  <g id="Group_14123" data-name="Group 14123" transform="translate(-266 -1868)">
    <circle id="Ellipse_10" data-name="Ellipse 10" cx="62" cy="62" r="62" transform="translate(266 1868)" fill="#0504a5"/>
    <g id="Group_34313" data-name="Group 34313" transform="translate(309 1896)">
      <path id="Path_2011" data-name="Path 2011" d="M72,248h4.8v4.8H72Zm0,0" transform="translate(-61.196 -210.786)" fill="#fff"/>
      <path id="Path_2012" data-name="Path 2012" d="M145.371,244.767l3.4-3.4,3.4,3.4-3.4,3.4Zm0,0" transform="translate(-123.557 -205.151)" fill="#fff"/>
      <path id="Path_2013" data-name="Path 2013" d="M152,168h4.8v4.8H152Zm0,0" transform="translate(-129.191 -142.79)" fill="#fff"/>
      <path id="Path_2014" data-name="Path 2014" d="M38.415,3.6a3.6,3.6,0,0,0-3.6-3.6H3.6A3.6,3.6,0,0,0,0,3.6V4.8H38.415Zm-22.809,0h-1.2a1.2,1.2,0,1,1,0-2.4h1.2a1.2,1.2,0,1,1,0,2.4Zm8.4,0h-4.8a1.2,1.2,0,0,1,0-2.4h4.8a1.2,1.2,0,1,1,0,2.4Zm0,0" fill="#fff"/>
      <path id="Path_2015" data-name="Path 2015" d="M72,168h4.8v4.8H72Zm0,0" transform="translate(-61.196 -142.79)" fill="#fff"/>
      <path id="Path_2016" data-name="Path 2016" d="M38.415,48H0v52.82H38.415ZM20.408,64.807a1.2,1.2,0,0,1,1.2-1.2h7.2a1.2,1.2,0,0,1,1.2,1.2v7.2a1.2,1.2,0,0,1-1.2,1.2h-7.2a1.2,1.2,0,0,1-1.2-1.2Zm-2.4,19.207a1.2,1.2,0,0,1-1.2,1.2H9.6a1.2,1.2,0,0,1-1.2-1.2v-7.2a1.2,1.2,0,0,1,1.2-1.2h7.2a1.2,1.2,0,0,1,1.2,1.2Zm0-12a1.2,1.2,0,0,1-1.2,1.2H9.6a1.2,1.2,0,0,1-1.2-1.2v-7.2a1.2,1.2,0,0,1,1.2-1.2h7.2a1.2,1.2,0,0,1,1.2,1.2Zm13.145,9.252-5.094,5.094a1.2,1.2,0,0,1-1.7,0l-5.094-5.094a1.2,1.2,0,0,1,0-1.7l5.094-5.094a1.2,1.2,0,0,1,1.7,0l5.094,5.094A1.2,1.2,0,0,1,31.152,81.261Zm0,0" transform="translate(0 -40.797)" fill="#fff"/>
      <path id="Path_2017" data-name="Path 2017" d="M38.415,416H0v1.2a3.6,3.6,0,0,0,3.6,3.6H34.814a3.6,3.6,0,0,0,3.6-3.6Zm-16.807,3.6h-4.8a1.2,1.2,0,0,1,0-2.4h4.8a1.2,1.2,0,0,1,0,2.4Zm0,0" transform="translate(0 -353.576)" fill="#fff"/>
    </g>
  </g>
</svg>
