<svg xmlns="http://www.w3.org/2000/svg" width="124" height="124" viewBox="0 0 124 124">
  <g id="Group_14123" data-name="Group 14123" transform="translate(-266 -1868)">
    <circle id="Ellipse_10" data-name="Ellipse 10" cx="62" cy="62" r="62" transform="translate(266 1868)" fill="#0504a5"/>
    <path id="Path_50987" data-name="Path 50987" d="M43.694,19.762A23.911,23.911,0,1,0,67.606,43.674,23.952,23.952,0,0,0,43.694,19.762Zm-3.517,29.99a2.328,2.328,0,0,1,0,3.27,2.309,2.309,0,0,1-3.27,0l-7.713-7.713a2.328,2.328,0,0,1,0-3.27l7.713-7.713a2.313,2.313,0,0,1,3.27,3.27L34.1,43.674Zm17.988-4.443-7.713,7.713a2.309,2.309,0,0,1-3.27,0,2.328,2.328,0,0,1,0-3.27l6.078-6.078L47.181,37.6a2.313,2.313,0,1,1,3.27-3.27l7.713,7.713a2.328,2.328,0,0,1,0,3.27ZM24.2,22.786a28.672,28.672,0,0,0-7.621,11.971c-9.133-.8-14.378-2.592-15.334-3.7V17.633C7.195,21.675,17.469,22.662,24.2,22.786Zm-6.849,31.9C9.293,53.763,1.24,51.51,1.24,46.759V36.269C5,37.9,10.5,38.768,15.463,39.262a29.7,29.7,0,0,0-.339,4.412,28.542,28.542,0,0,0,2.221,11.015ZM26.725,1.25c-9.441,0-25.454,1.79-25.454,8.485s16.013,8.485,25.454,8.485,25.454-1.79,25.454-8.485S36.166,1.25,26.725,1.25Z" transform="translate(293.76 1895.75)" fill="#fff"/>
  </g>
</svg>
