<svg xmlns="http://www.w3.org/2000/svg" width="124" height="124" viewBox="0 0 124 124">
  <g id="Group_14123" data-name="Group 14123" transform="translate(-266 -1868)">
    <circle id="Ellipse_10" data-name="Ellipse 10" cx="62" cy="62" r="62" transform="translate(266 1868)" fill="#0504a5"/>
    <g id="Group_34315" data-name="Group 34315" transform="translate(289.625 1892.29)">
      <path id="Path_2026" data-name="Path 2026" d="M40.152,40.755H39.084L36.423,35.02H20.815l-2.661,5.735H12.11a1.185,1.185,0,1,0,0,2.37H40.183l-.032-.068v-2.3Z" transform="translate(5.537 18.734)" fill="#fff"/>
      <path id="Path_2027" data-name="Path 2027" d="M45.689,27.95H1.375v4.2a4.591,4.591,0,0,0,4.6,4.6H45.689v-8.8ZM36.7,32.942H31.613a1.185,1.185,0,1,1,0-2.37H36.7a1.185,1.185,0,1,1,0,2.37Z" transform="translate(0 14.635)" fill="#fff"/>
      <path id="Path_2028" data-name="Path 2028" d="M54.227,20.2H35.585a4.683,4.683,0,0,0-4.66,4.676V58.337A4.679,4.679,0,0,0,35.585,63H54.227a4.679,4.679,0,0,0,4.66-4.66V24.876a4.683,4.683,0,0,0-4.66-4.676ZM43.191,24.379h3.433a1.185,1.185,0,1,1,0,2.37H43.191a1.185,1.185,0,1,1,0-2.37Zm2.819,34.441H43.8a1.185,1.185,0,1,1,0-2.37h2.2a1.185,1.185,0,1,1,0,2.37Zm9.076-4.9H34.727V29.277H55.085Z" transform="translate(17.134 10.141)" fill="#fff"/>
      <path id="Path_2029" data-name="Path 2029" d="M66.938,27.971V7.307a4.6,4.6,0,0,0-4.6-4.6H5.972a4.6,4.6,0,0,0-4.6,4.6V40.215H45.689v-5.2a7.049,7.049,0,0,1,7.03-7.046ZM7.062,14.59a1.164,1.164,0,0,1,0-1.675l4.123-4.139a1.192,1.192,0,0,1,1.675,0,1.164,1.164,0,0,1,0,1.675L8.737,14.59a1.18,1.18,0,0,1-1.675,0Zm11.943-2.149-8.294,8.294a1.184,1.184,0,0,1-1.675-1.675l8.294-8.294a1.184,1.184,0,0,1,1.675,1.675Z" fill="#fff"/>
    </g>
  </g>
</svg>
