<svg xmlns="http://www.w3.org/2000/svg" width="124" height="124" viewBox="0 0 124 124">
  <g id="Group_14123" data-name="Group 14123" transform="translate(-266 -1868)">
    <circle id="Ellipse_10" data-name="Ellipse 10" cx="62" cy="62" r="62" transform="translate(266 1868)" fill="#0504a5"/>
    <g id="Group_34314" data-name="Group 34314" transform="translate(290 1893)">
      <path id="Path_2018" data-name="Path 2018" d="M48.137,58.822a3.621,3.621,0,0,1-3.117,1.732H23.642a3.621,3.621,0,0,1-3.117-1.732,3.513,3.513,0,0,1-.131-3.463L22.615,51H46.047l2.221,4.359A3.513,3.513,0,0,1,48.137,58.822Z" transform="translate(3.497 8.936)" fill="#fff"/>
      <rect id="Rectangle_16331" data-name="Rectangle 16331" width="31" height="16" rx="2" transform="translate(7.828 11.245)" fill="#fff"/>
      <rect id="Rectangle_16332" data-name="Rectangle 16332" width="14" height="14" rx="2" transform="translate(7.828 30.245)" fill="#fff"/>
      <rect id="Rectangle_16333" data-name="Rectangle 16333" width="14" height="14" rx="2" transform="translate(24.828 30.245)" fill="#fff"/>
      <path id="Path_2019" data-name="Path 2019" d="M59.108,38.389H41.194a1.194,1.194,0,0,1,0-2.389H59.108a1.194,1.194,0,0,1,0,2.389Z" transform="translate(7.382 6.022)" fill="#fff"/>
      <path id="Path_2020" data-name="Path 2020" d="M59.108,33.389H41.194a1.194,1.194,0,0,1,0-2.389H59.108a1.194,1.194,0,0,1,0,2.389Z" transform="translate(7.382 5.051)" fill="#fff"/>
      <path id="Path_2021" data-name="Path 2021" d="M59.108,28.389H41.194a1.194,1.194,0,0,1,0-2.389H59.108a1.194,1.194,0,0,1,0,2.389Z" transform="translate(7.382 4.08)" fill="#fff"/>
      <path id="Path_2022" data-name="Path 2022" d="M67.684,5H7.971A5.973,5.973,0,0,0,2,10.971v40.6a5.973,5.973,0,0,0,5.971,5.971H67.684a5.974,5.974,0,0,0,5.971-5.971v-40.6A5.973,5.973,0,0,0,67.684,5ZM4.389,47.993V10.971A3.593,3.593,0,0,1,7.971,7.389H41.411v40.6Zm66.879,0H43.8V7.389H67.684a3.593,3.593,0,0,1,3.583,3.583Z" fill="#fff"/>
      <path id="Path_2023" data-name="Path 2023" d="M53.194,22.942a1.228,1.228,0,0,1-.717-.239,1.2,1.2,0,0,1-.239-1.672l3.045-4.06-3.045-4.06a1.194,1.194,0,1,1,1.911-1.433l3.583,4.777a1.182,1.182,0,0,1,0,1.433l-3.583,4.777a1.21,1.21,0,0,1-.955.478Z" transform="translate(9.713 1.166)" fill="#fff"/>
      <path id="Path_2024" data-name="Path 2024" d="M43.778,22.942a1.21,1.21,0,0,1-.955-.478l-3.583-4.777a1.182,1.182,0,0,1,0-1.433l3.583-4.777a1.194,1.194,0,0,1,1.911,1.433l-3.045,4.06,3.045,4.06a1.2,1.2,0,0,1-.239,1.672,1.228,1.228,0,0,1-.717.239Z" transform="translate(7.187 1.166)" fill="#fff"/>
      <path id="Path_2025" data-name="Path 2025" d="M47.194,22.942a.789.789,0,0,1-.287-.036,1.194,1.194,0,0,1-.872-1.445l2.389-9.554a1.193,1.193,0,0,1,2.317.573l-2.389,9.554a1.185,1.185,0,0,1-1.158.908Z" transform="translate(8.548 1.166)" fill="#fff"/>
    </g>
  </g>
</svg>
