<svg xmlns="http://www.w3.org/2000/svg" width="76" height="76" viewBox="0 0 76 76">
  <g id="Group_37258" data-name="Group 37258" transform="translate(-186 -2190)">
    <circle id="Ellipse_844" data-name="Ellipse 844" cx="38" cy="38" r="38" transform="translate(186 2190)" fill="#0504a5"/>
    <g id="Group_37266" data-name="Group 37266" transform="translate(201 2205)">
      <path id="Path_50946" data-name="Path 50946" d="M12.752,3.5h7.516a.752.752,0,0,0,.752-.752V2H12v.752A.752.752,0,0,0,12.752,3.5Z" transform="translate(-2.484)" fill="#fff"/>
      <path id="Path_50947" data-name="Path 50947" d="M2,41.832a2.255,2.255,0,0,0,2.255,2.255H23.8a2.255,2.255,0,0,0,2.255-2.255V4.255A2.255,2.255,0,0,0,23.8,2H20.037v.752a2.255,2.255,0,0,1-2.255,2.255H10.267A2.255,2.255,0,0,1,8.012,2.752V2H4.255A2.255,2.255,0,0,0,2,4.255Zm17.286-.752a.752.752,0,0,1,0,1.5H8.764a.752.752,0,0,1,0-1.5Zm-8.047-33.6A.751.751,0,1,1,12.3,8.544L7.041,13.8a.751.751,0,1,1-1.063-1.063Zm-6.012,1.5,1.5-1.5A.751.751,0,1,1,7.792,8.544l-1.5,1.5A.751.751,0,1,1,5.226,8.984Z" transform="translate(0)" fill="#fff"/>
      <path id="Path_50948" data-name="Path 50948" d="M52.467,25.764a.305.305,0,0,1-.2.24l-2.9,1.157a.761.761,0,0,0-.451.519,14.129,14.129,0,0,1-1.608,3.878.766.766,0,0,0-.045.676L48.5,35.121a.3.3,0,0,1-.038.3,16.685,16.685,0,0,1-2.1,2.089.277.277,0,0,1-.286.03l-2.886-1.233a.759.759,0,0,0-.684.045,13.787,13.787,0,0,1-3.87,1.608.761.761,0,0,0-.519.451l-1.157,2.909a.283.283,0,0,1-.233.188c-.233.023-.489.023-.729.038V36.233a11.962,11.962,0,0,0,0-23.884V7.02l.721.045a.305.305,0,0,1,.24.2l1.157,2.909a.761.761,0,0,0,.519.451,13.787,13.787,0,0,1,3.87,1.608.759.759,0,0,0,.684.045l2.878-1.233a.3.3,0,0,1,.308.038,17.1,17.1,0,0,1,2.089,2.089.29.29,0,0,1,.023.3l-1.225,2.878a.766.766,0,0,0,.045.676A14.129,14.129,0,0,1,48.919,20.9a.761.761,0,0,0,.451.519l2.9,1.157a.305.305,0,0,1,.2.24,16.073,16.073,0,0,1,0,2.946Z" transform="translate(-8.447 -1.247)" fill="#fff"/>
    </g>
  </g>
</svg>
