<svg xmlns="http://www.w3.org/2000/svg" width="124" height="124" viewBox="0 0 124 124">
  <g id="Group_14123" data-name="Group 14123" transform="translate(-266 -1868)">
    <circle id="Ellipse_10" data-name="Ellipse 10" cx="62" cy="62" r="62" transform="translate(266 1868)" fill="#0504a5"/>
    <path id="Path_2035" data-name="Path 2035" d="M52.664,56.208a7.219,7.219,0,0,1,5.343,5.943l14.926,3.868a7.315,7.315,0,0,1,7.549-2.625,7.113,7.113,0,0,1,5.25,5.438l-7.027-1.809L76.071,69.71l1.01,3.625,7.027,1.809a7.113,7.113,0,0,1-7.223,2.227,7.315,7.315,0,0,1-5.343-5.943L56.615,67.561a7.219,7.219,0,0,1-12.8-2.813l7.027,1.809,2.635-2.687-1.01-3.625-7.027-1.809a7.216,7.216,0,0,1,7.223-2.227ZM39.908,93.832h-8.16c-2.514,0-4.572,1.644-4.572,3.653v3.653H74.555V97.484c0-2.009-2.057-3.653-4.572-3.653h-8.16V85.315H80.371a5.377,5.377,0,0,0,5.361-5.361V76.815A9.436,9.436,0,0,1,76.3,79.623a9.577,9.577,0,0,1-5.1-3.338h-4.7l-4.1,4.1-3.316-1.473a17.729,17.729,0,0,1-2.886,1.2L54.9,83.5H46.83l-1.3-3.386a17.732,17.732,0,0,1-2.885-1.2l-3.317,1.473-4.1-4.1H20.483V42.94a.746.746,0,0,1,.743-.744h59.28a.746.746,0,0,1,.744.744V61.193a9.487,9.487,0,0,1,4.483,2.732V43.075a5.377,5.377,0,0,0-5.361-5.361H21.361A5.376,5.376,0,0,0,16,43.075V79.954a5.376,5.376,0,0,0,5.361,5.361H39.908ZM81.249,72.009l4.483,1.154V71.232l-4.483-1.154ZM54.457,48.091,53.307,45.1H48.425l-1.15,2.989a15.388,15.388,0,0,0-4.507,1.869l-2.929-1.3L36.387,52.11l1.3,2.928a15.4,15.4,0,0,0-1.869,4.507L32.831,60.7v4.881l2.988,1.15a15.392,15.392,0,0,0,1.869,4.508l-1.3,2.928,3.452,3.452,2.929-1.3a15.4,15.4,0,0,0,4.507,1.869l1.15,2.989h4.882l1.15-2.988a15.392,15.392,0,0,0,4.508-1.869l2.928,1.3,3.452-3.452-.973-2.192-5.58-1.446a10.834,10.834,0,1,1,2.619-9.895L68.9,62.572V60.7l-2.988-1.15a15.39,15.39,0,0,0-1.869-4.508l1.3-2.928-3.452-3.452-2.929,1.3a15.4,15.4,0,0,0-4.507-1.869Z" transform="translate(277 1860.287)" fill="#fff" fill-rule="evenodd"/>
  </g>
</svg>
