<svg xmlns="http://www.w3.org/2000/svg" width="124" height="124" viewBox="0 0 124 124">
  <g id="Group_14123" data-name="Group 14123" transform="translate(-266 -1868)">
    <circle id="Ellipse_10" data-name="Ellipse 10" cx="62" cy="62" r="62" transform="translate(266 1868)" fill="#0504a5"/>
    <path id="Path_50985" data-name="Path 50985" d="M35.035,2.514a3.838,3.838,0,0,1,3.838,0L68.784,19.783A3.838,3.838,0,0,1,70.7,23.107V57.645a3.837,3.837,0,0,1-1.919,3.323L38.873,78.237a3.836,3.836,0,0,1-3.838,0L27.558,73.92A3.837,3.837,0,1,1,31.4,67.273l5.559,3.209L63.027,55.429V25.322L36.954,10.269,10.881,25.322V55.569L16.893,59.5l.072-.007a14.125,14.125,0,0,0,2.577-.487,4.981,4.981,0,0,0,1.833-.886.511.511,0,0,0,.229-.475V28.863a3.837,3.837,0,1,1,7.675,0V57.645a8.147,8.147,0,0,1-2.769,6.18,12.446,12.446,0,0,1-4.762,2.532,21.747,21.747,0,0,1-4.019.773c-.532.053-.981.08-1.3.094-.162.007-.295.01-.392.012l-.12,0h-.06s0,0,0-3.838v3.838a3.84,3.84,0,0,1-2.1-.626l-8.8-5.756a3.838,3.838,0,0,1-1.737-3.212V23.107a3.838,3.838,0,0,1,1.919-3.323Zm1.381,25.559c2.313-1.928,5.67-3.048,10.132-3.048s7.819,1.12,10.132,3.048a8.7,8.7,0,0,1,3.3,6.546,3.838,3.838,0,0,1-7.675,0c0,.043,0,.062,0,.063a1.508,1.508,0,0,0-.539-.712C51.2,33.5,49.761,32.7,46.548,32.7s-4.653.8-5.218,1.269a1.512,1.512,0,0,0-.538.71c0,.962.052,1.059.072,1.1l0,0a1.073,1.073,0,0,0,.256.287,6.429,6.429,0,0,0,1.385.875,23.505,23.505,0,0,0,4.971,1.628l.125.031a30.147,30.147,0,0,1,6.417,2.178,10.61,10.61,0,0,1,5.2,5.6,10.862,10.862,0,0,1,.65,2.371c.048.311.074.576.088.781.007.1.011.191.014.263l0,.1v.069s0,0-3.838,0l3.838,0a8.708,8.708,0,0,1-3.3,6.55c-2.313,1.928-5.67,3.048-10.132,3.048s-7.819-1.121-10.132-3.048a8.7,8.7,0,0,1-3.3-6.546,3.838,3.838,0,0,1,7.675,0c0-.043,0-.062,0-.063a1.507,1.507,0,0,0,.539.712c.565.471,2.005,1.269,5.218,1.269s4.653-.8,5.219-1.269a1.623,1.623,0,0,0,.526-.674l0-.021a3.206,3.206,0,0,0-.19-.687,2.945,2.945,0,0,0-1.511-1.591,23.5,23.5,0,0,0-4.971-1.628l-.125-.031a30.151,30.151,0,0,1-6.416-2.178A10.646,10.646,0,0,1,34,39.214a9.566,9.566,0,0,1-.885-4.456v-.138a8.7,8.7,0,0,1,3.3-6.546Z" transform="translate(290.794 1890)" fill="#fff" fill-rule="evenodd"/>
  </g>
</svg>
