<svg id="Group_65" data-name="Group 65" xmlns="http://www.w3.org/2000/svg" xmlns:xlink="http://www.w3.org/1999/xlink" width="54.891" height="54.889" viewBox="0 0 54.891 54.889">
  <defs>
    <clipPath id="clip-path">
      <rect id="Rectangle_27" data-name="Rectangle 27" width="54.891" height="54.889" fill="#fefefe"/>
    </clipPath>
  </defs>
  <g id="Group_65-2" data-name="Group 65" clip-path="url(#clip-path)">
    <path id="Path_29" data-name="Path 29" d="M223.094,16.1a15.666,15.666,0,0,1-6.105-1.1,1.052,1.052,0,0,0-1.159.137c-.95.7-1.92,1.374-2.9,2.031a2.883,2.883,0,0,1-.74.245,2.973,2.973,0,0,1,.108-.727q.6-1.448,1.259-2.873a.919.919,0,0,0-.195-1.173c-2.841-2.948-2.732-6.695.273-9.47A12.048,12.048,0,0,1,220.3.183a14.167,14.167,0,0,1,9.677,1.788,10.254,10.254,0,0,1,2.265,1.893A6.058,6.058,0,0,1,232.2,12.3a11.3,11.3,0,0,1-6.475,3.467c-1.022.2-2.072.27-2.635.34M223.1,5.826c-1.979,0-3.959,0-5.938,0-.4,0-.76.074-.771.547-.011.506.361.6.786.6q5.938,0,11.876,0c.4,0,.755-.079.768-.559.014-.525-.362-.588-.783-.587-1.979.005-3.959,0-5.938,0M221.058,9.12v.021c-1.293,0-2.586.005-3.879,0-.425,0-.8.074-.782.59.013.476.377.553.773.551q3.822-.016,7.644-.024c.413,0,.814-.071.818-.573s-.387-.57-.808-.567c-1.255.01-2.51,0-3.765,0" transform="translate(-179.042 0)" fill="#fefefe"/>
    <path id="Path_30" data-name="Path 30" d="M9.05,44.948q3.37,0,6.741,0a2.114,2.114,0,0,1,2.28,2.278q.008,4.2,0,8.4a2.1,2.1,0,0,1-2.243,2.253q-6.8.01-13.6,0A2.1,2.1,0,0,1,.006,55.66q-.012-4.227,0-8.453A2.112,2.112,0,0,1,2.252,44.95c2.266,0,4.532,0,6.8,0m-1.759,6.42c0,.647-.016,1.294,0,1.941.022.686.539,1.013,1.131.688q1.7-.933,3.357-1.94a.719.719,0,0,0-.018-1.3q-1.636-.987-3.307-1.913c-.622-.345-1.143-.025-1.164.694-.018.608,0,1.218,0,1.827" transform="translate(0 -38.085)" fill="#fefefe"/>
    <path id="Path_31" data-name="Path 31" d="M60.4,162.441c5.515-1.729,10.384-4.275,13.692-9.324l5.337,19.912a19.008,19.008,0,0,0-8.124-2.127,30.263,30.263,0,0,0-8.395.892l-2.51-9.354" transform="translate(-51.179 -129.739)" fill="#fefefe"/>
    <path id="Path_32" data-name="Path 32" d="M255.995,281.747a3.575,3.575,0,0,1,2.653-2.056,3.561,3.561,0,0,1,3.726,4.779,18.333,18.333,0,0,1-2.265,3.332c-1.089,1.295-2.324,2.467-3.5,3.683-.415.427-.775.477-1.134.088-1.679-1.817-3.356-3.636-4.982-5.5a5.874,5.874,0,0,1-.939-1.686,3.654,3.654,0,0,1,1.777-4.371,3.318,3.318,0,0,1,4.288,1.125c.119.17.222.351.381.6" transform="translate(-211.273 -236.948)" fill="#fefefe"/>
    <path id="Path_33" data-name="Path 33" d="M160.909,146.886a1.868,1.868,0,0,1-1.969-1.5q-1.713-6.358-3.415-12.719-1.682-6.278-3.356-12.558a1.835,1.835,0,1,1,3.56-.877c.536,1.961,1.056,3.927,1.582,5.891q2.567,9.582,5.133,19.165a1.88,1.88,0,0,1-1.067,2.488,2.921,2.921,0,0,1-.468.109" transform="translate(-128.876 -99.773)" fill="#fefefe"/>
    <path id="Path_34" data-name="Path 34" d="M10.648,225.507c-1.832.48-3.588,1.084-5.4,1.376a4.682,4.682,0,0,1-5.084-3.738,4.7,4.7,0,0,1,2.9-5.651c1.635-.543,3.335-.892,5.068-1.344l2.507,9.356" transform="translate(-0.021 -183.149)" fill="#fefefe"/>
    <path id="Path_35" data-name="Path 35" d="M42.853,285.276c.066.1.125.169.169.249,1.365,2.483,2.743,4.959,4.087,7.454a2.37,2.37,0,0,1-1.517,3.553,2.26,2.26,0,0,1-2.509-1.05c-1.643-2.937-3.253-5.891-4.906-8.9l4.676-1.31" transform="translate(-32.348 -241.72)" fill="#fefefe"/>
    <path id="Path_36" data-name="Path 36" d="M201.835,195.255l-1.512-5.656c.633,0,1.2-.041,1.756.011a1.262,1.262,0,0,1,1.127.992c.219.767.427,1.537.61,2.313a1.294,1.294,0,0,1-.643,1.557c-.411.262-.841.493-1.339.782" transform="translate(-169.738 -160.638)" fill="#fefefe"/>
    <path id="Path_37" data-name="Path 37" d="M225.077,131.958c-.106.237-.162.4-.245.543q-1.149,2-2.306,4c-.057.1-.111.249-.194.271a1.191,1.191,0,0,1-.715.071.652.652,0,0,1-.2-.613q1.26-2.3,2.61-4.542a.728.728,0,0,1,.636-.172c.166.038.283.292.416.446" transform="translate(-187.591 -111.422)" fill="#fefefe"/>
    <path id="Path_38" data-name="Path 38" d="M246.345,236.218c-.011.6-.482.81-.979.532-.911-.509-1.81-1.038-2.714-1.56q-.739-.427-1.477-.856a.57.57,0,1,1,.572-.976c1.415.813,2.83,1.624,4.235,2.454a1.551,1.551,0,0,1,.363.406" transform="translate(-204.05 -197.625)" fill="#fefefe"/>
    <path id="Path_39" data-name="Path 39" d="M246.686,186.643c-.1-.11-.351-.259-.415-.466-.117-.373.121-.6.486-.693,1.156-.305,2.309-.617,3.464-.925a7.647,7.647,0,0,1,1.323-.322.829.829,0,0,1,.654.355.478.478,0,0,1-.366.7c-1.628.449-3.259.884-4.889,1.324-.036.01-.075.009-.258.028" transform="translate(-208.645 -156.107)" fill="#fefefe"/>
  </g>
</svg>
