<svg xmlns="http://www.w3.org/2000/svg" xmlns:xlink="http://www.w3.org/1999/xlink" width="38.244" height="38.251" viewBox="0 0 38.244 38.251">
  <defs>
    <clipPath id="clip-path">
      <rect id="Rectangle_73" data-name="Rectangle 73" width="38.244" height="38.251" fill="#0504a5"/>
    </clipPath>
  </defs>
  <g id="Group_13902" data-name="Group 13902" transform="translate(87.117 121.104)">
    <g id="Group_13902-2" data-name="Group 13902" transform="translate(-87.117 -121.104)" clip-path="url(#clip-path)">
      <path id="Path_790" data-name="Path 790" d="M122.188,11.539c-.176-2.578,2.511-5.208,5.7-5.606-2.016-.812-2.809-1.963-2.466-3.579a2.951,2.951,0,0,1,5.816.223c.224,1.543-.685,2.737-2.55,3.352,3.24.42,5.912,3.021,5.739,5.611Z" transform="translate(-109.198 -0.001)" fill="#0504a5"/>
      <path id="Path_791" data-name="Path 791" d="M21.3,209.261h7.142a29.283,29.283,0,0,0,1.553,9.091l-3.6,2.4a16.816,16.816,0,0,1-5.1-11.491" transform="translate(-19.034 -187.026)" fill="#0504a5"/>
      <path id="Path_792" data-name="Path 792" d="M260.881,220.757l-3.488-2.335c.341-1.475.759-2.971,1.017-4.493s.358-3.079.53-4.65h7.009a16.372,16.372,0,0,1-5.068,11.477" transform="translate(-230.044 -187.043)" fill="#0504a5"/>
      <path id="Path_793" data-name="Path 793" d="M119.773,187.633c1.3,0,2.575,0,3.847,0,.239,0,.409.009.5.3a.737.737,0,0,0,.742.5q1.274.009,2.548,0a.759.759,0,0,0,.764-.533c.083-.257.228-.271.441-.27q1.533.009,3.066,0c.263,0,.526-.036.822-.058.006.1.019.215.02.329q0,2.09,0,4.18c0,.608-.206.819-.806.819q-5.575,0-11.15,0c-.606,0-.812-.208-.813-.812q0-2.09,0-4.18c0-.116.012-.232.014-.276" transform="translate(-107.033 -167.642)" fill="#0504a5"/>
      <path id="Path_794" data-name="Path 794" d="M0,89.481c.085-2.31,1.922-4.117,4.719-4.62a2.535,2.535,0,0,1-1.674-1.04,2.317,2.317,0,0,1-.381-1.855,2.412,2.412,0,0,1,2.558-1.929,2.439,2.439,0,0,1,2.225,2.271,2.5,2.5,0,0,1-2.171,2.566A5.229,5.229,0,0,1,8.547,86.3a5.023,5.023,0,0,1,1.532,3.176Z" transform="translate(0 -71.528)" fill="#0504a5"/>
      <path id="Path_795" data-name="Path 795" d="M264.975,89.485c.248-2.482,1.968-4.155,4.749-4.611a2.534,2.534,0,0,1-1.677-1.017,2.36,2.36,0,0,1-.407-1.851,2.419,2.419,0,0,1,4.781.2,2.506,2.506,0,0,1-2.133,2.678,5.224,5.224,0,0,1,3.26,1.446,5.034,5.034,0,0,1,1.516,3.153Z" transform="translate(-236.82 -71.539)" fill="#0504a5"/>
      <path id="Path_796" data-name="Path 796" d="M118.643,134.25c0-.29-.01-.528,0-.764a1.241,1.241,0,0,1,1.181-1.227q2.149-.045,4.3,0a1.248,1.248,0,0,1,1.206,1.246c.011.235,0,.471,0,.748h2.82c.78,0,.778,0,.637.777-.071.391-.129.785-.2,1.176a.9.9,0,0,1-1,.856c-1.062.005-2.124,0-3.186.005a.322.322,0,0,1-.371-.251.824.824,0,0,0-.836-.557c-.81,0-1.62,0-2.429,0a.812.812,0,0,0-.826.569c-.075.226-.2.237-.38.236-1.062,0-2.124,0-3.186,0a.871.871,0,0,1-.975-.792c-.1-.521-.174-1.046-.273-1.567-.064-.335.057-.457.4-.453,1.02.012,2.04,0,3.123,0m1.138-.031H124.2c.007-.1.014-.161.016-.227.012-.639.012-.639-.618-.639h-3.065c-.828,0-.828,0-.755.867" transform="translate(-102.878 -118.185)" fill="#0504a5"/>
      <path id="Path_797" data-name="Path 797" d="M99.1,209.26h1.079c0,.746,0,1.472,0,2.2a1.76,1.76,0,0,0,1.948,1.942c1.644,0,3.288,0,4.964,0v3.1a18.345,18.345,0,0,0-6.511,1.456,27.685,27.685,0,0,1-1.48-8.7" transform="translate(-88.571 -187.025)" fill="#0504a5"/>
      <path id="Path_798" data-name="Path 798" d="M192.232,209.249h1.076a27.8,27.8,0,0,1-1.473,8.7,18.321,18.321,0,0,0-6.525-1.456v-3.1h.421c1.526,0,3.053,0,4.579,0a1.756,1.756,0,0,0,1.921-1.929c0-.727,0-1.454,0-2.212" transform="translate(-165.62 -187.016)" fill="#0504a5"/>
      <path id="Path_799" data-name="Path 799" d="M116.934,289.554a15.459,15.459,0,0,1,6.107-1.371v7.553a4.368,4.368,0,0,1-1.949-.689,8.267,8.267,0,0,1-2.377-2.266,15.157,15.157,0,0,1-1.781-3.227" transform="translate(-104.509 -257.55)" fill="#0504a5"/>
      <path id="Path_800" data-name="Path 800" d="M185.338,288.08a16.084,16.084,0,0,1,6.13,1.4c-1.324,2.765-2.749,5.411-6.13,6.239Z" transform="translate(-165.645 -257.47)" fill="#0504a5"/>
      <path id="Path_801" data-name="Path 801" d="M219.444,305.292c.5.294.95.538,1.378.823.583.389,1.146.809,1.769,1.252a16.417,16.417,0,0,1-7.083,3.527,14.225,14.225,0,0,0,3.936-5.6" transform="translate(-192.609 -272.854)" fill="#0504a5"/>
      <path id="Path_802" data-name="Path 802" d="M80.43,304.829a14.265,14.265,0,0,0,3.96,5.649,16.507,16.507,0,0,1-7.112-3.544l3.152-2.1" transform="translate(-69.067 -272.44)" fill="#0504a5"/>
      <rect id="Rectangle_72" data-name="Rectangle 72" width="2.169" height="0.732" transform="translate(18.029 19.068)" fill="#0504a5"/>
    </g>
  </g>
</svg>
