<svg id="Group_66" data-name="Group 66" xmlns="http://www.w3.org/2000/svg" xmlns:xlink="http://www.w3.org/1999/xlink" width="50.287" height="50.189" viewBox="0 0 50.287 50.189">
  <defs>
    <clipPath id="clip-path">
      <rect id="Rectangle_28" data-name="Rectangle 28" width="50.287" height="50.189" fill="#fefefe"/>
    </clipPath>
  </defs>
  <g id="Group_66-2" data-name="Group 66" clip-path="url(#clip-path)">
    <path id="Path_40" data-name="Path 40" d="M25.133,33.579a9.732,9.732,0,0,1-1.149-.541Q12.491,25.665,1.008,18.275A1.7,1.7,0,0,1,1,15.175L20.933,2.359c1-.641,2.014-1.255,2.987-1.932a1.982,1.982,0,0,1,2.46,0q9.116,5.9,18.256,11.752c1.555,1,3.114,1.993,4.665,3a1.693,1.693,0,0,1,.008,3.073Q37.783,25.672,26.246,33.073a8.532,8.532,0,0,1-1.113.505m3-22.155A1.743,1.743,0,0,0,26.693,9.6a1.664,1.664,0,0,0-1.858,1.254c-.317,1.231-.605,2.47-.9,3.706-.576,2.387-1.169,4.771-1.719,7.164a1.663,1.663,0,0,0,2.155,2,1.858,1.858,0,0,0,1.186-1.53c.649-2.728,1.315-5.452,1.971-8.178.22-.914.431-1.83.612-2.6M17.4,16.723c.779-.813,1.523-1.549,2.221-2.326a1.66,1.66,0,0,0-2.388-2.3Q15.5,13.835,13.82,15.632a1.553,1.553,0,0,0-.067,2.1c1.144,1.244,2.3,2.48,3.525,3.645a1.639,1.639,0,0,0,2.684-.8,1.7,1.7,0,0,0-.491-1.722c-.68-.7-1.353-1.4-2.068-2.141m15.615-.2c-.883.924-1.557,1.626-2.228,2.332a1.654,1.654,0,0,0-.062,2.459,1.713,1.713,0,0,0,2.473-.139q1.574-1.606,3.124-3.236a1.654,1.654,0,0,0-.017-2.466q-1.535-1.607-3.088-3.2a1.711,1.711,0,0,0-2.469-.167,1.693,1.693,0,0,0,.1,2.505c.676.654,1.412,1.248,2.166,1.909" transform="translate(0 -0.001)" fill="#fefefe"/>
    <path id="Path_41" data-name="Path 41" d="M50.313,125.444a1.8,1.8,0,0,1-.938,1.547q-3.9,2.492-7.79,5c-5.046,3.244-10.1,6.476-15.13,9.743a2.081,2.081,0,0,1-2.548,0q-11.4-7.371-22.832-14.693c-1.4-.9-1.354-2.2,0-3.174a1.453,1.453,0,0,1,1.943.005c6.357,4.137,12.751,8.219,19.122,12.335a5.159,5.159,0,0,0,6.068-.007q9.8-6.32,19.62-12.625a.725.725,0,0,1,1,.018c.24.2.527.34.782.523a1.646,1.646,0,0,1,.7,1.326" transform="translate(-0.035 -100.372)" fill="#fefefe"/>
    <path id="Path_42" data-name="Path 42" d="M50.325,170.369a1.8,1.8,0,0,1-.943,1.545q-4.143,2.648-8.275,5.315-7.348,4.725-14.69,9.459a2.019,2.019,0,0,1-2.458-.008Q12.535,179.3,1.083,171.961c-1.374-.883-1.343-2.2-.038-3.15a1.51,1.51,0,0,1,2.034.013c6.327,4.12,12.694,8.178,19.033,12.28a5.186,5.186,0,0,0,6.113.014q9.782-6.307,19.577-12.6c.39-.252.679-.33,1.048-.007.234.2.527.34.781.524a1.645,1.645,0,0,1,.694,1.328" transform="translate(-0.048 -136.913)" fill="#fefefe"/>
  </g>
</svg>
