<svg xmlns="http://www.w3.org/2000/svg" width="94" height="94" viewBox="0 0 94 94">
  <g id="Group_34003" data-name="Group 34003" transform="translate(-353 -4829)">
    <circle id="Ellipse_17" data-name="Ellipse 17" cx="47" cy="47" r="47" transform="translate(353 4829)" fill="#fff"/>
    <path id="Path_51041" data-name="Path 51041" d="M60.866,18.6a8.526,8.526,0,1,0,8.524,8.526A8.526,8.526,0,0,0,60.866,18.6Zm.716,12.53v.441a.716.716,0,1,1-1.432,0v-.413a2.4,2.4,0,0,1-1.558-.963.714.714,0,1,1,1.158-.836.963.963,0,0,0,.775.4h.531a.96.96,0,1,0,0-1.919h-.379a2.389,2.389,0,0,1-.527-4.718v-.441a.716.716,0,1,1,1.432,0v.413a2.4,2.4,0,0,1,1.558.962.715.715,0,0,1-1.158.838.96.96,0,0,0-.775-.4h-.531a.96.96,0,1,0,0,1.92h.379a2.389,2.389,0,0,1,.526,4.717Zm17.7.828H77.822V30.6a.714.714,0,0,0-.716-.714H75.362V12.8h1.744a.714.714,0,0,0,.716-.714v-1.36h1.462a.715.715,0,0,0,.295-1.366L61.161,1.064a.722.722,0,0,0-.589,0L42.154,9.356a.715.715,0,0,0,.295,1.366h1.466v1.36a.711.711,0,0,0,.712.714H46.37V29.883H44.626a.711.711,0,0,0-.712.714v1.361H42.449a.714.714,0,0,0-.716.714V35a.714.714,0,0,0,.716.714h9v2.846l-3.512,1.973a2.576,2.576,0,1,0,.771,1.835,2.474,2.474,0,0,0-.071-.589L52.51,39.6a.715.715,0,0,0,.362-.622V35.713h.463a11.38,11.38,0,0,0,2.434,1.639v1.64l-1.777,2.532a2.525,2.525,0,0,0-.834-.14,2.583,2.583,0,1,0,2,.961l1.9-2.717a.717.717,0,0,0,.131-.411V37.949a11.407,11.407,0,0,0,2.952.582v2.955a2.577,2.577,0,1,0,1.432,0V38.531a11.406,11.406,0,0,0,2.952-.582v1.268a.717.717,0,0,0,.131.411l1.9,2.717a2.576,2.576,0,1,0,2-.961,2.525,2.525,0,0,0-.834.14l-1.777-2.532v-1.64A11.378,11.378,0,0,0,68.4,35.713h.463v3.266a.715.715,0,0,0,.362.622L73.1,41.778a2.473,2.473,0,0,0-.067.589,2.577,2.577,0,1,0,.766-1.835l-3.513-1.974V35.713h9A.714.714,0,0,0,80,35V32.672a.714.714,0,0,0-.716-.715ZM45.342,11.367v-.646H76.39v.646ZM69.912,12.8v7.358a11.567,11.567,0,0,0-2.4-2.317V12.8Zm-7.846,0v2.965a11.426,11.426,0,0,0-2.4,0V12.8Zm-7.85,0v5.041a11.567,11.567,0,0,0-2.4,2.317V12.8ZM45.342,31.958v-.646h4.89q.133.328.278.646Zm15.524,5.167a10,10,0,1,1,10-10A10,10,0,0,1,60.866,37.124ZM76.39,31.958H71.222q.145-.318.278-.646h4.89Z" transform="translate(339.267 4851.999)" fill="#0504a5" fill-rule="evenodd"/>
  </g>
</svg>
