<svg xmlns="http://www.w3.org/2000/svg" xmlns:xlink="http://www.w3.org/1999/xlink" width="68" height="68" viewBox="0 0 68 68">
  <defs>
    <clipPath id="clip-path">
      <rect id="Rectangle_75" data-name="Rectangle 75" width="37.166" height="37.199" fill="#0504a5"/>
    </clipPath>
  </defs>
  <g id="Group_13896" data-name="Group 13896" transform="translate(-297 -2332)">
    <circle id="Ellipse_17" data-name="Ellipse 17" cx="34" cy="34" r="34" transform="translate(297 2332)" fill="#fff"/>
    <g id="Group_13904" data-name="Group 13904" transform="translate(312 2347)">
      <g id="Group_13904-2" data-name="Group 13904" clip-path="url(#clip-path)">
        <path id="Path_811" data-name="Path 811" d="M65.963,46.628c-1.09.734-1.285,1.045-.982,1.557a.766.766,0,0,0,.909.4,6.146,6.146,0,0,0,.919-.429A13.241,13.241,0,0,1,68.3,53.69c-.522,0-1.047-.007-1.571,0a.836.836,0,0,0-.833.557.712.712,0,0,0,.2.866,1.523,1.523,0,0,0,.754.266c.481.041.968.012,1.536.012l-.511,3.035c-1.394-.724-2.813-.486-4.2-.49q-10.023-.027-20.046-.006a6.6,6.6,0,0,0-3.492.51l-.52-3.05c.587,0,1.1.009,1.608,0a.853.853,0,1,0,.021-1.7c-.511-.014-1.023,0-1.565,0a14.137,14.137,0,0,1,1.5-5.571c.231.133.439.262.656.375A.859.859,0,0,0,43.01,48.2a.838.838,0,0,0-.319-1.165c-.207-.136-.425-.255-.662-.4A14.488,14.488,0,0,1,46.1,42.56c.135.231.253.446.384.653a.841.841,0,0,0,1.159.343.864.864,0,0,0,.3-1.206c-.109-.208-.233-.408-.363-.633a14.146,14.146,0,0,1,5.568-1.505c0,.542-.016,1.066,0,1.59a.845.845,0,0,0,1.2.812.888.888,0,0,0,.494-.879c0-.5,0-1,0-1.52a14.135,14.135,0,0,1,5.567,1.5c-.135.237-.263.447-.376.665a.856.856,0,0,0,.3,1.175.837.837,0,0,0,1.163-.325c.134-.207.252-.425.391-.661a14.4,14.4,0,0,1,4.068,4.065M54.85,49.473c0-1.083.006-2.167,0-3.25,0-.64-.379-1.017-.935-.97-.482.041-.765.41-.765,1.022q0,3.191,0,6.382a1.053,1.053,0,0,1-1.014,1.031c-1.545,0-3.091,0-4.636,0a1.979,1.979,0,0,0-.508.055.828.828,0,0,0,0,1.59,2.207,2.207,0,0,0,.548.055c1.559,0,3.117,0,4.675.012a.746.746,0,0,1,.489.224A1.69,1.69,0,1,0,55.09,53.25a.754.754,0,0,1-.23-.487c-.02-1.1-.01-2.193-.011-3.29" transform="translate(-35.419 -35.955)" fill="#0504a5"/>
        <path id="Path_812" data-name="Path 812" d="M54.157,223.479H65.765a2.535,2.535,0,0,1,2.759,2.759q0,4,0,8.006a2.547,2.547,0,0,1-2.754,2.772q-11.608,0-23.215,0a2.559,2.559,0,0,1-2.7-1.98,3.392,3.392,0,0,1-.061-.747q-.006-4.043,0-8.085a2.532,2.532,0,0,1,2.753-2.725H54.157m-10.124,7.611c.551,0,1.076,0,1.6,0a1.686,1.686,0,0,0,1.761-1.658,17.562,17.562,0,0,0,0-1.783,1.646,1.646,0,0,0-1.547-1.62c-.9-.036-1.8-.024-2.693-.005a.839.839,0,1,0,.088,1.674c.8.008,1.6,0,2.427,0v1.708c-.584,0-1.137-.013-1.688,0a1.64,1.64,0,0,0-1.642,1.638c-.016.567-.013,1.136,0,1.7a1.649,1.649,0,0,0,1.613,1.714c.856.04,1.716.024,2.574.006a.846.846,0,0,0,.875-.84.857.857,0,0,0-.905-.852c-.62-.016-1.241,0-1.862,0h-.6Zm8.443-1.715h-1.7c0-.82,0-1.609,0-2.4a.848.848,0,0,0-.828-.957.866.866,0,0,0-.853.977c0,.74,0,1.479,0,2.219a1.708,1.708,0,0,0,1.862,1.875c.5,0,.993,0,1.526,0,0,.193,0,.335,0,.478,0,.674-.006,1.347,0,2.021a.813.813,0,0,0,.59.839.839.839,0,0,0,1.088-.893c.006-1.928,0-3.857,0-5.785,0-.317.015-.635-.009-.951a.835.835,0,0,0-1.668.018c-.012.171-.007.343-.007.515,0,.671,0,1.342,0,2.043M63.917,227.7c-.062.18-.1.3-.147.424-.641,1.715-1.286,3.429-1.921,5.146a.845.845,0,1,0,1.575.6c.7-1.848,1.4-3.7,2.074-5.553a1.674,1.674,0,0,0-1.616-2.3c-.66-.008-1.319,0-1.979,0-.6,0-.985.343-.981.85a.859.859,0,0,0,.955.832c.659.007,1.318,0,2.039,0m-7.236,7.607a.859.859,0,0,0,.875-.8c.152-.749.3-1.5.445-2.249q.6-3,1.2-6.007a.847.847,0,0,0-.683-1.063c-.492-.089-.869.217-1,.832-.219,1.058-.427,2.118-.637,3.178-.337,1.693-.678,3.385-1,5.08a.819.819,0,0,0,.8,1.03" transform="translate(-35.581 -199.819)" fill="#0504a5"/>
        <path id="Path_813" data-name="Path 813" d="M2.51,27.775A18.469,18.469,0,0,1,6.034,4.84,18.6,18.6,0,0,1,34.692,27.849c-.02-.147-.04-.238-.042-.33-.015-.581-.008-1.163-.042-1.742a4.205,4.205,0,0,0-.622-1.86.771.771,0,0,1-.072-.538A15.749,15.749,0,0,0,31.095,8.551a15.249,15.249,0,0,0-10.575-5.9A15.9,15.9,0,0,0,4.192,11.464a15.677,15.677,0,0,0-.977,11.785.814.814,0,0,1-.08.767,4.111,4.111,0,0,0-.624,2.3c0,.487,0,.974,0,1.461" transform="translate(0 0)" fill="#0504a5"/>
      </g>
    </g>
  </g>
</svg>
