<svg xmlns="http://www.w3.org/2000/svg" width="124" height="124" viewBox="0 0 124 124">
  <g id="Group_14123" data-name="Group 14123" transform="translate(-266 -1868)">
    <circle id="Ellipse_10" data-name="Ellipse 10" cx="62" cy="62" r="62" transform="translate(266 1868)" fill="#0504a5"/>
    <g id="Group_34554" data-name="Group 34554" transform="translate(277.017 1892)">
      <path id="Path_50944" data-name="Path 50944" d="M63.087,146.013a12.973,12.973,0,0,1-3.705,7.6c-2.541,2.543-6.093,3.74-10.554,3.559-3.128-.125-4.573.694-4.81.843a5.256,5.256,0,0,1-7.176-.24,5.289,5.289,0,0,1-.82-6.371l.84-1.331a10.246,10.246,0,0,0,.581-4.286c-.179-4.462,1.018-8.012,3.559-10.554a12.9,12.9,0,0,1,7.62-3.713,12.29,12.29,0,0,1,2.561-5.326H21a6.021,6.021,0,0,0-6.015,6.013v29.826H77.732V132.421l-7.625,9.345A12.289,12.289,0,0,1,63.087,146.013Z" transform="translate(-0.001 -107.244)" fill="#fff"/>
      <path id="Path_50945" data-name="Path 50945" d="M14.983,396.749A6.021,6.021,0,0,0,21,402.761H38.092v5.157H34.3a2.253,2.253,0,1,0,0,4.506H58.41a2.253,2.253,0,1,0,0-4.506H54.621v-5.157H71.716a6.021,6.021,0,0,0,6.015-6.012v-1.922H14.983v1.922Z" transform="translate(0 -335.529)" fill="#fff"/>
      <path id="Path_50946" data-name="Path 50946" d="M180.862,208.276h-.007a.751.751,0,0,0,1.066,1.057c.046-.044,2.321-2.147,7.925-1.921,3.153.127,5.57-.628,7.186-2.244a8.491,8.491,0,1,0-12.008-12.008c-1.615,1.615-2.37,4.033-2.244,7.186.226,5.635-1.9,7.9-1.917,7.921h0Z" transform="translate(-140.78 -162.044)" fill="#fff"/>
      <path id="Path_50947" data-name="Path 50947" d="M279.458,135.072a7.765,7.765,0,0,0,3.779-2.517l2.878-3.528-10.254-10.254-3.513,2.869a7.753,7.753,0,0,0-2.525,3.776,12.994,12.994,0,0,1,9.634,9.654Z" transform="translate(-216.567 -100.935)" fill="#fff"/>
      <path id="Path_50948" data-name="Path 50948" d="M356.6,1.353a4.591,4.591,0,0,0-6.168-.309l-17.055,13.93,9.61,9.61L356.91,7.519a4.591,4.591,0,0,0-.311-6.167Z" transform="translate(-270.575 0)" fill="#fff"/>
    </g>
  </g>
</svg>
