<svg xmlns="http://www.w3.org/2000/svg" width="124" height="124" viewBox="0 0 124 124">
  <g id="Group_14123" data-name="Group 14123" transform="translate(-266 -1868)">
    <circle id="Ellipse_10" data-name="Ellipse 10" cx="62" cy="62" r="62" transform="translate(266 1868)" fill="#0504a5"/>
    <g id="Group_34494" data-name="Group 34494" transform="translate(294.7 1897)">
      <path id="Path_50925" data-name="Path 50925" d="M60.7,27.9a1,1,0,0,0,1-1V14.1a1,1,0,0,0-1-1H48.2L40.3,7.8V2a1,1,0,0,0-1-1H26.6a1,1,0,0,0-1,1V7.8l-7.9,5.3H5.3a1,1,0,0,0-1,1V26.9a1,1,0,0,0,1,1h5.4v10H5.3a1,1,0,0,0-1,1V51.7a.945.945,0,0,0,1,1H17.7l7.9,5.5V64a1,1,0,0,0,1,1H39.4a1,1,0,0,0,1-1V58.1l7.9-5.5H60.7a.945.945,0,0,0,1-1V38.9a1,1,0,0,0-1-1H55.3v-10ZM40.4,14.8V10.3L47,14.7V20l-7.9,5.6H34V15.8h5.4a1.075,1.075,0,0,0,1-1ZM36.5,33A3.5,3.5,0,1,1,33,29.5,3.478,3.478,0,0,1,36.5,33ZM27.6,3H38.4V13.8H27.6ZM19.1,14.7l6.6-4.4v4.5a1,1,0,0,0,1,1H32v9.8H26.9L19,20.1V14.7ZM6.3,25.9V15.1H17.1V25.9ZM17.1,50.7H6.3V39.9H17.1Zm1-12.8H12.7v-10h5.4a1,1,0,0,0,1-1V22.6l6.6,4.5V38.8l-6.6,4.5V38.8A1.071,1.071,0,0,0,18.1,37.9Zm7.5,13.3v4.5L19,51.2V45.9l7.9-5.5H32v9.9H26.6A.919.919,0,0,0,25.6,51.2ZM38.4,63H27.6V52.2H38.4Zm8.5-11.8-6.6,4.5V51.2a1,1,0,0,0-1-1H34V40.3h5.1L47,45.8Zm1-13.3a1,1,0,0,0-1,1v4.5l-6.6-4.5V27.1l6.6-4.7v4.4a1,1,0,0,0,1,1h5.4v10Zm11.8,2V50.7H48.9V39.9Zm-10.8-14V15.1H59.7V25.9Z" fill="#fff"/>
      <path id="Path_50926" data-name="Path 50926" d="M15.2,45.3a3.478,3.478,0,0,1-3.5,3.5,3.5,3.5,0,1,1,3.5-3.5Z" fill="#fff"/>
      <path id="Path_50927" data-name="Path 50927" d="M15.2,20.5A3.478,3.478,0,0,1,11.7,24a3.543,3.543,0,0,1-3.5-3.5,3.5,3.5,0,0,1,7,0Z" fill="#fff"/>
      <path id="Path_50928" data-name="Path 50928" d="M57.9,45.3a3.478,3.478,0,0,1-3.5,3.5,3.5,3.5,0,1,1,3.5-3.5Z" fill="#fff"/>
      <path id="Path_50929" data-name="Path 50929" d="M57.9,20.5A3.478,3.478,0,0,1,54.4,24a3.5,3.5,0,1,1,3.5-3.5Z" fill="#fff"/>
      <path id="Path_50930" data-name="Path 50930" d="M36.5,8.4A3.478,3.478,0,0,1,33,11.9a3.543,3.543,0,0,1-3.5-3.5A3.543,3.543,0,0,1,33,4.9,3.478,3.478,0,0,1,36.5,8.4Z" fill="#fff"/>
      <path id="Path_50931" data-name="Path 50931" d="M36.5,57.6A3.478,3.478,0,0,1,33,61.1a3.5,3.5,0,1,1,3.5-3.5Z" fill="#fff"/>
    </g>
  </g>
</svg>
