<svg xmlns="http://www.w3.org/2000/svg" width="124" height="124" viewBox="0 0 124 124">
  <g id="Group_14123" data-name="Group 14123" transform="translate(-266 -1868)">
    <circle id="Ellipse_10" data-name="Ellipse 10" cx="62" cy="62" r="62" transform="translate(266 1868)" fill="#0504a5"/>
    <g id="Group_34556" data-name="Group 34556" transform="translate(267.894 1894)">
      <path id="Path_50962" data-name="Path 50962" d="M92.116,49.192a6.492,6.492,0,0,0-4.155-4.457V27.421a6.49,6.49,0,1,0-6.373-11.037L66.6,7.728a6.491,6.491,0,1,0-12.744,0L38.858,16.384a6.558,6.558,0,0,0-1.014-.721,6.49,6.49,0,1,0-5.359,11.758V44.735a6.49,6.49,0,1,0,6.373,11.037l14.992,8.656a6.491,6.491,0,1,0,12.744,0l14.992-8.656a6.558,6.558,0,0,0,1.014.721,6.49,6.49,0,0,0,9.515-7.3ZM60.223,59.175a6.463,6.463,0,0,0-4.255,1.593l-15-8.658a6.442,6.442,0,0,0-.751-4.483,6.507,6.507,0,0,0-3.507-2.889V27.419A6.508,6.508,0,0,0,40.22,24.53a6.442,6.442,0,0,0,.751-4.483l15-8.659a6.479,6.479,0,0,0,8.51,0l15,8.658a6.442,6.442,0,0,0,.751,4.483,6.507,6.507,0,0,0,3.507,2.889V44.737a6.508,6.508,0,0,0-3.507,2.889,6.442,6.442,0,0,0-.751,4.483l-15,8.659A6.464,6.464,0,0,0,60.223,59.175Z" fill="#fff"/>
      <path id="Path_50963" data-name="Path 50963" d="M142.121,205.765v16.607l13.935,8V213.762Z" transform="translate(-97.947 -176.766)" fill="#fff"/>
      <path id="Path_50964" data-name="Path 50964" d="M184.991,131.036l-13.935-8-13.935,8,13.935,8Z" transform="translate(-110.833 -105.699)" fill="#fff"/>
      <path id="Path_50965" data-name="Path 50965" d="M284.934,205.765l-13.935,8V230.37l13.935-8Z" transform="translate(-208.662 -176.766)" fill="#fff"/>
    </g>
  </g>
</svg>
