<svg xmlns="http://www.w3.org/2000/svg" width="124" height="124" viewBox="0 0 124 124">
  <g id="Group_14123" data-name="Group 14123" transform="translate(-266 -1868)">
    <circle id="Ellipse_10" data-name="Ellipse 10" cx="62" cy="62" r="62" transform="translate(266 1868)" fill="#0504a5"/>
    <g id="Group_34415" data-name="Group 34415" transform="translate(295 1897)">
      <path id="Path_2051" data-name="Path 2051" d="M66.4,33.2a33.529,33.529,0,1,1-.046-1.745Q66.4,32.321,66.4,33.2Z" fill="#fff"/>
      <path id="Path_2052" data-name="Path 2052" d="M142.862,189.668v-8.631l-7.475-4.316-7.475,4.316v8.631l7.475,4.316Z" transform="translate(-111.324 -153.804)" fill="#0504a5"/>
      <path id="Path_2053" data-name="Path 2053" d="M420.041,188.36l4.871,2.813-4.871,2.813-7.474-4.316v-8.632l7.474-4.316,4.53,2.617a33.012,33.012,0,0,1,.844,5.919l-2.77,1.6V183.85l-2.6-1.5-2.6,1.5v3.007Z" transform="translate(-359.065 -153.805)" fill="#0504a5"/>
      <path id="Path_2054" data-name="Path 2054" d="M461.915,232.873V231.2l-1.451-.838-1.451.838v1.675l1.451.838Z" transform="translate(-399.488 -200.487)" fill="#5e5df8"/>
      <path id="Path_2055" data-name="Path 2055" d="M13.057,181.039v11.382l-4.985-2.844v-5.835L5.583,182.3l-2.489,1.438v5.835L.263,191.192a33.5,33.5,0,0,1,.6-11.744l4.72-2.725Z" transform="translate(0 -153.805)" fill="#0504a5"/>
      <rect id="Rectangle_16351" data-name="Rectangle 16351" width="14.95" height="8.631" transform="matrix(0.5, 0.866, -0.866, 0.5, 24.062, 22.917)" fill="#5e5df8"/>
      <path id="Path_2056" data-name="Path 2056" d="M127.912,218.631l2.567-4.186L127.912,210Z" transform="translate(-111.324 -182.767)" fill="#8c8bff"/>
      <path id="Path_2057" data-name="Path 2057" d="M190.536,185.352l2.492-4.315-7.475-4.316Z" transform="translate(-161.49 -153.804)" fill="#8c8bff"/>
      <path id="Path_2058" data-name="Path 2058" d="M279.565,99.579V111.03l-2.505-1.447-7.476,4.316v8.632l7.476,4.316,7.474-4.316V102.239Zm-.014,20.073-2.492,1.439-2.492-1.439v-2.877l2.492-1.439,2.492,1.439Z" transform="translate(-234.624 -86.666)" fill="#0504a5"/>
      <g id="Group_34415-2" data-name="Group 34415" transform="translate(25.252 38.723)">
        <path id="Path_2059" data-name="Path 2059" d="M247.689,342.544a1.454,1.454,0,0,0-1.5-1.262c-1.35,0-2.274.176-2.274.924s2.626.748,3.624,1.042a1.805,1.805,0,0,1,1.438,2.406c-.44,1.35-1.79,1.5-3.873,1.5a2.421,2.421,0,0,1-2.553-2.406h1.174s-.147,1.056,1.232,1.232,2.7.275,2.875-.792c.235-1.408-4.46-.7-4.871-2.083-.347-1.165-.147-2.7,2.2-2.934s3.638.8,3.638,2.347Z" transform="translate(-236.351 -334.748)" fill="#5e5df8"/>
        <path id="Path_2060" data-name="Path 2060" d="M194.722,311.9l2.595,1.5a1.955,1.955,0,0,0,2.933-1.693v-7.456h-1.058v7.162a1.068,1.068,0,0,1-1.6.925l-1.811-1.046v-7.643l6.619-3.821,6.619,3.821v7.643l-6.619,3.821-1.907-1.1-1.245.5,3.152,1.82,7.677-4.432v-8.864L202.4,298.6l-7.677,4.432V311.9h0Z" transform="translate(-194.722 -298.6)" fill="#5e5df8"/>
      </g>
    </g>
  </g>
</svg>
