<svg xmlns="http://www.w3.org/2000/svg" width="94" height="94" viewBox="0 0 94 94">
  <g id="Group_34003" data-name="Group 34003" transform="translate(-353 -4829)">
    <circle id="Ellipse_17" data-name="Ellipse 17" cx="47" cy="47" r="47" transform="translate(353 4829)" fill="#fff"/>
    <g id="Glyph" transform="translate(375.85 4851.84)">
      <g id="Glyph-2" data-name="Glyph" transform="translate(0.15 0.16)">
        <path id="Path_50998" data-name="Path 50998" d="M53.047,48.025a.574.574,0,0,0-.425.689,23.688,23.688,0,0,1,.631,5.417,23.308,23.308,0,0,1-23.28,23.28A23.007,23.007,0,0,1,15.941,72.7a3.852,3.852,0,1,0-.777.849,24.141,24.141,0,0,0,14.809,5.012,24.454,24.454,0,0,0,23.766-30.1.574.574,0,0,0-.692-.428Z" transform="translate(-5.547 -29.703)" fill="#0504a5"/>
        <path id="Path_50999" data-name="Path 50999" d="M1.3,24.587A23.281,23.281,0,0,1,36.77,4.755a3.431,3.431,0,1,0,.654-.945A24.435,24.435,0,0,0,.555,29.033a.57.57,0,0,0,.562.471.474.474,0,0,0,.1-.011.574.574,0,0,0,.463-.666A23.3,23.3,0,0,1,1.3,24.587Z" transform="translate(-0.15 -0.16)" fill="#0504a5"/>
        <path id="Path_51000" data-name="Path 51000" d="M55,48.469v.344h6.886v-.344A3.443,3.443,0,1,0,55,48.469Z" transform="translate(-34.016 -27.833)" fill="#0504a5"/>
        <path id="Path_51001" data-name="Path 51001" d="M51.32,23.2c-6.458.065-12.671-3.925-15.047-5.647a1.712,1.712,0,0,0-2,0c-2.376,1.722-8.6,5.7-15.047,5.647a1.735,1.735,0,0,0-1.752,1.729c0,8.834,1.771,21.47,17.025,29.19a1.71,1.71,0,0,0,1.553,0C51.3,46.4,53.069,33.767,53.072,24.933A1.742,1.742,0,0,0,51.32,23.2ZM41.584,40.672a2.869,2.869,0,0,1-2.869,2.869H31.828a2.869,2.869,0,0,1-2.869-2.869V34.551a2.869,2.869,0,0,1,1.722-2.628V31.33c.069-6.14,9.113-6.14,9.182,0v.593a2.869,2.869,0,0,1,1.722,2.628Z" transform="translate(-10.844 -10.701)" fill="#0504a5"/>
        <path id="Path_51002" data-name="Path 51002" d="M62.556,65.18a.37.37,0,0,1,.077-.292,1.235,1.235,0,1,0-2.031,0,.367.367,0,0,1,.077.29c-.09.448-.344,1.729-.524,2.618a.765.765,0,0,0,.751.913h1.423a.765.765,0,0,0,.751-.915Z" transform="translate(-37.189 -38.928)" fill="#0504a5"/>
      </g>
    </g>
  </g>
</svg>
