<svg xmlns="http://www.w3.org/2000/svg" xmlns:xlink="http://www.w3.org/1999/xlink" width="99.828" height="103.157" viewBox="0 0 99.828 103.157">
  <defs>
    <linearGradient id="linear-gradient" x1="-1.386" y1="11.968" x2="-1.388" y2="11.966" gradientUnits="objectBoundingBox">
      <stop offset="0.05" stop-color="#fff339"/>
      <stop offset="0.37" stop-color="#ff9800"/>
      <stop offset="0.53" stop-color="#ff3346"/>
      <stop offset="0.7" stop-color="#ff0d8a"/>
    </linearGradient>
    <radialGradient id="radial-gradient" cx="-1.386" cy="14.94" r="0.003" gradientUnits="objectBoundingBox">
      <stop offset="0.13" stop-color="#ffbd44"/>
      <stop offset="0.28" stop-color="#ff9800"/>
      <stop offset="0.47" stop-color="#ff3450"/>
      <stop offset="0.78" stop-color="#ff027b"/>
      <stop offset="0.86" stop-color="#ff0083"/>
    </radialGradient>
    <radialGradient id="radial-gradient-2" cx="-1.387" cy="14.938" r="0.003" gradientUnits="objectBoundingBox">
      <stop offset="0.3" stop-color="#af0611"/>
      <stop offset="0.35" stop-color="#ce1223" stop-opacity="0.741"/>
      <stop offset="0.43" stop-color="#fd243b" stop-opacity="0.341"/>
      <stop offset="0.5" stop-color="#ff304b" stop-opacity="0.09"/>
      <stop offset="0.53" stop-color="#ff3450" stop-opacity="0"/>
    </radialGradient>
    <radialGradient id="radial-gradient-3" cx="-7.755" cy="30.457" r="0.007" gradientUnits="objectBoundingBox">
      <stop offset="0.13" stop-color="#fff339"/>
      <stop offset="0.53" stop-color="#ff9800"/>
    </radialGradient>
    <radialGradient id="radial-gradient-4" cx="-3.733" cy="24.846" r="0.004" gradientUnits="objectBoundingBox">
      <stop offset="0.35" stop-color="#008ee9"/>
      <stop offset="0.67" stop-color="#a059ff"/>
      <stop offset="1" stop-color="#df36ea"/>
    </radialGradient>
    <radialGradient id="radial-gradient-5" cx="-3.73" cy="24.849" r="0.003" gradientUnits="objectBoundingBox">
      <stop offset="0.21" stop-color="#a059ff" stop-opacity="0"/>
      <stop offset="0.97" stop-color="#80008e" stop-opacity="0.6"/>
    </radialGradient>
    <radialGradient id="radial-gradient-6" cx="2.1" cy="-1.004" r="2.89" gradientUnits="objectBoundingBox">
      <stop offset="0.1" stop-color="#ffe200"/>
      <stop offset="0.79" stop-color="#ff7232"/>
    </radialGradient>
    <radialGradient id="radial-gradient-7" cx="-1.481" cy="15.507" r="0.005" gradientUnits="objectBoundingBox">
      <stop offset="0.11" stop-color="#fff339"/>
      <stop offset="0.46" stop-color="#ff9800"/>
      <stop offset="0.72" stop-color="#ff3346"/>
      <stop offset="0.9" stop-color="#ff0d8a"/>
    </radialGradient>
    <radialGradient id="radial-gradient-8" cx="0.156" cy="-0.189" r="1.639" gradientUnits="objectBoundingBox">
      <stop offset="0" stop-color="#fff339"/>
      <stop offset="0.3" stop-color="#ff9800"/>
      <stop offset="0.57" stop-color="#ff3346"/>
      <stop offset="0.74" stop-color="#ff0d8a"/>
    </radialGradient>
    <radialGradient id="radial-gradient-9" cx="-4.372" cy="30.114" r="0.012" gradientUnits="objectBoundingBox">
      <stop offset="0.14" stop-color="#fff339"/>
      <stop offset="0.48" stop-color="#ff9800"/>
      <stop offset="0.66" stop-color="#ff3346"/>
      <stop offset="0.9" stop-color="#ff0d8a"/>
    </radialGradient>
    <radialGradient id="radial-gradient-10" cx="1.593" cy="-0.45" r="3.5" gradientUnits="objectBoundingBox">
      <stop offset="0.09" stop-color="#fff339"/>
      <stop offset="0.63" stop-color="#ff9800"/>
    </radialGradient>
    <linearGradient id="linear-gradient-2" x1="-1.387" y1="11.968" x2="-1.388" y2="11.966" gradientUnits="objectBoundingBox">
      <stop offset="0.17" stop-color="#fff339" stop-opacity="0.8"/>
      <stop offset="0.6" stop-color="#fff339" stop-opacity="0"/>
    </linearGradient>
  </defs>
  <g id="Group_37444" data-name="Group 37444" transform="translate(-8.259 0.002)">
    <path id="shape-base" d="M104.492,34.606c-2.172-5.225-6.572-10.866-10.027-12.649a51.859,51.859,0,0,1,5.061,15.169c0,.008,0,.028.01.083C93.884,23.122,84.3,17.442,76.476,5.074c-.4-.625-.791-1.252-1.177-1.913q-.295-.506-.55-1.034A9.093,9.093,0,0,1,74,.15a.13.13,0,0,0-.114-.134.169.169,0,0,0-.094,0c-.007,0-.018.011-.025.013s-.086.049-.083.045C61.13,7.427,56.938,20.977,56.546,27.783a25.009,25.009,0,0,0-13.756,5.3,14.851,14.851,0,0,0-1.295-.978,23.156,23.156,0,0,1-.14-12.215,37.027,37.027,0,0,0-12.031,9.3H29.3c-1.981-2.51-1.842-10.788-1.729-12.517a8.983,8.983,0,0,0-1.669.885,36.4,36.4,0,0,0-4.885,4.184,43.762,43.762,0,0,0-4.667,5.6.029.029,0,0,1,0,.008.027.027,0,0,1,0-.008A42.184,42.184,0,0,0,9.646,42.479c-.024.108-.044.221-.067.33-.094.44-.433,2.641-.492,3.12,0,.037-.007.072-.011.109a47.641,47.641,0,0,0-.811,6.9c0,.085-.005.17-.005.255a49.985,49.985,0,0,0,99.247,8.457c.085-.64.153-1.283.227-1.928A51.377,51.377,0,0,0,104.492,34.606ZM46.884,73.724c.234.112.453.234.693.341l.034.021Q47.245,73.911,46.884,73.724Zm52.655-36.5-.007-.049c0,.018.006.036.008.054Z" transform="translate(0 -0.009)" fill="url(#linear-gradient)"/>
    <path id="body-outer-ring" d="M104.494,121.594c-2.172-5.225-6.572-10.866-10.027-12.649a51.859,51.859,0,0,1,5.061,15.169c0-.012,0,.01.007.047,0,.018.006.036.008.054C104.26,137,101.691,150,97.989,157.943c-5.727,12.291-19.594,24.888-41.3,24.274-23.45-.664-44.109-18.064-47.965-40.853-.7-3.594,0-5.418.354-8.336a37.305,37.305,0,0,0-.811,6.9c0,.085-.005.17-.005.255a49.984,49.984,0,0,0,99.247,8.456c.085-.64.153-1.283.227-1.928A51.377,51.377,0,0,0,104.494,121.594Z" transform="translate(-0.002 -86.997)" fill="url(#radial-gradient)"/>
    <path id="body-outer-ring-shadow" d="M104.494,121.594c-2.172-5.225-6.572-10.866-10.027-12.649a51.859,51.859,0,0,1,5.061,15.169c0-.012,0,.01.007.047,0,.018.006.036.008.054C104.26,137,101.691,150,97.989,157.943c-5.727,12.291-19.594,24.888-41.3,24.274-23.45-.664-44.109-18.064-47.965-40.853-.7-3.594,0-5.418.354-8.336a37.305,37.305,0,0,0-.811,6.9c0,.085-.005.17-.005.255a49.984,49.984,0,0,0,99.247,8.456c.085-.64.153-1.283.227-1.928A51.377,51.377,0,0,0,104.494,121.594Z" transform="translate(-0.002 -86.997)" fill="url(#radial-gradient-2)"/>
    <path id="tail-tip" d="M271.589,40.714c.109.077.208.153.31.229a27.181,27.181,0,0,0-4.64-6.054C251.724,19.354,265.081.306,265.085.3c-12.555,7.353-16.759,20.909-17.151,27.714.582-.04,1.163-.089,1.756-.089a25.224,25.224,0,0,1,21.9,12.788Z" transform="translate(-191.387 -0.243)" fill="url(#radial-gradient-3)"/>
    <path id="globe-base" d="M167.507,153.3c-.082,1.243-4.474,5.531-6.01,5.531-14.213,0-16.52,8.6-16.52,8.6.63,7.24,5.669,13.2,11.773,16.356.278.144.56.274.842.4q.725.321,1.468.6a22.2,22.2,0,0,0,6.5,1.254c24.911,1.168,29.737-29.781,11.76-38.768a17.257,17.257,0,0,1,12.051,2.926,25.225,25.225,0,0,0-21.9-12.787c-.593,0-1.173.049-1.756.089a25.009,25.009,0,0,0-13.756,5.3c.762.645,1.622,1.507,3.435,3.292,3.39,3.341,12.089,6.8,12.108,7.208Z" transform="translate(-109.173 -109.731)" fill="url(#radial-gradient-4)"/>
    <path id="globe-shadow" d="M167.507,153.3c-.082,1.243-4.474,5.531-6.01,5.531-14.213,0-16.52,8.6-16.52,8.6.63,7.24,5.669,13.2,11.773,16.356.278.144.56.274.842.4q.725.321,1.468.6a22.2,22.2,0,0,0,6.5,1.254c24.911,1.168,29.737-29.781,11.76-38.768a17.257,17.257,0,0,1,12.051,2.926,25.225,25.225,0,0,0-21.9-12.787c-.593,0-1.173.049-1.756.089a25.009,25.009,0,0,0-13.756,5.3c.762.645,1.622,1.507,3.435,3.292,3.39,3.341,12.089,6.8,12.108,7.208Z" transform="translate(-109.173 -109.731)" fill="url(#radial-gradient-5)"/>
    <path id="ear" d="M123.953,110.225q.522.337,1.036.686a23.156,23.156,0,0,1-.14-12.215,37.027,37.027,0,0,0-12.031,9.3c.24-.007,7.49-.137,11.135,2.232Z" transform="translate(-83.493 -78.813)" fill="url(#radial-gradient-6)"/>
    <path id="body" d="M9.6,120.375c3.856,22.789,24.515,40.189,47.965,40.853,21.7.614,35.571-11.983,41.3-24.274,3.7-7.944,6.271-20.943,1.555-33.728l0-.005-.007-.048c-.005-.037-.008-.059-.007-.047s0,.028.01.083C102.184,114.785,96.3,126,87.09,133.582l-.028.065c-17.937,14.6-35.1,8.811-38.576,6.44q-.366-.176-.728-.362c-10.457-5-14.777-14.524-13.851-22.695a12.837,12.837,0,0,1-11.841-7.447s7.928-5.653,18.376-.736a24.888,24.888,0,0,0,18.766.736c-.019-.406-8.718-3.866-12.109-7.208-1.812-1.785-2.673-2.646-3.435-3.292a14.852,14.852,0,0,0-1.295-.978q-.514-.349-1.036-.686C37.69,95.05,30.44,95.181,30.2,95.187h-.023C28.2,92.678,28.335,84.4,28.448,82.67a8.983,8.983,0,0,0-1.669.885A36.419,36.419,0,0,0,21.9,87.74a43.773,43.773,0,0,0-4.667,5.6.029.029,0,0,1,0,.008.027.027,0,0,1,0-.008,42.184,42.184,0,0,0-6.706,15.142c-.024.108-1.8,7.87-.924,11.9Z" transform="translate(-0.875 -66.009)" fill="url(#radial-gradient-7)"/>
    <path id="tail-flame" d="M312.083,34.646a27.182,27.182,0,0,1,4.64,6.054c.275.207.532.413.75.614,11.331,10.44,5.394,25.206,4.951,26.259,9.205-7.583,15.094-18.8,13.321-30.373-5.652-14.086-15.235-19.767-23.06-32.134-.4-.625-.791-1.252-1.177-1.913q-.295-.506-.55-1.034A9.092,9.092,0,0,1,310.21.141.13.13,0,0,0,310.1.007a.122.122,0,0,0-.079,0l-.039.017c-.011,0-.025.015-.037.021-1.9.98-13.395,19.07,2.142,34.6Z" transform="translate(-236.21 0)" fill="url(#radial-gradient-8)"/>
    <path id="tail-small" d="M237.1,189.374c-.218-.2-.475-.407-.75-.614-.1-.077-.2-.153-.31-.229a17.257,17.257,0,0,0-12.051-2.926c17.977,8.987,13.151,39.936-11.76,38.768a22.2,22.2,0,0,1-6.5-1.254q-.743-.279-1.468-.6c-.282-.129-.564-.258-.842-.4l.034.021c3.475,2.371,20.639,8.164,38.576-6.44l.028-.065c.443-1.051,6.379-15.818-4.951-26.258Z" transform="translate(-155.836 -148.06)" fill="url(#radial-gradient-9)"/>
    <path id="cheek-tufts" d="M87.062,219.528s2.307-8.6,16.52-8.6c1.536,0,5.929-4.287,6.01-5.531s-9.088,3.817-18.766-.736c-10.448-4.916-18.376.736-18.376.736a12.837,12.837,0,0,0,11.841,7.447c-.926,8.17,3.394,17.7,13.851,22.695.234.112.453.234.693.341C92.732,232.729,87.692,226.767,87.062,219.528Z" transform="translate(-51.258 -161.827)" fill="url(#radial-gradient-10)"/>
    <path id="overlay-yellow" d="M104.5,34.6c-2.172-5.225-6.572-10.866-10.027-12.649A51.859,51.859,0,0,1,99.53,37.118c0,.008,0,.028.01.083C93.888,23.114,84.3,17.434,76.479,5.066c-.4-.625-.791-1.252-1.177-1.913q-.295-.506-.55-1.034A9.093,9.093,0,0,1,74,.142a.13.13,0,0,0-.114-.134.122.122,0,0,0-.079,0l-.039.017c-.011,0-.051.027-.056.03A35.9,35.9,0,0,0,56.55,27.775c.582-.04,1.163-.089,1.756-.089a25.223,25.223,0,0,1,21.9,12.787,17.257,17.257,0,0,0-12.051-2.926c17.977,8.987,13.151,39.936-11.76,38.768a22.2,22.2,0,0,1-6.5-1.254q-.743-.279-1.468-.6c-.282-.129-.564-.258-.842-.4l.034.021q-.366-.176-.728-.362c.234.112.453.234.693.341C41.475,70.9,36.435,64.942,35.806,57.7c0,0,2.307-8.6,16.52-8.6,1.536,0,5.929-4.287,6.01-5.531-.019-.406-8.718-3.866-12.109-7.208-1.812-1.785-2.673-2.646-3.435-3.292A14.851,14.851,0,0,0,41.5,32.1a23.156,23.156,0,0,1-.14-12.215,37.027,37.027,0,0,0-12.031,9.3H29.3c-1.981-2.51-1.842-10.788-1.729-12.517a8.983,8.983,0,0,0-1.669.885,36.4,36.4,0,0,0-4.885,4.184,43.787,43.787,0,0,0-4.666,5.6.029.029,0,0,1,0,.008.027.027,0,0,1,0-.008A42.184,42.184,0,0,0,9.649,42.471c-.024.108-.044.221-.067.33-.094.44-.517,2.673-.576,3.152,0,.037,0-.037,0,0a58.127,58.127,0,0,0-.737,6.973c0,.085-.005.17-.005.255a49.984,49.984,0,0,0,99.246,8.456c.085-.64.153-1.283.227-1.928A51.373,51.373,0,0,0,104.5,34.6Zm-4.958,2.567c0,.018.006.036.008.054l0-.005Z" transform="translate(-0.004 -0.001)" fill="url(#linear-gradient-2)"/>
  </g>
</svg>
